<svg xmlns:xlink="http://www.w3.org/1999/xlink" width="5.949ex" height="2.509ex" style="vertical-align: -0.671ex;" viewBox="0 -791.3 2561.4 1080.4" role="img" focusable="false" xmlns="http://www.w3.org/2000/svg" aria-labelledby="MathJax-SVG-1-Title">
<title id="MathJax-SVG-1-Title">{\textstyle \mathrm {Vect} _{\mathbb {F} }}</title>
<defs aria-hidden="true">
<path stroke-width="1" id="E1-MJMAIN-56" d="M114 620Q113 621 110 624T107 627T103 630T98 632T91 634T80 635T67 636T48 637H19V683H28Q46 680 152 680Q273 680 294 683H305V637H284Q223 634 223 620Q223 618 313 372T404 126L490 358Q575 588 575 597Q575 616 554 626T508 637H503V683H512Q527 680 627 680Q718 680 724 683H730V637H723Q648 637 627 596Q627 595 515 291T401 -14Q396 -22 382 -22H374H367Q353 -22 348 -14Q346 -12 231 303Q114 617 114 620Z"></path>
<path stroke-width="1" id="E1-MJMAIN-65" d="M28 218Q28 273 48 318T98 391T163 433T229 448Q282 448 320 430T378 380T406 316T415 245Q415 238 408 231H126V216Q126 68 226 36Q246 30 270 30Q312 30 342 62Q359 79 369 104L379 128Q382 131 395 131H398Q415 131 415 121Q415 117 412 108Q393 53 349 21T250 -11Q155 -11 92 58T28 218ZM333 275Q322 403 238 411H236Q228 411 220 410T195 402T166 381T143 340T127 274V267H333V275Z"></path>
<path stroke-width="1" id="E1-MJMAIN-63" d="M370 305T349 305T313 320T297 358Q297 381 312 396Q317 401 317 402T307 404Q281 408 258 408Q209 408 178 376Q131 329 131 219Q131 137 162 90Q203 29 272 29Q313 29 338 55T374 117Q376 125 379 127T395 129H409Q415 123 415 120Q415 116 411 104T395 71T366 33T318 2T249 -11Q163 -11 99 53T34 214Q34 318 99 383T250 448T370 421T404 357Q404 334 387 320Z"></path>
<path stroke-width="1" id="E1-MJMAIN-74" d="M27 422Q80 426 109 478T141 600V615H181V431H316V385H181V241Q182 116 182 100T189 68Q203 29 238 29Q282 29 292 100Q293 108 293 146V181H333V146V134Q333 57 291 17Q264 -10 221 -10Q187 -10 162 2T124 33T105 68T98 100Q97 107 97 248V385H18V422H27Z"></path>
<path stroke-width="1" id="E1-MJAMS-46" d="M584 499Q569 490 566 490Q558 490 552 497T546 515Q546 535 533 559Q526 574 506 593T469 621Q415 648 326 648Q293 648 287 647T275 641Q264 630 263 617Q262 609 260 492V370L275 372Q323 376 350 392T393 441Q409 473 409 506Q409 529 427 529Q437 529 442 519Q444 511 444 362Q444 212 442 206Q436 197 426 197Q409 197 409 217Q409 265 375 299Q346 328 280 335H260V206Q260 70 262 63Q265 46 276 41T326 35Q362 35 366 28Q377 17 366 3L360 -1H24Q12 5 12 16Q12 35 51 35Q92 38 97 52Q102 60 102 341T97 632Q91 645 51 648Q12 648 12 666Q12 675 24 683H573Q576 678 584 670V499ZM137 341Q137 131 136 89T130 37Q129 36 129 35H182Q233 35 233 39Q226 54 225 92T224 346L226 623L231 635L235 648H129Q132 641 133 638T135 603T137 517T137 341ZM549 603V648H495L506 641Q531 621 533 619L549 603ZM409 317V395L400 386Q390 376 375 366L357 355L373 346Q394 331 397 328L409 317Z"></path>
</defs>
<g stroke="currentColor" fill="currentColor" stroke-width="0" transform="matrix(1 0 0 -1 0 0)" aria-hidden="true">
 <use xlink:href="#E1-MJMAIN-56" x="0" y="0"></use>
 <use xlink:href="#E1-MJMAIN-65" x="750" y="0"></use>
 <use xlink:href="#E1-MJMAIN-63" x="1195" y="0"></use>
 <use xlink:href="#E1-MJMAIN-74" x="1639" y="0"></use>
 <use transform="scale(0.707)" xlink:href="#E1-MJAMS-46" x="2869" y="-213"></use>
</g>
</svg>