<?xml version="1.0" encoding="UTF-8"?><svg width="1333" height="1514" viewBox="1188.9250035192 1556.5243072759 1332.9159206822 1513.7406725855" xmlns="http://www.w3.org/2000/svg" version="1.2">
	<defs xmlns="http://www.w3.org/2000/svg">
		<linearGradient id="g1" x2="1" gradientUnits="userSpaceOnUse" gradientTransform="matrix(675.979,0,0,487.325,1373.335,2006.749)">
			<stop offset="0" stop-color="#9133fc"/>
			<stop offset=".975" stop-color="#814afe"/>
		</linearGradient>
		<linearGradient id="g2" x2="1" gradientUnits="userSpaceOnUse" gradientTransform="matrix(545.385,0,0,449.149,1401.367,2446.972)">
			<stop offset="0" stop-color="#feb068"/>
			<stop offset="1" stop-color="#fd9b2d"/>
		</linearGradient>
		<linearGradient id="g3" x2="1" gradientUnits="userSpaceOnUse" gradientTransform="matrix(152.542,0,0,442.702,1918.238,2376.656)">
			<stop offset="0" stop-color="#feb068"/>
			<stop offset="1" stop-color="#fd9b2d"/>
		</linearGradient>
		<linearGradient id="g4" x2="1" gradientUnits="userSpaceOnUse" gradientTransform="matrix(222.422,0,0,79.633,1416.922,2820.656)">
			<stop offset="0" stop-color="#feb068"/>
			<stop offset="1" stop-color="#fd9b2d"/>
		</linearGradient>
		<linearGradient id="g5" x2="1" gradientUnits="userSpaceOnUse" gradientTransform="matrix(28.114,0,0,46.608,1907.077,2829.909)">
			<stop offset="0" stop-color="#353dfe"/>
			<stop offset=".975" stop-color="#2c1590"/>
		</linearGradient>
		<linearGradient id="g6" x2="1" gradientUnits="userSpaceOnUse" gradientTransform="matrix(20.221,0,0,17.824,1938.232,2819.13)">
			<stop offset="0" stop-color="#353dfe"/>
			<stop offset=".975" stop-color="#2c1590"/>
		</linearGradient>
		<linearGradient id="g7" x2="1" gradientUnits="userSpaceOnUse" gradientTransform="matrix(495.821,0,0,450.428,1529.166,1621.114)">
			<stop offset="0" stop-color="#6026fe"/>
			<stop offset=".975" stop-color="#814afe"/>
		</linearGradient>
		<linearGradient id="g8" x2="1" gradientUnits="userSpaceOnUse" gradientTransform="matrix(191.151,0,0,231.71,1710.911,1830.377)">
			<stop offset="0" stop-color="#feb068"/>
			<stop offset="1" stop-color="#fd9b2d"/>
		</linearGradient>
		<linearGradient id="g9" x2="1" gradientUnits="userSpaceOnUse" gradientTransform="matrix(137.621,0,0,120.382,1656.102,2011.512)">
			<stop offset="0" stop-color="#feb068"/>
			<stop offset="1" stop-color="#fd9b2d"/>
		</linearGradient>
		<linearGradient id="g10" x2="1" gradientUnits="userSpaceOnUse" gradientTransform="matrix(192.341,0,0,105.753,1639.168,2044.324)">
			<stop offset="0" stop-color="#6026fe"/>
			<stop offset=".975" stop-color="#814afe"/>
		</linearGradient>
		<linearGradient id="g11" x2="1" gradientUnits="userSpaceOnUse" gradientTransform="matrix(27.358,0,0,64.416,1788.722,2053.33)">
			<stop offset="0" stop-color="#6026fe"/>
			<stop offset=".975" stop-color="#814afe"/>
		</linearGradient>
		<linearGradient id="g12" x2="1" gradientUnits="userSpaceOnUse" gradientTransform="matrix(23.906,0,0,73.169,1660.669,1851.103)">
			<stop offset="0" stop-color="#feb068"/>
			<stop offset="1" stop-color="#fd9b2d"/>
		</linearGradient>
	</defs>
	<style xmlns="http://www.w3.org/2000/svg">
		.s0 { fill: url(#g1) } 
		.s1 { fill: url(#g2) } 
		.s2 { fill: #000000 } 
		.s3 { fill: #ffffff } 
		.s4 { fill: #353dfe } 
		.s5 { fill: #14fe5e } 
		.s6 { fill: url(#g3) } 
		.s7 { fill: url(#g4) } 
		.s8 { fill: #ebb000 } 
		.s9 { fill: url(#g5) } 
		.s10 { fill: url(#g6) } 
		.s11 { fill: url(#g7) } 
		.s12 { fill: url(#g8) } 
		.s13 { fill: url(#g9) } 
		.s14 { fill: url(#g10) } 
		.s15 { fill: url(#g11) } 
		.s16 { fill: url(#g12) } 
		.s17 { fill: #e38ffa } 
	</style>
	<g xmlns="http://www.w3.org/2000/svg" id="Capa 1">
	</g>
	<g xmlns="http://www.w3.org/2000/svg" id="Capa 5">
		<g id="&lt;Group&gt;">
			<path id="&lt;Compound Path&gt;" class="s0" d="m2045.08 2319.24c-4.05-8.94-8.29-17.8-12.36-26.74-7.61-16.66-14.92-33.44-21.06-50.7-2.55-7.2-4.91-14.47-6.42-21.97-0.53-2.61-1.04-5.26-1.15-7.9-0.33-8.39-1.4-16.68-3.1-24.87-5.93-28.56-14.43-56.35-25.38-83.38-3.26-8.04-7.61-15.44-13.38-21.95-3.89-4.38-8.26-8.2-13.33-11.17-0.63-0.36-1.28-0.73-1.77-1.25-0.26-0.28-0.34-0.9-0.24-1.31q0.09-0.29 0.28-0.48c-0.61-0.3-1.25-0.53-1.87-0.79-3.88 3.69-8.67 6.01-14.22 7.15-9.6 1.99-18.24-0.46-26.28-5.7-1.01-0.66-2-1.36-3.01-2.03-0.09-0.06-0.23-0.04-0.6-0.1-0.92 0.67-1.99 1.45-3.07 2.2-5.21 3.64-10.92 5.89-17.34 5.53-7.84-0.44-14.48-3.71-19.99-9.25-1.75-1.75-2.85-3.91-3.38-6.34q-0.3-1.39-0.62-2.81c-3.87 0-7.61 0.13-11.33-0.04-3.61-0.16-7.18-0.77-10.84-2.26-0.22 1.15-0.44 1.92-0.52 2.71-1.29 13.06-3.5 25.94-7.34 38.51-1.71 5.57-3.8 10.99-6.44 16.2-3.16 6.23-7.3 11.68-12.48 16.4-11.2 10.19-23.8 17.93-38.41 22.17-11.52 3.34-23.25 4.58-35.24 3.64-7.28-0.57-14.48-1.51-21.52-3.39-10.44-2.78-19.87-7.65-28.5-14.13-9.5-7.13-17.44-15.75-24.25-25.44-10.27-14.62-17.55-30.68-22.64-47.77-0.37-1.26-0.54-2.61-1.54-3.84-0.38 0-0.86-0.07-1.31 0.01-10.73 1.75-20.73-0.47-30.17-5.6-3.45-1.87-6.42-4.36-8.69-7.6-3.44-4.89-4.68-10.32-3.8-16.22 0.21-1.42 0.49-2.83 0.78-4.5-1.07 0-1.88-0.04-2.69 0.01-6.22 0.36-12.36-0.08-18.39-1.72-8.38-2.28-15.25-6.72-20.15-14.01-0.27-0.4-0.59-0.77-0.89-1.15-0.07-0.09-0.19-0.15-0.54-0.43-2.14-0.41-4.53-0.05-6.92 0.35-9.52 1.57-18.51 4.8-27.23 8.84-9.93 4.61-19.27 10.24-28.15 16.62-17.91 12.87-34.18 27.54-48.35 44.46-12.75 15.23-22.42 32.19-28.2 51.28-2.74 9.08-4.57 18.33-5.7 27.74-1.17 9.76-1.73 19.56-2.18 29.37-0.57 12.48-1.68 24.9-3.93 37.21-2.23 12.16-4.11 24.38-6.12 36.58-2.12 12.91-4.27 25.82-6.32 38.75-1.87 11.73-3.66 23.47-5.44 35.21-1.37 9.11-2.79 18.21-3.98 27.34-1.01 7.69-1.77 15.41-2.56 23.13-0.76 7.35-1.45 14.72-1.47 22.12-0.02 4.37 0.08 8.72 0.8 13.05 1.68 10.15 7.08 17.37 16.61 21.35 6.17 2.58 12.64 4.23 19.12 5.81 12.96 3.15 26.07 5.55 39.27 7.46 12.12 1.75 24.27 3.22 36.52 3.68 5.94 0.22 11.88 0.5 17.81 0.37 6.18-0.14 12.37-0.57 18.4-2.07 2.46-0.61 4.88-1.43 7.24-2.37 2.92-1.16 5.02-3.3 6.52-6.06 1.59-2.91 2.69-6.01 3.23-9.23 0.69-4.06 1.29-8.16 1.5-12.26 0.48-8.98-0.19-17.92-1.07-26.86-1.74-17.63-4.95-35.03-7.96-52.47-1.12-6.45-2.26-12.91-2.92-19.41-0.64-6.26-0.82-12.58-0.92-18.88-0.18-11.28 0.36-22.55 1.22-33.8q0.83-11.06 1.72-22.11c0.14-1.69 0.42-3.37 0.7-5.04 0.12-0.77 1.04-1.38 1.6-1.05 0.45 0.27 0.98 0.88 0.97 1.32-0.06 2.3-0.26 4.6-0.45 6.89-0.38 4.47-0.84 8.93-1.16 13.41-0.46 6.28-0.99 12.57-1.21 18.87-0.27 7.87-0.25 15.76-0.35 23.64-0.18 12.8 1.82 25.36 4.09 37.9 2.56 14.07 4.95 28.17 6.76 42.36q1.68 13.18 2.07 26.45c0.23 7.53-0.25 15.03-1.86 22.42q-0.98 4.46-2.99 8.56c-1.91 3.87-4.84 6.61-8.79 8.31-3.04 1.31-6.19 2.13-9.4 2.75q-0.02 0.6-0.05 1.22c0.26 0.04 0.57 0.18 0.66 0.34 0.39 0.73 0.75 1.52 0.92 2.33 1.27 6.18 2.31 12.39 2.18 18.74-0.02 1.09 0 2.17 0 3.45 0.72 0.41 1.4 0.89 2.15 1.22q13.06 5.75 27.27 7.36c5.82 0.65 11.6 0.61 17.42 0.17 5.2-0.39 10.42-0.54 15.63-0.79 7.14-0.34 14.29-0.63 21.44-1 6.78-0.34 13.55-0.76 20.33-1.13q7.45-0.42 14.89-0.79c7.03-0.34 14.06-0.63 21.08-0.99 7.02-0.35 14.04-0.77 21.06-1.15q7.81-0.42 15.63-0.77 11.99-0.52 23.99-0.99c6.05-0.24 12.11-0.49 18.17-0.67 2.42-0.07 4.86 0.14 7.27 0.01 6.3-0.35 12.59-0.73 18.87-1.23q7.98-0.64 15.92-1.58c8.31-0.98 16.62-1.94 24.89-3.15 11.39-1.67 22.73-3.72 33.92-6.47 6.83-1.68 13.56-3.7 20.07-6.41 4.14-1.72 8.33-3.32 12.48-5.03 1.45-0.59 2.86-1.31 4.27-2.02 1.67-0.84 2.43-2.16 2.42-4.11-0.02-2.59-0.44-5.06-1.6-7.39q-1.37-2.77-2.78-5.52c-3.24-6.25-4.67-12.97-5.05-19.94-0.32-5.84 0.19-11.65 0.99-17.41 1.89-13.69 4.04-27.34 6.03-41.01 0.82-5.63 1.5-11.29 2.2-16.94 0.13-1.05 0.02-2.13 0.02-3.36-0.5 0.19-0.89 0.23-1.11 0.44-11.58 10.95-25.42 17.58-40.73 21.46-7.78 1.97-15.64 3.42-23.63 4.02-10.72 0.8-21.33 0.13-31.61-3.37-5.09-1.73-9.84-4.11-14.06-7.48-1.04-0.83-2.01-1.76-2.94-2.71-0.4-0.42-0.75-0.98-0.89-1.54-0.09-0.39 0.11-1.02 0.4-1.27 0.29-0.25 0.91-0.3 1.32-0.19 0.43 0.13 0.81 0.51 1.15 0.85 6.02 6.07 13.57 9.21 21.69 11.19 6.05 1.48 12.22 1.85 18.42 1.74 16.57-0.31 32.51-3.63 47.6-10.52 11.44-5.22 21.18-12.7 28.74-22.85 2.18-2.93 4.04-6.05 5.66-9.32 0.76-1.53 0.84-3.03 0.18-4.54-0.58-1.33-1.31-2.59-1.96-3.89-0.27-0.53-0.57-1.07-0.7-1.64-0.07-0.28 0.1-0.8 0.33-0.95 0.37-0.23 1.03-0.47 1.29-0.29 0.69 0.45 1.34 1.04 1.8 1.72 1.88 2.76 2.76 5.9 3.32 9.15 0.63 3.6 0.82 7.23 0.82 10.87-0.01 4.85-0.02 9.71 0.07 14.56 0.09 4.85 0.37 9.7 1.38 14.46 0.58 2.71 1.35 5.42 2.41 7.98 2.64 6.37 7.3 10.77 13.73 13.26 4.33 1.69 8.84 2.59 13.46 2.91 10.08 0.69 20.11 0.18 30.1-1.32 22.65-3.38 44.56-9.43 65.69-18.28q3.52-1.47 6.91-3.22c3.36-1.74 6.45-3.87 9.13-6.55 5.22-5.21 7.93-11.5 8.21-18.87 0.28-7.18-1.27-13.99-4.2-20.47zm-506.87-107.82c-0.93 2.88-1.94 5.73-2.96 8.59-0.29 0.78-0.65 1.57-1.14 2.24-0.22 0.31-0.84 0.52-1.24 0.47-0.66-0.09-1.05-0.66-0.98-1.32 0.07-0.71 0.29-1.41 0.52-2.09 0.97-2.87 2-5.72 2.94-8.6 3.79-11.68 6.46-23.61 7.81-35.81 2.03-18.37 1.06-36.55-3.94-54.42-1.64-5.85-3.68-11.54-6.4-16.98-0.37-0.75-0.71-1.55-0.87-2.36-0.06-0.35 0.3-0.97 0.63-1.14 0.35-0.19 1.1-0.17 1.31 0.08 0.7 0.81 1.33 1.72 1.82 2.67 2.39 4.65 4.17 9.56 5.67 14.55 3.03 10.14 4.87 20.5 5.36 31.09 0.14 3.15 0.34 6.29 0.51 9.44-0.35 18.32-3.4 36.17-9.04 53.59zm165.16 140.89c-0.47 0.83-1.03 1.68-1.74 2.28-2.41 2.02-4.79 4.12-7.4 5.86-7.61 5.1-16.02 8.5-24.78 11.07-8.74 2.57-17.64 4.33-26.7 5.18-5.91 0.55-11.82 1-15.35 1.29-18.2-0.26-33.49-2.88-47.95-9.51-7.53-3.45-14.54-7.73-20.7-13.31-0.89-0.81-1.7-1.72-2.44-2.67-0.39-0.5-0.31-1.22 0.28-1.58 0.36-0.23 0.88-0.23 1.34-0.24 0.2-0.01 0.44 0.18 0.63 0.33q0.42 0.34 0.81 0.72c10.32 9.68 22.63 15.7 36.14 19.39 13.46 3.69 27.17 4.48 41.06 3.25 9.56-0.84 19-2.23 28.28-4.64 8.48-2.19 16.65-5.19 24.27-9.56 4-2.29 7.78-4.91 11.02-8.25 0.42-0.43 0.86-0.86 1.37-1.17 0.56-0.34 1.23-0.31 1.62 0.27 0.23 0.34 0.41 0.99 0.24 1.29z"/>
			<g id="&lt;Group&gt;">
				<path id="&lt;Path&gt;" class="s1" d="m1937.96 2829.43q-2.03-4.07-3.87-8.23c-5.55-12.55-13.18-23.72-22.5-33.74-1.89-2.03-4.07-3.82-6.26-5.53-4.32-3.37-9.33-5.13-14.74-5.71-3.61-0.38-7.24-0.6-10.87-0.81-10.82-0.62-21.41-2.52-31.84-5.45-18.35-5.16-36.2-11.71-53.82-18.94q-16.32-6.71-32.16-14.51c-10.07-4.95-19.33-11.08-27.86-18.37-10.8-9.22-21.11-18.97-31.17-28.98-9.89-9.83-19.66-19.79-29.52-29.65-3.01-3-6.22-5.79-9.21-8.79-3.08-3.09-6.14-6.22-9-9.5-10.59-12.18-20.53-24.89-30.46-37.61-10.37-13.28-20.67-26.63-31.05-39.92-10.6-13.59-22.19-26.33-34.22-38.67-10.24-10.51-20.73-20.78-31.58-30.67-0.35-0.33-0.7-0.68-1.07-0.98-1.24-0.99-1.48-2.16-0.52-3.47-1.18-1.29-2.35-1.67-3.95-0.98-0.92 0.4-1.69-0.32-1.69-1.28q0.01-0.36 0.06-0.72c1.05-6.94 0.24-13.78-1.03-20.61-0.25-1.31-0.51-2.61-0.71-3.93-0.07-0.47-0.1-1.02 0.09-1.41 0.16-0.33 0.56-0.62 0.93-0.77q0.03-0.61 0.07-1.2-1.76 0.33-3.54 0.6c-6.02 0.93-12.1 0.98-18.14 1.04-6.66 0.05-13.33-0.44-19.98-0.88-5.31-0.35-10.63-0.83-15.92-1.52-8.89-1.14-17.78-2.34-26.63-3.79-11.57-1.9-23.05-4.29-34.35-7.48-0.02 0.63-0.04 1.36-0.08 2.06q0.24-0.09 0.41-0.06c0.42 0.09 1.07 0.38 1.13 0.68 0.19 0.94 0.28 1.93 0.17 2.87-0.88 7.5-0.72 15.02-0.58 22.53 0.07 3.87 0.38 7.75 0.78 11.61 0.92 8.8 1.82 17.6 3.66 26.27 1.46 6.91 3.46 13.63 6.52 20.01 2.9 6.07 6.58 11.61 11.51 16.23 7.69 7.22 15.34 14.49 23.21 21.53 25.22 22.55 50.43 45.13 75.85 67.47 19.04 16.73 38.28 33.23 58.15 48.99 7.41 5.88 15 11.5 22.94 16.67 16.13 10.52 30.73 22.86 43.49 37.34 0.95 1.07 2.14 1.96 3.28 2.85 7.15 5.61 14.38 11.14 21.48 16.82 5.71 4.57 10.62 9.91 14.84 15.91 3.91 5.55 7.93 11.03 11.99 16.47 5.01 6.71 10.25 13.24 16.28 19.08q2.74 2.66 5.67 5.12c4.21 3.55 8.95 6.18 14.19 7.96 8.39 2.84 16.96 5.02 25.52 7.24 10.45 2.71 20.95 5.23 31.16 8.72 4.35 1.48 8.62 3.25 12.84 5.08 5.04 2.19 9 5.66 11.52 10.64q2.87 5.68 5.79 11.33c1.01 1.93 2 3.88 3.17 5.72 1.33 2.09 3.21 3.61 5.55 4.53 4 1.58 7.24 0.28 8.92-3.66 1.48-3.48 1.43-7.16 0.74-10.74-1.84-9.42-5.61-18.03-11.45-25.69-1.92-2.52-4.23-4.65-6.79-6.53-4.96-3.65-9-8.12-11.71-13.69-0.58-1.2-1.05-2.45-1.5-3.71-0.15-0.43-0.19-1-0.03-1.4 0.15-0.38 0.59-0.74 0.99-0.9 0.26-0.11 0.83 0.03 0.99 0.26q0.71 1.04 1.18 2.22c1.68 4.24 4.26 7.86 7.45 11.09 1.39 1.41 2.96 2.42 4.79 3.21 4.79 2.06 9.55 4.18 14.24 6.46 2.71 1.32 5.29 2.94 7.87 4.53 1.98 1.22 3.65 2.8 4.9 4.8 3.99 6.37 8.06 12.69 11.98 19.11 1.51 2.47 2.74 5.13 4.05 7.72q2.72 5.41 3.43 11.44c0.18 1.56 0.51 3.11 0.93 4.63q0.53 1.93 1.4 3.74c1.41 2.97 3.57 4.81 7.12 4.57 3.6-0.24 6.29-1.79 7.66-5.18 1.29-3.2 1.59-6.58 1.25-10.01-0.18-1.69-0.32-3.38-0.51-5.07q-0.79-7.04-1.6-14.09c-0.18-1.61-0.92-2.96-1.77-4.32-2.83-4.52-5.68-9.04-8.32-13.67-2.94-5.18-5.37-10.6-6.66-16.46-0.4-1.82-1.27-3.4-2.53-4.76q-2.47-2.67-4.98-5.31c-3.86-4.03-7.59-8.18-10.76-12.79-0.68-0.99-1.25-2.07-1.74-3.17-0.25-0.59 0.06-1.26 0.71-1.47 0.4-0.13 1.01-0.09 1.34 0.14 0.47 0.33 0.82 0.88 1.14 1.38 3.26 5.01 7.23 9.43 11.33 13.73q2.76 2.9 5.44 5.87c1.32 1.46 2.3 3.13 2.73 5.07 1.59 7.07 4.74 13.48 8.4 19.65 2.48 4.17 5.22 8.18 7.77 12.3 0.82 1.33 1.44 2.78 2.12 4.19 1.1 2.29 2.01 4.69 3.29 6.87 2.88 4.95 6.49 9.37 10.38 13.55 1.41 1.52 2.96 2.87 4.86 3.76 3.07 1.44 5.64 0.94 7.84-1.65 0.77-0.91 1.36-2 1.91-3.07 0.64-1.23 0.61-2.52 0.17-3.87-2.62-7.95-5.17-15.91-7.78-23.85-1.56-4.72-3.29-9.37-5.66-13.78-1.85-3.43-2.81-7.22-3.76-10.98-1.21-4.82-2.26-9.69-3.64-14.45-1.09-3.72-2.47-7.36-3.92-10.95-1.09-2.71-2.77-5.11-4.91-7.15-3.09-2.93-6.72-4.72-10.97-5.18-0.73-0.07-1.46-0.11-2.17-0.25-0.75-0.15-1.36-0.53-1.38-1.42-0.02-0.72 0.55-1.33 1.4-1.37 0.97-0.04 1.95-0.05 2.9 0.11q10.28 1.66 15.89 10.45c1.84 2.88 3.2 6 4.2 9.25 1.46 4.74 2.84 9.52 4.01 14.34 0.48 1.95 1.42 3.18 3.06 4.22 3.17 2.02 6.25 4.18 9.3 6.37 3.03 2.17 5.18 4.98 6.51 8.53 0.93 2.48 2.21 4.86 3.62 7.11 1.84 2.97 4.55 5.01 7.9 6.11 0.56 0.18 1.17 0.19 1.98 0.31 3.17-5.03 6.13-10.14 9.31-15.44-0.81-0.67-1.45-1.2-2.1-1.74-2.84-2.37-5.05-5.24-6.69-8.53z"/>
			</g>
			<path id="&lt;Compound Path&gt;" class="s2" d="m2448.15 2687.94c-4.97 7.61-9.93 15.24-14.93 22.83q-64.43 97.61-128.87 195.22c-2.45 3.71-2.45 3.72-6.81 4.62q-45.05 9.23-90.1 18.48c-26.47 5.45-52.93 10.94-79.4 16.39-24.09 4.97-48.2 9.89-72.29 14.85q-32.58 6.71-65.16 13.44-30.8 6.35-61.61 12.68-27.06 5.55-54.13 11.12c-1.29 0.26-2.53 0.74-3.8 1.12q-2.91 0-5.82 0c-1.86-2.42-3.86-4.69-6.71-6.45-1.49 2.29-2.85 4.37-4.21 6.45q-1.45 0-2.91 0c-0.95-0.74-1.86-1.54-2.86-2.2q-78.02-51.18-156.05-102.35-1.53-0.98-3.02-2.03c-0.87-0.62-1.21-1.46-0.86-2.54q2.06-6.4 4.09-12.82c0.48-1.51 1.59-2.4 2.94-3.05 1.37-0.66 2.76-1.28 4.68-2.17-1.15-0.37-1.69-0.6-2.25-0.72-15.98-3.5-31.97-6.97-47.94-10.52-1.96-0.44-3.82-0.52-5.71 0.14-5.38 1.88-10.79 3.66-16.13 5.64-4.88 1.81-9.69 3.84-14.53 5.75-10.91 4.32-22.22 6.76-33.9 7.79-7.51 0.67-15.01 0.72-22.53 0.66q-22.6-0.19-44.91 3.45c-4.78 0.78-9.58 1.47-14.32 2.47-6.2 1.32-12.05 3.67-17.63 6.68q-2.39 1.31-4.79 2.6c-3.05 1.63-6.15 2.29-9.47 0.2-1.11 0.76-2.16 1.55-3.28 2.24-2.06 1.26-4.11 2.58-6.27 3.65-2 0.98-4.17 1.37-6.29 0.2-0.83-0.45-1.6-0.3-2.45-0.07q-2.81 0.73-5.65 1.34c-3.3 0.71-6.54 0.32-9.68-0.73-1.66-0.56-3.21-0.7-4.96-0.53-6.61 0.63-12.1-3.35-13.49-9.62-0.62-2.8-0.29-5.58 0.69-8.23 0.78-2.09 1.35-4.02 0.43-6.27-0.81-1.95-0.5-4.08 0.01-6.1 1.87-7.33 6.07-12.56 13.51-14.85q1.02-0.34 2.02-0.73c0.1-0.04 0.16-0.18 0.41-0.5-0.17-0.73-0.35-1.65-0.58-2.56-2.04-7.91-0.89-15.37 3.13-22.44 1.45-2.55 3.45-4.34 6.28-5.2 0.57-0.17 1.13-0.44 1.72-0.58 1.48-0.37 2.64-1.09 3.39-2.5 0.44-0.81 1.14-1.49 1.84-2.36-1.29-0.91-2.64-1.03-3.88-1.38-8.87-2.5-17.79-4.8-26.6-7.47-6.72-2.04-13.32-4.48-19.93-6.86-3.55-1.27-6.92-2.95-9.85-5.39-1.36-1.13-2.87-1.35-4.67-1.45-13.98-0.75-26.64-4.98-36.94-14.87-2.36-2.26-4.57-4.7-6.64-7.23-3.21-3.89-6.95-7.11-11.36-9.53-4.78-2.62-9.6-5.17-14.43-7.71-3.86-2.04-7.75-4.01-11.62-6.03-3.8-1.98-7.12-4.59-10.14-7.62-4.04-4.05-7.65-8.45-11.01-13.06q-3.53-4.85-6.87-9.84-4.75-7.11-9.37-14.3c-6.48-10.08-11.33-20.87-13.83-32.64-0.53-2.48-0.87-5.01-1.26-7.52-0.2-1.32-0.26-2.67-1.22-3.73q0-6.19 0-12.37c0.88-0.96 1.05-2.16 1.18-3.37 0.67-6.56 2.31-12.89 4.6-19.04 2.29-6.13 4.7-12.22 7.13-18.29 0.86-2.14 1.92-4.19 2.95-6.25 2.15-4.33 5.19-7.86 9.39-10.37 3.67-2.19 6.91-4.94 9.78-8.09 3.23-3.53 6.95-6.45 11.09-8.77 6.02-3.38 12.08-6.73 18.28-9.75 17.12-8.35 34.77-15.51 52.54-22.34 13.23-5.08 26.58-9.9 39.86-14.86 1.23-0.45 2.6-0.66 3.72-1.81-0.26-0.98-0.49-2.03-0.82-3.04-2.43-7.28-3.94-14.75-4.87-22.35-0.94-7.69-1.86-15.4-2.52-23.13-0.61-7.01-0.45-14.05-0.03-21.08 0.14-2.18 0.26-4.36 0.49-6.53 0.09-0.81 0.4-1.62 0.73-2.38 0.1-0.24 0.64-0.47 0.91-0.41 0.42 0.09 1.07 0.38 1.13 0.68 0.19 0.93 0.28 1.93 0.17 2.87-0.88 7.49-0.72 15.02-0.58 22.53 0.07 3.87 0.38 7.75 0.78 11.61 0.92 8.79 1.82 17.6 3.66 26.27 1.46 6.9 3.46 13.63 6.52 20.01 2.9 6.07 6.58 11.61 11.51 16.23 7.69 7.22 15.34 14.49 23.21 21.53 25.22 22.55 50.43 45.13 75.85 67.46 19.04 16.74 38.28 33.24 58.15 49 7.41 5.88 15 11.5 22.94 16.67 16.13 10.52 30.73 22.86 43.49 37.34 0.95 1.07 2.14 1.96 3.28 2.85 7.15 5.61 14.38 11.14 21.48 16.82 5.71 4.57 10.62 9.91 14.84 15.91 3.91 5.55 7.93 11.03 11.99 16.47 5.01 6.71 10.25 13.24 16.28 19.08q2.74 2.66 5.67 5.12c4.21 3.55 8.95 6.18 14.19 7.95 8.39 2.85 16.96 5.03 25.52 7.25 10.45 2.71 20.94 5.23 31.16 8.72 4.35 1.48 8.62 3.25 12.84 5.08 5.04 2.19 9 5.66 11.52 10.64q2.87 5.68 5.79 11.33c1.01 1.93 2 3.89 3.17 5.72 1.33 2.09 3.21 3.61 5.55 4.53 4 1.58 7.24 0.28 8.92-3.66 1.48-3.48 1.43-7.16 0.74-10.74-1.84-9.42-5.61-18.03-11.45-25.69-1.92-2.52-4.23-4.65-6.79-6.53-4.96-3.65-9-8.12-11.71-13.69-0.58-1.2-1.05-2.45-1.5-3.71-0.15-0.43-0.19-1-0.03-1.4 0.15-0.38 0.59-0.74 0.99-0.9 0.26-0.11 0.83 0.03 0.99 0.26q0.71 1.04 1.18 2.22c1.68 4.24 4.26 7.86 7.45 11.09 1.39 1.41 2.96 2.42 4.79 3.21 4.79 2.06 9.55 4.18 14.24 6.46 2.71 1.32 5.29 2.94 7.87 4.53 1.98 1.22 3.65 2.8 4.9 4.8 3.99 6.37 8.06 12.69 11.98 19.1 1.51 2.48 2.74 5.14 4.05 7.73q2.72 5.41 3.43 11.44c0.18 1.56 0.51 3.11 0.93 4.63q0.53 1.93 1.4 3.74c1.41 2.97 3.57 4.81 7.12 4.57 3.6-0.24 6.29-1.79 7.66-5.18 1.29-3.2 1.59-6.58 1.25-10.01-0.18-1.69-0.32-3.38-0.51-5.07q-0.79-7.04-1.6-14.09c-0.18-1.61-0.92-2.96-1.77-4.32-2.83-4.52-5.68-9.04-8.32-13.67-2.94-5.18-5.37-10.6-6.66-16.46-0.4-1.82-1.27-3.4-2.53-4.76q-2.47-2.67-4.98-5.31c-3.86-4.03-7.59-8.18-10.76-12.79-0.68-0.99-1.25-2.07-1.74-3.17-0.25-0.59 0.06-1.26 0.71-1.47 0.4-0.13 1.01-0.09 1.34 0.14 0.47 0.33 0.82 0.88 1.14 1.38 3.26 5.01 7.23 9.43 11.33 13.73q2.76 2.9 5.44 5.87c1.32 1.46 2.3 3.13 2.73 5.07 1.59 7.07 4.74 13.48 8.4 19.65 2.48 4.17 5.22 8.18 7.77 12.3 0.82 1.32 1.44 2.78 2.12 4.19 1.1 2.29 2.01 4.69 3.29 6.87 2.88 4.95 6.49 9.37 10.38 13.55 1.41 1.52 2.96 2.87 4.86 3.76 3.07 1.44 5.64 0.94 7.84-1.65 0.77-0.91 1.36-2 1.91-3.07 0.64-1.23 0.61-2.53 0.17-3.87-2.62-7.95-5.17-15.91-7.79-23.85-1.55-4.73-3.28-9.37-5.65-13.78-1.85-3.43-2.81-7.22-3.76-10.98-1.21-4.82-2.26-9.69-3.64-14.45-1.09-3.72-2.47-7.36-3.92-10.95-1.09-2.71-2.77-5.11-4.91-7.15-3.09-2.93-6.72-4.72-10.97-5.18-0.73-0.07-1.46-0.11-2.17-0.25-0.75-0.15-1.36-0.53-1.38-1.42-0.02-0.72 0.55-1.34 1.4-1.37 0.97-0.04 1.95-0.05 2.9 0.11q10.28 1.66 15.89 10.45c1.84 2.88 3.2 6 4.2 9.25 1.46 4.74 2.84 9.52 4.01 14.34 0.48 1.95 1.42 3.17 3.06 4.22 3.17 2.02 6.25 4.18 9.3 6.37 3.03 2.16 5.18 4.98 6.51 8.53 0.93 2.48 2.21 4.86 3.62 7.11 1.84 2.97 4.55 5 7.9 6.11 0.56 0.18 1.16 0.18 1.98 0.31 3.17-5.03 6.13-10.14 9.31-15.44-0.81-0.67-1.46-1.21-2.1-1.74-2.84-2.37-5.05-5.24-6.69-8.53q-2.03-4.07-3.87-8.23c-5.55-12.55-13.18-23.72-22.5-33.74-1.89-2.03-4.07-3.82-6.26-5.53-4.32-3.37-9.33-5.13-14.74-5.71-3.61-0.39-7.24-0.6-10.87-0.81-10.82-0.63-21.41-2.52-31.84-5.45-18.35-5.16-36.2-11.72-53.82-18.94q-16.32-6.71-32.16-14.51c-10.07-4.95-19.33-11.08-27.86-18.37-10.8-9.22-21.11-18.97-31.17-28.98-9.89-9.83-19.66-19.79-29.52-29.65-3.01-3-6.22-5.79-9.21-8.79-3.08-3.09-6.14-6.22-9-9.5-10.59-12.18-20.53-24.89-30.46-37.61-10.37-13.28-20.67-26.63-31.04-39.92-10.61-13.59-22.2-26.33-34.23-38.67-10.24-10.51-20.73-20.78-31.58-30.67-0.35-0.33-0.7-0.68-1.07-0.98-1.24-0.99-1.48-2.16-0.52-3.48-1.18-1.28-2.35-1.67-3.95-0.97-0.92 0.4-1.69-0.32-1.69-1.28q0.01-0.36 0.06-0.72c1.05-6.94 0.24-13.78-1.03-20.61-0.25-1.31-0.51-2.61-0.71-3.93-0.07-0.47-0.1-1.02 0.09-1.41 0.18-0.37 0.65-0.69 1.06-0.82 0.26-0.09 0.83 0.1 0.95 0.33 0.39 0.73 0.75 1.52 0.92 2.33 1.27 6.18 2.31 12.39 2.18 18.74-0.02 1.09 0 2.17 0 3.45 0.72 0.41 1.4 0.89 2.15 1.22q13.06 5.75 27.27 7.36c5.82 0.65 11.6 0.61 17.42 0.17 5.2-0.39 10.42-0.55 15.63-0.79 7.14-0.34 14.29-0.63 21.44-1 6.78-0.34 13.55-0.76 20.33-1.13q7.45-0.42 14.89-0.79c7.03-0.34 14.06-0.63 21.08-0.99 7.02-0.35 14.04-0.77 21.06-1.15q7.81-0.42 15.63-0.77 11.99-0.52 23.99-0.99c6.05-0.24 12.11-0.49 18.17-0.67 2.42-0.07 4.86 0.13 7.27 0 6.3-0.34 12.59-0.72 18.87-1.23q7.98-0.63 15.92-1.57c8.31-0.98 16.62-1.94 24.89-3.16 11.39-1.67 22.72-3.71 33.92-6.46 6.83-1.68 13.56-3.7 20.07-6.41 4.14-1.72 8.33-3.32 12.48-5.03 1.45-0.59 2.86-1.31 4.26-2.02 1.68-0.84 2.44-2.16 2.42-4.11-0.01-2.59-0.43-5.06-1.59-7.39q-1.37-2.77-2.79-5.52c-3.23-6.26-4.66-12.97-5.04-19.94-0.32-5.84 0.19-11.65 0.99-17.41 1.89-13.69 4.04-27.34 6.03-41.01 0.82-5.64 1.5-11.29 2.2-16.95 0.13-1.04 0.02-2.12 0.02-3.35-0.5 0.19-0.89 0.23-1.11 0.44-11.58 10.95-25.42 17.58-40.73 21.46-7.78 1.97-15.64 3.42-23.63 4.02-10.73 0.8-21.33 0.13-31.61-3.37-5.1-1.73-9.84-4.11-14.06-7.48-1.04-0.83-2.01-1.76-2.94-2.71-0.4-0.42-0.75-0.98-0.89-1.54-0.09-0.39 0.11-1.02 0.4-1.28 0.29-0.25 0.91-0.29 1.32-0.18 0.43 0.13 0.81 0.51 1.15 0.85 6.02 6.07 13.56 9.2 21.69 11.19 6.05 1.48 12.22 1.85 18.42 1.74 16.57-0.31 32.51-3.63 47.6-10.52 11.44-5.22 21.18-12.7 28.74-22.85 2.18-2.93 4.03-6.05 5.66-9.32 0.76-1.54 0.84-3.03 0.18-4.54-0.58-1.33-1.31-2.59-1.96-3.89-0.27-0.53-0.57-1.07-0.7-1.64-0.07-0.28 0.1-0.8 0.33-0.95 0.37-0.23 1.03-0.47 1.29-0.29 0.69 0.45 1.34 1.04 1.8 1.72 1.88 2.76 2.76 5.9 3.32 9.15 0.63 3.6 0.82 7.23 0.82 10.87-0.01 4.85-0.03 9.7 0.07 14.55 0.09 4.86 0.37 9.71 1.38 14.47 0.58 2.71 1.35 5.42 2.41 7.98 2.64 6.37 7.3 10.76 13.73 13.26 4.33 1.69 8.84 2.59 13.46 2.91 10.08 0.69 20.11 0.18 30.1-1.32 22.65-3.38 44.56-9.43 65.68-18.28q3.53-1.47 6.92-3.22c3.36-1.74 6.45-3.87 9.13-6.55 5.22-5.21 7.93-11.5 8.21-18.87 0.28-7.18-1.28-13.99-4.21-20.48-4.04-8.94-8.28-17.81-12.35-26.74-7.61-16.66-14.92-33.44-21.06-50.7-2.55-7.2-4.91-14.47-6.42-21.97-0.53-2.61-1.05-5.26-1.15-7.9-0.33-8.39-1.4-16.68-3.1-24.87-5.93-28.56-14.43-56.35-25.38-83.38-3.26-8.04-7.61-15.44-13.38-21.95-3.89-4.38-8.26-8.2-13.34-11.17-0.62-0.36-1.27-0.74-1.76-1.25-0.26-0.28-0.34-0.9-0.24-1.31 0.17-0.65 0.78-0.95 1.42-0.82 0.58 0.12 1.18 0.34 1.68 0.65 1.84 1.17 3.72 2.29 5.46 3.6 8.48 6.41 14.78 14.64 19.62 24.03 3.05 5.94 5.41 12.19 7.72 18.44 8.38 22.66 15.42 45.71 20.41 69.36 1.8 8.54 3.27 17.13 3.58 25.9 0.25 6.82 1.9 13.42 3.84 19.94 3.44 11.52 7.78 22.7 12.37 33.8 7.23 17.48 15.21 34.63 23.28 51.74 2.18 4.62 3.98 9.36 5.05 14.37 1.2 5.64 1.51 11.3 0.14 16.95-1.87 7.77-6.24 13.89-12.74 18.44-2.47 1.73-5.13 3.24-7.85 4.54-3.72 1.78-7.57 3.26-11.36 4.87-1.1 0.47-2.19 0.96-3.4 1.5 0.13 0.88 0.17 1.59 0.34 2.26 3.45 13.13 6.38 26.38 8.63 39.78 1.44 8.61 2.76 17.24 3.41 25.95q0.6 8.16 1.06 16.33c0.41 7.4-0.46 14.78-0.72 22.17-0.08 2.42-0.3 4.84-0.41 7.26q-0.4 8.36-0.74 16.72c-0.05 1.19-0.23 2.42 0.28 3.47 0.98 0.87 2.1 0.84 3.18 0.98 10.21 1.36 20.41 2.76 30.63 4.08 1.55 0.21 3.15 0.17 4.72 0.14 5.71-0.14 11.35 0.16 16.98 1.39 7.82 1.7 15.79 2.55 23.77 3.18 5.93 0.47 11.74 1.47 17.4 3.51 8.56 3.08 17.24 5.77 25.86 8.67 5.88 1.97 11.9 3.31 17.97 4.49 5.36 1.04 10.66 2.36 15.78 4.27q3.07 1.14 6.02 2.56c3.66 1.78 6.62 4.35 9.04 7.69q13.23 18.27 26.65 36.4c2.3 3.11 4.86 6.05 7.39 8.99 1.69 1.96 2.85 4.21 3.84 6.56 2.28 5.37 3.86 10.97 5.12 16.66 1.03 4.62 1.66 9.31 1.98 14.03 0.47 6.99-0.37 13.75-3.41 20.21-4.74 10.09-9.14 20.35-13.96 30.41-4.87 10.17-10.33 20.04-16.81 29.31-0.39 0.56-0.67 1.19-1.12 2 3.16 0.21 5.86-0.62 8.58-1.06 12.68-2.06 25.34-4.23 38.01-6.38 12.19-2.06 24.37-4.17 36.56-6.22 15.06-2.54 30.12-5.03 45.18-7.57 12.19-2.05 24.37-4.13 36.56-6.19q18.11-3.06 36.21-6.1c9.33-1.57 18.66-3.08 27.97-4.72 1.76-0.31 3.03 0.01 4.2 1.33 1.92 2.18 3.92 4.29 5.89 6.43q0 1.82 0 3.64zm-993.35 211.05c1.73-0.86 3.6-1.52 5.14-2.63 3.44-2.47 6.72-5.17 10.06-7.8 0.66-0.52 1.26-1.13 1.92-1.66 0.52-0.42 1.13-0.42 1.68-0.05 0.56 0.37 0.71 1.39 0.19 1.95-0.98 1.07-2.05 2.05-3.07 3.08-0.49 0.49-1.31 0.77-1.11 1.82 1.44 0.54 2.8 0.09 4.1-0.58q2.43-1.25 4.82-2.55c7.09-3.85 14.55-6.67 22.52-7.99 6.22-1.02 12.45-1.93 18.68-2.87 11.9-1.8 23.89-2.23 35.89-2.39 1.94-0.03 3.89 0.3 5.81 0.21 6.9-0.33 13.81-0.63 20.69-1.17 10.22-0.81 20.08-3.26 29.64-6.92q13.25-5.07 26.46-10.2c0.47-0.18 1.28-0.2 1.1-1.09-0.24-0.14-0.44-0.31-0.66-0.36-11.49-2.45-22.97-5-34.49-7.29-18.42-3.67-36.88-7.18-55.32-10.73-18.33-3.52-36.66-7.01-54.99-10.52-12.14-2.33-24.34-4.35-36.36-7.26-1.99-0.48-3.99-0.91-5.83-1.33-1.83 1.01-3.44 1.98-4.3 3.62-0.88 1.68-2.24 2.45-3.92 2.96-1.16 0.35-2.29 0.79-3.42 1.22q-1.93 0.73-3.05 2.48c-5.56 8.78-6.3 18.96-0.29 28.1 2.88 4.37 7.01 6.86 12.16 7.88 3.43 0.69 6.78 0.47 10.1-0.33 7.26-1.77 12-6.07 13.23-13.72 0.11-0.71 0.34-1.41 0.48-2.12 0.51-2.68 1.6-5.1 3.41-7.14 1.78-2 2.82-4.21 2.44-6.95-0.04-0.23-0.05-0.54 0.07-0.71 0.25-0.38 0.53-0.86 0.91-0.99 0.62-0.21 1.23 0.12 1.46 0.75 0.24 0.67 0.43 1.4 0.46 2.11 0.1 2.39-0.49 4.64-2.1 6.42-2.45 2.71-3.79 5.86-4.24 9.45-0.07 0.6-0.27 1.18-0.42 1.77-1.54 5.9-5.06 10.08-10.68 12.53-4.09 1.79-8.36 2.4-12.78 2.13-6.67-0.39-12.13-3.11-16.26-8.41-0.66-0.85-1.31-1.7-2.03-2.63-1.05 0.13-2.02 0.15-2.94 0.38-6.21 1.53-11.47 7.65-12.08 14.05-0.28 2.91 0.38 5.54 2.42 7.73 1.35 1.46 3.05 2.38 4.92 2.99 4.03 1.32 8.15 1.3 12.21 0.39 3.3-0.75 6.57-1.74 9.75-2.9 7.76-2.84 15.09-6.61 22.24-10.75 1.99-1.15 3.98-2.34 6.07-3.28 1.29-0.59 2.77-0.81 4.19-1.05 0.83-0.15 1.48 0.48 1.51 1.19 0.04 0.7-0.31 1.24-0.94 1.37-3.9 0.8-7.11 3.04-10.47 4.96-6.64 3.78-13.45 7.23-20.59 9.99-4.2 1.62-8.46 2.97-12.91 3.69-5.96 0.96-11.6 0.32-16.7-3.21-0.36-0.26-0.83-0.38-1.29-0.58-1.45 1.77-1.32 3.74-1.37 5.65-0.13 5.03 4.11 9.18 8.91 9.11 1.56-0.02 3.15-0.17 4.68-0.5 3.35-0.74 6.39-2.22 9.21-4.17 0.6-0.42 1.16-0.97 1.82-1.16 0.47-0.14 1.32 0.05 1.56 0.41 0.26 0.36 0.16 1.17-0.07 1.64-0.25 0.5-0.79 0.91-1.29 1.24-1.2 0.81-2.45 1.56-3.68 2.33-0.58 0.36-1.16 0.71-2.33 1.42 1.12 0.16 1.55 0.28 1.97 0.27 7.23-0.19 13.97-1.55 18.76-7.72 0.25-0.32 1.22-0.43 1.6-0.21 0.38 0.23 0.71 1.11 0.56 1.51-0.38 0.99-0.98 1.91-1.62 2.77-0.64 0.86-1.44 1.6-2.17 2.39q-0.15 0.07-0.31 0.15 0.14-0.1 0.28-0.19zm415.86 96.35c1.51-0.28 3.04-0.54 4.56-0.85q20.12-4.15 40.23-8.29 34.37-7.05 68.74-14.11c26.47-5.45 52.92-10.95 79.39-16.4 24.22-4.98 48.44-9.91 72.66-14.9 26.47-5.45 52.93-10.94 79.39-16.4 27.18-5.6 54.36-11.2 81.56-16.73 2.09-0.42 3.59-1.26 4.58-3.1 0.23-0.43 0.52-0.82 0.79-1.23q58.22-88.19 116.44-176.39 11.73-17.76 23.42-35.53c0.58-0.88 1.49-1.64 1.32-3.09-0.59 0.04-1.17 0.04-1.73 0.13q-12.01 2.01-24.02 4.03-18.11 3.04-36.22 6.08-18.46 3.12-36.92 6.25-18.64 3.15-37.28 6.3-18.1 3.04-36.21 6.09-18.46 3.12-36.92 6.25-20.07 3.4-40.14 6.81-18.64 3.16-37.28 6.32-18.1 3.07-36.2 6.14-17.92 3.04-35.84 6.12-18.1 3.09-36.18 6.24c-11.82 2.07-23.63 4.2-35.44 6.29-6.13 1.08-5.07 0.63-8.11 5.58-8.4 13.62-16.79 27.26-24.94 41.03-30.18 51.03-60.27 102.12-90.39 153.2q-9.23 15.67-18.38 31.39c-0.45 0.77-1.32 1.46-0.88 2.77zm-534.11-435.92c2.82 0.54 5.58 0.41 8.31 0.06 8.05-1.03 16.09-2.15 24.13-3.28 4.21-0.58 8.42-1.1 12.68-0.8 1.94 0.14 3.86 0.36 5.79 0.59 7.38 0.84 14.52 2.7 21.53 5.11q0.69 0.23 1.34 0.56c0.7 0.36 1.14 0.89 0.95 1.75-0.15 0.69-0.86 1.08-1.73 0.89-0.71-0.16-1.4-0.4-2.08-0.63q-7.6-2.55-15.47-4.05c-6.47-1.24-13-1.66-19.54-0.9-5.66 0.66-11.27 1.69-16.92 2.4-5.53 0.7-11.07 1.45-16.63 1.73-7.36 0.36-14.49 1.94-21.22 4.62-9.11 3.64-17.8 8.31-25.94 13.84-2.2 1.49-4.27 3.23-6.13 5.12-3.76 3.82-7.7 7.37-12.29 10.18-2.86 1.74-5.05 4.17-6.63 7.1-1.2 2.24-2.43 4.49-3.37 6.84-2.88 7.21-5.85 14.38-8.36 21.71-4.51 13.13-5.19 26.56-2.52 40.18 2.27 11.57 6.85 22.2 13.14 32.12q5.07 7.98 10.34 15.83 3.46 5.13 7.14 10.1c3.24 4.4 6.75 8.57 10.67 12.39 2.45 2.38 5.09 4.49 8.13 6.08 3.75 1.97 7.54 3.9 11.27 5.9 5.88 3.15 11.77 6.28 17.57 9.56 3.61 2.04 6.65 4.83 9.32 8.04q2.79 3.35 5.8 6.51 7.01 7.35 16.45 11.11c4.3 1.72 8.76 2.84 13.3 3.66 0.49 0.08 1 0.06 1.5 0.09-1.01-0.91-2.08-1.44-3.2-1.85-2.62-0.95-5.26-1.84-7.89-2.77-1.36-0.48-1.96-1.11-1.87-1.89 0.1-0.93 1.18-1.34 2.7-0.88 7.94 2.37 15.56 5.42 22.31 10.37 1.65 1.21 3.44 2.28 5.3 3.14 2.86 1.31 5.77 2.56 8.76 3.54 8.06 2.64 16.12 5.28 24.26 7.64 16.19 4.69 32.54 8.73 49.1 11.91 17.37 3.33 34.77 6.52 52.15 9.85 18.21 3.48 36.39 7.13 54.61 10.55 22.99 4.31 45.86 9.17 68.7 14.23 17.39 3.85 34.8 7.6 52.19 11.48 1.86 0.42 3.53 0.29 5.33-0.18 9.5-2.46 18.98-5.05 28.55-7.2 20.1-4.51 40.25-8.77 60.38-13.14 0.81-0.18 1.59-0.42 2.93-0.79-1.08-0.57-1.66-0.96-2.29-1.19-3.42-1.22-6.8-2.58-10.3-3.57-10.61-2.98-21.28-5.76-31.91-8.72q-11.2-3.12-22.32-6.53c-5.04-1.54-9.51-4.24-13.58-7.57q-3.24-2.64-6.26-5.54c-5.87-5.65-11.04-11.92-15.91-18.44q-7.08-9.47-13.96-19.08c-3.41-4.77-7.4-8.97-11.82-12.79-7.26-6.26-14.85-12.1-22.59-17.75-1.78-1.29-3.34-2.77-4.86-4.36-4.51-4.73-9.01-9.5-13.78-13.98-10.65-9.99-22.43-18.52-34.78-26.27-0.36-0.22-0.8-0.65-1.32 0.05 0.31 0.59 0.67 1.22 0.99 1.86 1.85 3.68 3.79 7.33 5.51 11.07 3.7 8.05 6.79 16.34 9.4 24.8q0.44 1.39 0.61 2.82c0.07 0.64-0.33 1.23-1.02 1.27-0.41 0.02-1.05-0.2-1.24-0.51-0.47-0.83-0.78-1.77-1.1-2.67-1.44-4.12-2.79-8.27-4.32-12.36-3.45-9.2-7.41-18.18-12.55-26.6-2.55-4.18-5.44-8.02-9.63-10.72-0.51-0.32-0.96-0.74-1.44-1.12-17.95-14.26-35.27-29.26-52.72-44.13-14.01-11.93-29.35-21.88-46.11-29.53-10.18-4.63-20.66-8.39-31.81-9.96q-0.9-0.13-1.78-0.38c-0.88-0.24-1.32-0.85-1.16-1.56 0.15-0.68 0.65-1.04 1.3-1.03 1.21 0.03 2.44 0.01 3.62 0.25 3.55 0.75 7.12 1.48 10.62 2.45 12.46 3.45 24.11 8.81 35.32 15.17q1.37 0.77 2.75 1.52c-0.18-0.87-0.64-1.36-1.14-1.8-8.97-7.98-18.01-15.89-26.9-23.95-16.09-14.57-32.09-29.24-48.13-43.87q-8.98-8.19-14.12-19.22c-0.4-0.85-0.92-1.66-1.56-2.8-24.53 8.69-48.76 17.81-72.55 28.32zm400.94 157.2c1.07-0.41 2.34-0.81 3.53-1.36q3.47-1.6 6.88-3.33c23.16-11.7 45.9-24.2 68.45-37.03 11.9-6.78 23.73-13.69 35.23-21.15 5.62-3.65 10.82-7.8 15.47-12.62 5.14-5.33 10.21-10.71 15.38-16 11.36-11.62 24.71-20.23 39.8-26.2 7.34-2.91 14.88-5.18 22.52-7.11 1.05-0.27 2.17-0.34 3.11-1.45 0.21-1.97 0.07-4.14-0.07-6.31q-0.21-3.26-0.49-6.53c-0.19-2.17-0.43-4.34-0.64-6.51-0.2-2.11-0.1-4.29-1.2-6.43-1.08 0.49-1.96 0.85-2.81 1.28-6.06 3.06-12.1 6.15-18.17 9.19q-1.62 0.81-3.36 1.3c-0.3 0.08-0.93-0.37-1.1-0.72-0.17-0.35-0.12-1.09 0.13-1.3 0.83-0.68 1.76-1.27 2.72-1.76 6.26-3.2 12.54-6.36 18.8-9.55 1.17-0.6 2.3-1.28 3.56-1.99-0.1-1.49-0.08-2.82-0.28-4.12-1.75-11.13-3.62-22.25-6.14-33.24-2.33-10.15-4.81-20.28-7.14-30.43-0.41-1.8-1.13-3.14-2.89-3.84-0.68-0.27-1.29-0.69-1.93-1.03-10.27-5.47-20.53-10.96-30.82-16.4-4.34-2.29-8.29-5.02-11.23-9.04-0.33-0.46-0.84-0.79-1.32-1.23-0.78 0.37-1.42 0.7-2.07 0.98-9.9 4.3-19.81 8.57-30.22 11.5-16.03 4.5-32.41 7.16-48.87 9.4q-10.27 1.39-20.58 2.42c-7.6 0.77-15.21 1.35-22.82 2.01-5.2 0.45-10.41 0.35-15.62 0.49-12.36 0.35-24.71 0.92-37.06 1.46-10.3 0.46-20.59 1-30.88 1.51q-13.8 0.7-27.6 1.41c-9.45 0.49-18.89 1-28.33 1.47q-18.17 0.87-36.33 1.73c-1.09 0.05-2.18 0.17-3.27 0.22-6.05 0.26-12.11 0.74-18.17 0.7-10.51-0.06-20.71-2.09-30.6-5.65-0.77-0.28-1.54-0.53-2.85-0.98 0.6 0.74 0.78 1.03 1.02 1.26q16.55 15.07 32.14 31.13c13.11 13.48 25.67 27.46 37.15 42.37 8.88 11.53 17.83 23 26.79 34.47 10.37 13.29 20.73 26.59 31.77 39.34 2.94 3.38 6.08 6.6 9.25 9.76 3.69 3.68 7.59 7.16 11.27 10.84 9.52 9.52 18.92 19.15 28.47 28.64 8.87 8.8 17.93 17.4 27.4 25.55 1.18 1.02 2.24 2.23 4.02 2.88zm288-137.84c0 1.56 0 2.89 0 4.22-0.04 11.28-0.05 22.55-0.13 33.83-0.09 15.66 0.49 31.28 2.35 46.84 0.59 4.93 1.41 9.83 2.78 14.63 1.56 5.46 4.19 10.3 8.15 14.41q3.41 3.54 6.8 7.09c4.8 5 9.15 10.37 12.73 16.32 3.97 6.58 8.76 12.51 13.88 18.2 3.15 3.49 3.15 3.45 7.87 2.63q13.79-2.39 27.59-4.71c15.06-2.52 30.13-5.02 45.19-7.55q19-3.19 38-6.42c3.82-0.65 7.63-1.36 11.46-1.97 1.29-0.21 2.29-0.7 3.01-1.78 0.48-0.71 1.01-1.37 1.51-2.06 5.37-7.37 9.87-15.27 14.09-23.33 6.52-12.47 12.12-25.38 17.82-38.24 1.81-4.06 2.68-8.27 2.78-12.69 0.14-5.6-0.45-11.13-1.52-16.62-1.15-5.97-2.74-11.81-5.03-17.44-1.2-2.94-2.68-5.67-4.94-7.98-1.68-1.73-3.19-3.67-4.62-5.61-9.44-12.79-18.87-25.57-28.2-38.43-2.2-3.03-4.85-5.4-8.2-6.99-2.08-0.99-4.18-1.99-6.37-2.66q-6.43-1.96-12.97-3.52c-5.89-1.4-11.89-2.3-17.66-4.25-9.87-3.36-19.81-6.49-29.67-9.87-4.29-1.47-8.66-2.27-13.15-2.65-9.66-0.83-19.28-2.02-28.81-3.91-3.3-0.66-6.72-0.94-10.1-1.04-5.47-0.15-10.87 0.7-16.24 1.7-6.93 1.29-13.67 3.27-20.32 5.58-0.91 0.32-1.85 0.6-2.79 0.71-0.34 0.03-0.92-0.42-1.06-0.78-0.14-0.36-0.02-1.1 0.25-1.29 0.77-0.55 1.64-1.04 2.54-1.32 4.86-1.52 9.74-2.97 14.61-4.43 1.11-0.34 2.23-0.65 3.65-1.06-3.09-1.11-19.87-3.35-22.97-3.11-0.58 1.52-0.64 3.2-0.69 4.88q-0.46 14.91-0.88 29.82c-0.1 3.88-0.12 7.76-0.22 11.64-0.11 4-0.29 8-0.39 12-0.02 1.04-0.29 2.18 0.7 3.29 0.45-0.03 1.07 0.06 1.6-0.12 2.17-0.76 4.36-1.51 6.46-2.42 6.81-2.96 13.17-6.74 19.35-10.81 1.42-0.93 2.8-1.93 4.23-2.84 0.49-0.31 1.09-0.6 1.65-0.63 0.38-0.03 0.87 0.35 1.15 0.68 0.17 0.21 0.2 0.8 0.03 0.99-0.63 0.71-1.3 1.45-2.08 1.96-3.86 2.52-7.7 5.07-11.65 7.44-6.15 3.68-12.56 6.84-19.49 8.84-0.57 0.16-1.11 0.44-2.08 0.83zm-107.25-189.51c0 2.86 0.5 5.33 0.87 7.83 1.82 12.35 3.52 24.71 5.42 37.04q3.06 19.76 6.41 39.47c1.54 9.07 3.24 18.12 5.5 27.06 6.17 24.46 11.23 49.13 13.58 74.3q1.38 14.89 0.31 29.77c-0.9 12.46-1.8 24.91-2.12 37.39q-0.08 2.91-0.24 5.82c-0.54 10.44-0.21 20.83 1.49 31.17 1.06 6.46 1.87 12.93 1.89 19.52 0.02 11.15-2.99 21.3-9.39 30.41-3.42 4.85-7 9.59-10.49 14.4-1.64 2.25-3.31 4.49-4.85 6.81q-2.23 3.37-3.01 7.36c-0.95 4.81-0.9 9.65-0.51 14.49 0.35 4.15 1.44 8.11 3.62 11.71 1.55 2.56 2.17 5.36 2.14 8.35-0.02 2.68-0.09 5.37-1.07 7.88-0.67 1.69-0.2 2.95 0.64 4.4 2.42 4.19 4.7 8.47 7.05 12.71 0.4 0.73 0.86 1.43 1.32 2.19 2.4 0.08 4.65-0.44 6.83-1.1 0.97-0.3 1.93-1.06 2.61-1.87 1.63-1.94 3.33-3.89 4.59-6.07 5.64-9.77 7.93-20.26 6.12-31.47-0.59-3.7-1.63-7.32-2.45-10.98-0.24-1.06-0.49-2.12-0.61-3.19-0.07-0.66 0.36-1.16 1.04-1.27 0.66-0.11 1.16 0.22 1.44 0.83q0.24 0.5 0.39 1.02 1.28 4.73 2.54 9.48c0.3 1.13 0.56 2.28 0.93 3.77 0.91-0.73 1.54-1.25 2.18-1.74 2.03-1.53 4.01-3.12 6.11-4.55 1.4-0.97 3.02-1.53 4.75-1.68 2.92-0.27 5.25 0.71 6.84 3.21 0.65 1.02 1.12 2.15 1.78 3.16 0.36 0.54 0.94 0.94 1.57 1.55 0.81-1.26 1.49-2.25 2.11-3.28 4.44-7.37 8.92-14.72 13.26-22.16 1.15-1.97 2.64-2.94 4.84-3.29 10.52-1.7 21.04-3.48 31.55-5.25q17.03-2.86 34.05-5.78c0.53-0.09 1.02-0.42 1.51-0.63-0.14-0.45-0.16-0.72-0.3-0.9q-0.9-1.14-1.86-2.23c-4.9-5.55-9.44-11.37-13.27-17.74-3.01-5-6.63-9.56-10.63-13.81-2.66-2.83-5.32-5.65-8.03-8.43-4.77-4.91-7.76-10.75-9.46-17.35-1.88-7.31-2.71-14.78-3.36-22.26-1.07-12.44-1.66-24.92-1.54-37.41 0.14-15.64 0.27-31.28 0.53-46.92 0.25-14.54 0.65-29.09 0.99-43.63q0.05-1.82 0.13-3.64 0.6-14.71 1.23-29.43c0.11-2.66 0.31-5.32 0.45-7.98 0.31-5.57 0.7-11.14 0.89-16.71 0.46-12.88-0.64-25.68-2.32-38.43-1.41-10.69-3.26-21.32-5.62-31.85q-2.16-9.57-4.53-19.1c-0.31-1.22-0.3-2.7-1.8-3.58-0.82 0.23-1.76 0.45-2.66 0.75-19.71 6.61-39.8 11.53-60.56 13.38-7.37 0.66-14.77 0.82-22.14-0.14-2.75-0.36-5.48-0.87-8.68-1.38zm29.56 205.06c-1.07 0.17-1.66 0.23-2.22 0.36q-10.8 2.58-21.17 6.57c-14.1 5.4-26.74 13.15-37.58 23.7-3.56 3.46-7.11 6.97-10.39 10.7-9.3 10.58-20.19 19.11-32.27 26.33-33.22 19.83-66.98 38.67-101.67 55.84-0.72 0.36-1.67 0.46-1.86 1.67 0.48 0.44 0.97 0.96 1.53 1.4 4.11 3.22 8.4 6.16 12.98 8.69 8.18 4.52 16.6 8.53 25.14 12.31 21.86 9.68 44.13 18.27 67.12 24.86 7.82 2.24 15.71 4.15 23.83 4.87 5.32 0.48 10.63 0.99 15.95 1.26 9.48 0.48 17.74 3.72 24.47 10.49 2.65 2.66 5.13 5.5 7.59 8.33 1.5 1.74 2.82 3.64 4.25 5.45 0.35 0.45 0.68 1.04 1.43 0.81 0.16-0.19 0.39-0.35 0.45-0.55 1.21-4.41 0.88-8.64-1.48-12.64-1.82-3.06-2.98-6.38-3.4-9.9-0.56-4.58-0.76-9.15-0.35-13.79 0.48-5.36 2.16-10.16 5.31-14.48 1.71-2.35 3.49-4.66 5.21-7.01 3.07-4.21 6.19-8.39 9.15-12.67q8.51-12.33 8.53-27.35c0.01-5.84-0.53-11.61-1.38-17.38-0.71-4.79-1.45-9.6-1.8-14.42-0.32-4.59-0.25-9.21-0.16-13.82 0.15-7.39 0.43-14.78 0.73-22.17q0.4-9.45 0.98-18.89c0.3-4.84 0.73-9.67 1.07-14.51 0.08-1.18 0.01-2.37 0.01-4.06zm-54.96 275.95q-0.31 0.12-0.62 0.25c0.16 1.56 0.39 3.11 0.46 4.68 0.18 3.74 0.35 7.5 0.39 11.25 0.03 2.21-0.62 4.32-1.6 6.29-2.16 4.38-5.89 6.28-10.61 6.36-4.56 0.09-7.41-2.5-9.3-6.38-0.38-0.76-0.75-1.54-0.96-2.35-0.64-2.58-1.39-5.16-1.75-7.79-0.39-2.8-1.12-5.46-2.29-8-1.18-2.52-2.31-5.09-3.75-7.47-4.01-6.64-8.18-13.18-12.25-19.78-1.37-2.22-3.13-4.05-5.39-5.3-4.14-2.27-8.35-4.42-12.53-6.59-0.17-0.09-0.43 0.02-0.65 0.05-0.02 0.1-0.11 0.25-0.07 0.31q0.79 1.22 1.61 2.4c5.77 8.14 9.53 17.11 11.14 26.98 0.65 4.05 0.27 7.98-1.49 11.72-2.22 4.69-7.05 6.3-11.22 4.91-3.76-1.26-6.66-3.51-8.6-6.88-1.63-2.83-2.96-5.83-4.5-8.72-1.82-3.41-3.64-6.85-5.65-10.15-0.86-1.42-2.14-2.61-3.36-3.78-1.88-1.8-4.04-2.2-6.69-1.65-23.13 4.81-46.25 9.64-69.24 15.1-10.02 2.38-20.03 4.81-29.85 7.93q-3.29 1.05-6.47 2.4c-0.74 0.31-1.43 0.92-1.93 1.55-0.81 1.03-0.62 2.05 0.41 2.84 0.76 0.59 1.59 1.11 2.4 1.64q60.71 40.06 121.42 80.12 17.14 11.33 34.31 22.63c1.18 0.77 2.26 1.81 3.85 1.99 0.42-0.52 0.85-0.95 1.15-1.45q28.38-47.23 56.72-94.47c0.11-0.17 0.02-0.45 0.02-0.78-0.33-0.05-0.67-0.15-1.01-0.13-3.08 0.22-5.72-0.9-8.05-2.77-1.41-1.14-2.81-2.36-3.94-3.76-2.98-3.66-5.83-7.44-8.71-11.18-0.5-0.64-0.93-1.35-1.4-2.02zm551.26-185.38c-0.66-1.75-1.85-2.49-2.63-3.54-1.21-1.65-2.67-2.02-4.73-1.64-9.42 1.7-18.88 3.21-28.32 4.81q-18.28 3.09-36.56 6.19-17.92 3.03-35.85 6.05-20.97 3.54-41.95 7.06-18.28 3.07-36.57 6.14-18.1 3.05-36.21 6.11-18.28 3.1-36.56 6.18c-12.19 2.06-24.39 4.07-36.57 6.13-15.06 2.54-30.11 5.12-45.17 7.66-15.05 2.53-30.12 5.02-45.18 7.55-17.09 2.87-34.18 5.71-51.26 8.68-4.99 0.87-3.81 0.08-6.4 4.38q-25.3 42.09-50.59 84.18-43.39 72.18-86.77 144.36-0.84 1.4-1.61 2.85c-0.37 0.7-0.35 1.44 0.2 2.03 1.53 1.67 2.98 3.45 5.18 4.8 0.74-1.13 1.42-2.11 2.02-3.13 20.51-34.93 40.93-69.9 61.53-104.77 21.02-35.61 42.21-71.11 63.37-106.64 3.47-5.83 7.2-11.51 10.72-17.32 1.41-2.34 3.21-3.63 6-4.1 16.25-2.76 32.46-5.72 48.7-8.56 11.93-2.1 23.88-4.12 35.83-6.16q18.09-3.1 36.19-6.19 18.28-3.11 36.56-6.21 18.1-3.08 36.2-6.15 18.29-3.08 36.57-6.17 20.25-3.45 40.5-6.88c12.31-2.07 24.63-4.1 36.94-6.18 12.18-2.05 24.37-4.16 36.56-6.21 13.62-2.29 27.25-4.54 40.87-6.82q23.13-3.89 46.25-7.82c0.81-0.14 1.61-0.39 2.74-0.67zm-549.3-356.07c-0.42 0.18-0.7 0.21-0.81 0.37-2.25 3.15-4.43 6.35-6.72 9.47-0.79 1.07-0.89 2.19-0.99 3.41-0.44 5.07-0.73 10.16-1.45 15.19-2.14 15.1-4.48 30.18-6.69 45.28-0.82 5.63-1.37 11.31-1.29 17.01 0.05 2.91 0.22 5.82 0.58 8.7 0.71 5.73 2.84 11.01 5.66 16 2.32 4.13 3.58 8.47 3.03 13.22-0.15 1.3 0.16 2.46 0.95 3.41 1.31 1.57 2.61 3.22 4.2 4.48 1.99 1.56 4.19 2.89 6.42 4.09 7.78 4.2 15.62 8.29 23.44 12.43 2.24 1.19 4.46 2.44 6.72 3.62 0.49 0.26 1.08 0.33 1.72 0.51 0.47-1.41 0.15-2.58-0.07-3.76-0.62-3.34-1.27-6.67-1.8-10.01-2.28-14.23-4.57-28.46-6.76-42.7q-2.94-19.22-5.64-38.46c-0.3-2.12-1.05-3.47-3.08-4.43-6.8-3.25-11.2-8.7-13.72-15.74-1.77-4.94-2.67-10.07-2.86-15.3-0.22-6.41-0.29-12.84-0.43-19.26q-0.07-3.08-0.19-6.17c-0.02-0.44-0.14-0.87-0.22-1.36zm-38.68 661.24c-0.87-1.2-2.09-1.79-3.18-2.51q-63.11-41.65-126.22-83.28-14.56-9.62-29.15-19.2c-1.07-0.71-2.05-1.68-3.66-1.81-0.9 2.18-1.78 4.26-2.06 6.61 0.9 1.11 2.11 1.7 3.21 2.42q49.54 32.5 99.1 64.98 27.35 17.95 54.72 35.88c1.18 0.78 2.28 1.78 3.84 2.09 1.45-1.56 2.5-3.27 3.4-5.18zm93.95-173c3.8-0.4 7.09-0.98 10.34-1.78 0.64-0.15 1.23-0.72 1.7-1.22 0.48-0.53 0.8-1.21 1.18-1.83q8.33-13.87 16.65-27.74c0.55-0.93 1.03-1.9 1.56-2.87-0.69-0.99-1.34-1.86-1.91-2.78-0.63-1.03-1.15-2.13-1.79-3.16-1.41-2.21-3.11-2.84-5.59-1.92-1.24 0.46-2.5 1.02-3.54 1.81-2.02 1.54-3.86 3.3-5.83 4.91-1.71 1.42-2.28 3.1-2.32 5.38-0.19 10.67-3.06 20.55-9.34 29.31-0.33 0.47-0.59 0.99-1.11 1.89zm-14.88 41.1c-0.53-0.29-1.02-0.61-1.55-0.83-4.85-1.98-8.18-5.52-10.44-10.14-0.85-1.74-1.68-3.5-2.36-5.31-0.84-2.22-2.14-4.08-4.02-5.48-2.71-2.04-5.48-3.99-8.24-5.95-0.34-0.24-0.81-0.3-1.5-0.55 0.63 3.43 1.77 6.3 3.09 9.15 1.63 3.51 3.24 7.04 4.57 10.66 1.66 4.55 3.02 9.2 4.51 13.81 1.22 3.8 2.43 7.61 3.67 11.4 0.21 0.66 0.39 1.43 1.35 1.59 0.23-0.2 0.57-0.39 0.74-0.67q4.98-8.24 9.91-16.5c0.17-0.29 0.16-0.68 0.27-1.18zm13.25-21.22c3.44-5.77 6.66-11.16 9.85-16.56 0.16-0.28 0.1-0.69 0.16-1.21-0.9 0-1.74-0.12-2.54 0.02q-8.03 1.4-16.05 2.9c-0.53 0.1-1 0.51-1.63 0.84 2.23 5.47 4.76 10.45 10.21 14.01z"/>
			<path id="&lt;Compound Path&gt;" class="s2" d="m1782.99 1618.16q3.01 0.65 6.02 1.28c8.86 1.85 16.8 5.55 23.25 12.02 2.12 2.13 3.88 4.63 5.77 7 0.67 0.84 1.21 1.79 1.76 2.61 1.43 0.22 2.13-0.78 2.95-1.41 5.32-4.07 10.97-7.58 17.04-10.41 6.64-3.1 13.58-5.27 20.88-5.99 10.32-1.02 20.06 0.98 28.97 6.37 14.03 8.49 22.33 20.83 24.64 37.15 1.5 10.63 0.22 21.02-2.62 31.29-0.26 0.93-0.54 1.86-0.78 2.8-0.06 0.22 0.01 0.47 0.02 0.75 0.62 0.99 1.69 0.7 2.61 0.79 8.36 0.78 16.55 2.35 24.49 5.12 4.83 1.68 9.43 3.84 13.68 6.71 6.99 4.72 11.83 10.99 14.15 19.18 2.63 9.3 3.87 18.71 3.11 28.39q-0.6 7.82-2.49 15.41c-0.17 0.7-0.29 1.41-0.42 2.12-0.02 0.11 0.07 0.23 0.18 0.6 0.88 0.24 1.89 0.58 2.93 0.81 14.42 3.17 24.9 11.49 31.77 24.44 3.96 7.47 6.15 15.51 7.16 23.89q2.24 18.54-5.8 35.39c-0.21 0.43-0.32 0.91-0.53 1.55 0.55 0.28 1.03 0.64 1.57 0.77 13.61 3.31 20.87 12.45 23.55 25.72 0.57 2.83 0.79 5.77 0.87 8.66 0.29 10.22-0.36 20.37-2.92 30.31-0.6 2.34-1.34 4.66-2.15 6.94-1.8 5.11-4.51 9.65-8.52 13.36q-2.8 2.6-5.56 5.24c-0.59 0.57-1.14 1.19-1.82 1.91 0.75 0.71 1.33 1.3 1.94 1.84 5.33 4.69 8.25 10.66 9.55 17.55 1.03 5.45 0.79 10.88-0.16 16.28-1.26 7.19-3.32 14.15-6.46 20.77-1.42 2.96-3.1 5.76-5.19 8.31-2.84 3.46-6.22 6.1-10.64 7.24-0.45 0.11-0.87 0.35-1.42 0.58 0.12 0.79 0.21 1.49 0.34 2.19 1.36 7.07-0.41 13.25-5.47 18.37-5.87 5.94-12.94 9.83-21.14 11.36-5.25 0.98-10.4 0.3-15.1-2.52-0.61-0.37-1.25-0.69-2.04-1.12-0.57 0.74-1.1 1.36-1.55 2.04-4.39 6.63-10.63 10.47-18.33 12.06-9.6 1.99-18.24-0.46-26.28-5.7-1.01-0.66-2-1.36-3.01-2.03-0.09-0.06-0.23-0.04-0.6-0.1-0.92 0.67-1.99 1.45-3.07 2.2-5.21 3.64-10.92 5.89-17.34 5.53-7.84-0.44-14.48-3.71-19.99-9.25-1.75-1.75-2.85-3.91-3.38-6.34q-0.3-1.39-0.62-2.81c-3.87 0-7.61 0.13-11.33-0.04-3.61-0.16-7.18-0.78-10.84-2.26-0.22 1.14-0.44 1.92-0.52 2.71-1.29 13.06-3.5 25.94-7.34 38.5-1.71 5.58-3.8 11-6.44 16.21-3.16 6.23-7.3 11.68-12.48 16.4-11.2 10.19-23.8 17.93-38.41 22.16-11.52 3.35-23.25 4.59-35.24 3.65-7.28-0.57-14.48-1.51-21.52-3.39-10.44-2.78-19.87-7.65-28.5-14.13-9.5-7.13-17.44-15.75-24.25-25.44-10.28-14.62-17.55-30.68-22.64-47.77-0.37-1.26-0.54-2.62-1.54-3.84-0.38 0-0.86-0.07-1.31 0.01-10.73 1.75-20.73-0.47-30.17-5.6-3.45-1.87-6.42-4.37-8.69-7.6-3.44-4.89-4.68-10.32-3.8-16.22 0.21-1.42 0.49-2.83 0.78-4.5-1.07 0-1.88-0.04-2.69 0-6.22 0.37-12.36-0.07-18.39-1.71-8.38-2.28-15.25-6.72-20.15-14.01-0.27-0.4-0.59-0.77-0.89-1.15-0.07-0.09-0.19-0.15-0.54-0.43-2.14-0.41-4.53-0.05-6.92 0.35-9.52 1.57-18.51 4.8-27.23 8.84-9.93 4.61-19.27 10.24-28.15 16.62-17.91 12.87-34.18 27.54-48.35 44.46-12.75 15.23-22.42 32.19-28.2 51.28-2.74 9.08-4.57 18.33-5.7 27.74-1.17 9.76-1.73 19.56-2.18 29.37-0.57 12.48-1.68 24.9-3.93 37.21-2.23 12.16-4.11 24.38-6.12 36.58-2.12 12.91-4.27 25.82-6.32 38.75-1.87 11.73-3.66 23.47-5.44 35.21-1.37 9.11-2.79 18.21-3.98 27.34-1.01 7.69-1.77 15.41-2.56 23.12-0.76 7.36-1.45 14.73-1.47 22.13-0.02 4.37 0.08 8.72 0.8 13.05 1.68 10.15 7.08 17.37 16.61 21.35 6.17 2.58 12.64 4.23 19.12 5.81 12.96 3.15 26.07 5.55 39.27 7.45 12.12 1.76 24.27 3.23 36.52 3.69 5.94 0.22 11.88 0.5 17.81 0.37 6.17-0.14 12.37-0.57 18.4-2.07 2.46-0.61 4.88-1.43 7.24-2.37 2.92-1.16 5.02-3.3 6.52-6.06 1.59-2.91 2.69-6.01 3.23-9.23 0.69-4.06 1.29-8.16 1.5-12.26 0.48-8.98-0.19-17.92-1.07-26.87-1.74-17.63-4.95-35.03-7.96-52.46-1.12-6.45-2.26-12.91-2.92-19.41-0.64-6.26-0.82-12.58-0.92-18.88-0.18-11.28 0.36-22.55 1.22-33.8q0.83-11.06 1.72-22.11c0.14-1.69 0.42-3.37 0.7-5.04 0.12-0.77 1.03-1.38 1.6-1.05 0.45 0.26 0.98 0.88 0.97 1.32-0.06 2.3-0.26 4.6-0.45 6.89-0.38 4.47-0.84 8.93-1.16 13.41-0.47 6.28-0.99 12.57-1.21 18.87-0.27 7.87-0.25 15.76-0.35 23.64-0.18 12.8 1.82 25.36 4.09 37.9 2.56 14.07 4.95 28.17 6.76 42.36q1.68 13.18 2.07 26.45c0.23 7.53-0.25 15.03-1.86 22.42q-0.98 4.46-2.99 8.56c-1.91 3.87-4.84 6.61-8.79 8.31-4.27 1.84-8.77 2.72-13.34 3.43-6.02 0.93-12.1 0.98-18.14 1.04-6.66 0.05-13.33-0.44-19.98-0.88-5.31-0.35-10.63-0.83-15.92-1.52-8.89-1.14-17.78-2.34-26.63-3.79-12.2-2.01-24.3-4.54-36.19-7.99q-4.36-1.27-8.62-2.86c-12-4.47-18.35-13.36-20.03-25.84-0.88-6.52-0.87-13.05-0.27-19.59 0.6-6.64 0.99-13.3 1.67-19.93q1.09-10.67 2.55-21.3c1.24-9.12 2.62-18.23 4-27.34q2.33-15.27 4.76-30.53 2.32-14.54 4.72-29.07 2.72-16.5 5.46-32.99c1.52-9.21 3.19-18.4 4.49-27.64 0.81-5.75 1.16-11.57 1.55-17.38 0.41-6.17 0.55-12.35 0.92-18.52 0.89-14.8 2.65-29.46 6.78-43.75 5.66-19.63 15.26-37.18 28.16-52.94 13.36-16.32 28.81-30.46 45.61-43.16 9.79-7.4 20.15-13.91 31.22-19.25 8.77-4.23 17.81-7.66 27.4-9.53 2.6-0.51 5.23-0.88 7.8-1.31 0.49-1.31-0.27-2.23-0.64-3.21-2.05-5.38-3.19-10.9-3.13-16.69q0.07-7.73 2.81-14.92c0.43-1.13 0.84-2.25 1.33-3.57-0.61-0.3-1.09-0.65-1.63-0.8-10.9-2.96-16.75-10.51-19.2-21.13-1.05-4.52-1.39-9.12-1.13-13.73 0.38-6.54 0.76-13.07 1.88-19.54 1.45-8.35 4.41-16 8.87-23.27 4.33-7.07 9.94-12.79 16.21-18.01 1.3-1.08 2.59-2.16 4.07-3.39-0.58-0.67-0.96-1.26-1.48-1.67-9.38-7.51-13.8-17.52-13.69-29.26 0.23-23.05 9.66-41.69 28.04-55.69 2.89-2.21 5.96-4.16 8.94-6.26 0.97-0.68 1.9-1.43 2.93-2.22-0.43-1.2-0.77-2.22-1.15-3.22-2.51-6.49-4.1-13.21-4.42-20.16-1.04-22.96 13.72-36.02 28.73-40.66 8.2-2.54 16.51-2.29 24.8-0.42 1.89 0.42 3.73 1.05 5.6 1.57q1.38 0.38 2.73 0.73c0.93-1.28 0.39-2.48 0.2-3.63q-1.71-10.55 2.8-20.22c2.23-4.8 5.42-8.92 9.45-12.32 9.71-8.21 20.86-13.25 33.57-14.32 9.45-0.79 18.3 1.49 26.48 6.27 1.03 0.6 2.07 1.19 3.3 1.9 0.81-1.61 0.82-3.17 1.06-4.67 1.89-11.71 7.14-21.54 16.34-29.15 4.72-3.9 10.05-6.74 15.78-8.85 5.95-2.19 12.12-3.42 18.38-4.27 0.95-0.13 1.89-0.39 2.83-0.59q7.27 0 14.55 0zm166.97 437.21c0.79 0.45 1.48 0.7 2 1.15 4.13 3.57 8.97 4.8 14.24 4.09 9.17-1.22 16.8-5.5 22.6-12.66 3.77-4.65 4.53-10.07 2.33-15.77-0.31-0.78-0.63-1.58-0.79-2.4-0.12-0.64 0.26-1.18 0.92-1.36 0.35-0.1 0.72-0.12 1.08-0.12 4-0.04 7.21-1.78 10-4.52 2.53-2.5 4.45-5.44 6.04-8.59 2.85-5.67 4.72-11.67 6.15-17.83 1.23-5.25 1.66-10.56 1.13-15.9-0.82-8.34-4.16-15.38-11.3-20.25-2.47-1.68-2.45-2.24-0.16-4.33q4.17-3.79 8.29-7.64c3.16-2.96 5.32-6.57 6.92-10.56q3.27-8.17 4.26-16.88c0.61-5.29 1.08-10.62 1.27-15.94 0.21-5.71-0.26-11.41-1.99-16.9-3.5-11.07-10.87-17.79-22.47-19.64-0.48-0.08-0.96-0.13-1.43-0.25-1.34-0.35-1.82-1.23-1.29-2.44 0.34-0.77 0.82-1.48 1.18-2.25 1.01-2.2 2.11-4.37 2.95-6.64 3.96-10.73 4.66-21.74 2.56-32.94-1.27-6.71-3.3-13.18-6.66-19.16-6.95-12.38-17.28-20.05-31.42-22.35-0.84-0.14-1.68-0.26-2.51-0.44-1.36-0.31-1.75-0.96-1.44-2.39q0.16-0.71 0.38-1.4c1.46-4.64 2.34-9.39 2.91-14.23 1.26-10.64 0.13-21.02-2.94-31.26-2.04-6.8-6.06-12.06-11.74-16.17-4.47-3.22-9.4-5.53-14.59-7.29q-10.55-3.57-21.65-4.56-3.08-0.26-6.15-0.61-2.04-0.25-1.5-2.32c0.34-1.29 0.8-2.54 1.2-3.82 3.43-11.17 4.7-22.56 2.57-34.12-2.98-16.22-12.35-27.65-27.06-34.73-9.7-4.66-19.9-4.93-30.21-2.46-11.42 2.74-21.38 8.4-30.5 15.64-0.67 0.53-1.29 1.11-1.97 1.62-1.68 1.27-2.4 1.11-3.43-0.71q-0.25-0.49-0.48-0.98c-3.6-7.03-9-12.27-15.88-16.04-6.49-3.57-13.52-5.3-20.86-5.75-7.17-0.45-14.3 0.08-21.35 1.5-7.42 1.49-14.53 3.84-20.99 7.9q-14.68 9.22-19.15 25.99c-0.97 3.65-1.5 7.36-1.51 11.14-0.01 0.95 0.09 2.05-0.9 2.61-1.23 0.7-2.02-0.33-2.85-0.97-10.43-8.02-22.17-10.67-34.99-8.15-10.59 2.08-19.97 6.78-27.74 14.32-9.5 9.23-12 20.4-8.6 33.05 0.18 0.7 0.45 1.38 0.61 2.09 0.31 1.44-0.72 2.28-2.18 1.8q-0.68-0.24-1.34-0.55-7.86-3.51-16.43-4.47c-12.38-1.39-23.29 1.87-32.53 10.33-7.06 6.47-10.61 14.62-11.16 24.11-0.51 8.77 1.42 17.1 4.66 25.18 0.36 0.9 0.77 1.78 1.1 2.69 0.32 0.9 0.07 1.69-0.68 2.27q-1 0.78-2.05 1.51c-3.18 2.22-6.35 4.45-9.56 6.64-6.4 4.36-11.72 9.8-16.05 16.17-8.46 12.43-12.78 26.1-11.63 41.2 0.78 10.34 5.32 18.77 14 24.76 0.6 0.41 1.22 0.78 1.79 1.24 0.75 0.62 0.82 1.53 0.16 2.23-0.5 0.52-1.07 0.98-1.63 1.44q-2.12 1.72-4.24 3.44c-6.41 5.26-12.14 11.06-16.36 18.35-3.01 5.19-5.53 10.49-6.89 16.33-1.13 4.85-1.79 9.76-2.27 14.72q-0.7 7.26-0.57 14.53c0.07 4.15 0.78 8.21 2.23 12.11 3.01 8.14 8.65 13.28 17.27 14.96 3.23 0.63 4.73 0.42 2.33 4.85-3 5.55-4.22 11.64-4.14 17.89 0.08 6.12 1.62 11.97 4.21 17.56 4.32 9.32 11.53 15.04 21.36 17.7 6.67 1.8 13.43 1.77 20.22 1.23 0.73-0.06 1.44-0.25 2.16-0.27 1.08-0.03 1.78 0.87 1.52 1.96-0.35 1.41-0.85 2.79-1.18 4.2-2.2 9.67 1.4 16.85 7.92 21.4q2.24 1.55 4.68 2.78c3.8 1.94 7.84 3.25 12.02 4.05 11.58 2.23 21.88-0.45 30.83-8.15 2.97-2.55 5.48-5.49 7.66-8.73 0.47-0.7 0.89-1.45 1.43-2.1 0.51-0.61 1.23-0.74 1.97-0.4q0.5 0.24 0.94 0.57c5.95 4.35 12.67 5.87 19.93 5.34 10.91-0.8 19.48-5.5 24.94-15.2 1.25-2.22 2.31-4.54 3.28-6.89 1.63-3.94 2.58-8.07 3.32-12.26 0.37-2.06 0.27-4.04-0.12-6.12-1.21-6.42-2.34-12.87-3.26-19.35-0.82-5.75-1.37-11.55-1.93-17.34-0.38-3.98-0.68-7.97-0.83-11.97-0.44-12.3 1.05-24.45 3.16-36.53 2.73-15.66 6.65-31.04 11.41-46.21 1.69-5.41 0.4-5.2 7.22-8.1 6.24-2.66 12.55-5.19 18.79-7.86 9.48-4.06 18.74-8.58 27.57-13.94 14.17-8.6 25-20.21 32-35.31 0.25-0.55 0.51-1.1 0.85-1.6 0.36-0.53 0.89-0.81 1.56-0.59 0.66 0.22 1.08 1.02 0.81 1.79q-0.58 1.73-1.35 3.37c-3.01 6.27-6.87 11.99-11.39 17.26q-0.95 1.1-1.88 2.22c-0.51 0.62-0.58 1.33-0.29 2.05 0.27 0.67 0.6 1.32 0.92 1.98 3.32 6.77 7.31 13.13 11.89 19.12 9.02 11.82 20.17 20.8 34.16 26.25 22.01 8.59 44.61 14.78 68.13 17.41 0.47 0.05 1.03 0.11 1.36 0.39 0.31 0.26 0.49 0.8 0.52 1.23 0.01 0.28-0.31 0.77-0.56 0.83-0.81 0.19-1.66 0.31-2.49 0.3-1.55-0.03-3.1-0.43-4.82 0.05-0.26 0.95-0.59 1.85-0.76 2.78-1.03 5.6-1.96 11.22-3.05 16.81-1.13 5.83-2.36 11.65-4.31 17.27-1.22 3.52-3.09 6.59-6.27 8.69-2.8 1.86-4.22 4.49-4.85 7.77-1.96 10.1-5.92 19.45-10.79 28.45q-1.56 2.88-3.27 5.68-17.99 29.42-41.38 54.77c-0.89 0.96-1.75 1.96-2.53 2.85 2.24 5.29 6.64 8.94 11.9 10.04 5.28 1.1 10.61 0.88 15.93 0.44 0.97-0.08 1.93-0.21 2.89-0.21 0.78 0 1.32 0.64 1.36 1.43q0.03 0.55-0.05 1.09c-0.6 3.73 0.94 6.61 3.59 9.05 3.45 3.19 7.52 5.29 12.02 6.55 3.69 1.03 7.43 1.01 11.14 0.12 4.46-1.08 8.32-3.3 11.77-6.27 0.81-0.7 1.48-1.65 3.14-1.53 0.79 0.61 1.82 1.44 2.88 2.22 6.24 4.6 13.11 7.32 20.98 6.9 10.08-0.54 17.89-4.78 22.59-14.02 0.37-0.72 0.94-1.33 1.51-2.11zm-156.38-224.99c-0.81 0.64-1.29 0.98-1.73 1.38q-7.38 6.83-16.15 11.74c-4.76 2.66-9.51 5.38-14.45 7.65-8.81 4.05-17.77 7.78-26.66 11.65q-3.17 1.37-6.34 2.75c-1.06 0.46-1.77 1.22-2.07 2.36-0.15 0.59-0.38 1.15-0.56 1.73-6.55 21.36-11.95 42.96-14.09 65.28-0.79 8.24-0.78 16.47-0.21 24.7 0.28 3.87 0.79 7.72 1.12 11.59 0.77 8.94 1.99 17.82 3.81 26.62 1.76 8.57 4.22 16.93 8 24.86 4.56 9.59 10.8 17.84 19.67 23.85 6.74 4.57 13.87 8.47 21.44 11.49 2.81 1.11 5.71 2.05 8.64 2.78 8.61 2.14 17.07 1.62 25.31-1.78 6.56-2.71 12.61-6.29 17.84-11.08 4.46-4.1 8.83-8.32 12.96-12.75 10.26-11.02 19.48-22.91 28.16-35.2 5.25-7.44 10.28-15.01 14.62-23.02 4.75-8.78 8.66-17.9 10.5-27.78 0.75-4.02 2.65-7.24 6.09-9.52 2.32-1.53 3.84-3.7 4.75-6.28 0.8-2.28 1.55-4.59 2.16-6.93 2.44-9.4 3.97-18.97 5.63-28.53 0.12-0.66-0.05-1.37-0.09-2.1-1.26-0.32-2.3-0.65-3.36-0.82-8.15-1.34-16.17-3.2-24.14-5.3-12.91-3.41-25.58-7.54-37.75-13.09-7.59-3.46-14.29-8.18-20.26-13.97-8.62-8.36-15.39-18.07-20.94-28.67-0.55-1.06-1.11-2.12-1.9-3.61zm-132.27 209.01c-1.58 1.96-2.9 3.69-4.31 5.34-0.88 1.01-1.03 2.05-0.81 3.35q2.4 14.22 7.86 27.55c5.27 12.91 12.39 24.66 22.13 34.75 5.95 6.16 12.65 11.27 20.5 14.81 8.61 3.89 17.68 5.91 27.06 6.5q14.05 0.9 27.82-2.15c7.84-1.74 15.4-4.26 22.54-7.99 1.04-0.54 2.28-0.88 2.93-2.3-1.28-4.69-1.46-9.65-1.26-14.62 0.26-6.32 1.18-12.55 2.59-18.7 1.47-6.37 3.22-12.67 4.83-19.01 0.2-0.77 0.32-1.57 0.53-2.68-1.6 0.16-2.9 0.31-4.2 0.42-1.93 0.16-3.87 0.42-5.8 0.41-6.38-0.06-12.47-1.6-18.39-3.86-6.82-2.6-13.18-6.12-19.43-9.86-8.6-5.14-15.43-12.04-20.63-20.59-2.98-4.88-5.33-10.05-7.26-15.43-0.4-1.1-0.86-2.18-1.52-3.82-0.47 1.51-0.78 2.4-1.04 3.3-1.63 5.75-3.87 11.22-7.33 16.13-4.29 6.08-9.96 10.15-17.13 12.17-9.64 2.73-18.93 2.21-27.76-2.86-0.51-0.29-1.08-0.48-1.92-0.86zm164.4 4.93c-0.94 0.82-1.77 1.48-2.54 2.21-3.84 3.58-3.82 3.58-4.27 8.65q-1.3 14.88-5.02 29.34c-1.76 6.82-4 13.47-7.24 19.75-3 5.81-7.09 10.66-12.4 14.51-4.54 3.29-9.4 5.98-14.57 8.13-10.03 4.19-20.48 6.55-31.31 7.55-9.39 0.86-18.65 0.29-27.82-1.67-12.6-2.68-23.75-8.2-33.17-17.11-8.09-7.65-14.71-16.42-20.01-26.18-6.36-11.69-10.76-24.09-13.37-37.14-0.21-1.03-0.29-2.11-1.07-2.88-0.36 0.09-0.64 0.08-0.81 0.21-3.64 2.87-7.56 5.24-11.89 6.93-0.41 0.16-0.69 0.62-1.05 0.95 0.17 0.69 0.31 1.27 0.47 1.85 3.38 12.07 8 23.64 14.01 34.64 6.73 12.31 14.91 23.54 25.35 33.01 11.07 10.05 23.67 17.27 38.41 20.34 4.49 0.93 9.08 1.52 13.64 2.04 12.18 1.38 24.2 0.49 36.03-2.76 15.04-4.13 27.98-11.96 39.36-22.54 4.59-4.26 8.27-9.16 11.11-14.72 2.81-5.52 4.97-11.3 6.76-17.23 2.63-8.72 4.37-17.63 5.69-26.63 0.59-4.08 0.97-8.18 1.41-12.28 0.11-1.06 0.3-2.18-0.59-3.09-0.85-0.86-1.69-1.73-2.49-2.64-0.86-1-1.66-2.04-2.62-3.24zm-35.54 73.43c0.82-0.47 1.56-0.82 2.23-1.29 5.36-3.8 9.34-8.75 12.21-14.64 2.39-4.92 4.23-10.05 5.7-15.31 2.97-10.64 4.76-21.5 5.77-32.5 0.01-0.16-0.26-0.35-0.52-0.68-0.47 0.28-1 0.52-1.47 0.86-4.34 3.15-8.99 5.75-13.99 7.65-1.94 0.73-2.84 1.92-3.43 3.82-2.83 9.15-5.21 18.41-6.77 27.87-1.07 6.47-1.47 13-0.96 19.56 0.12 1.55 0.2 3.11 1.23 4.66z"/>
			<path id="&lt;Path&gt;" class="s3" d="m1742.31 2998.69c1.36-2.08 2.72-4.16 4.21-6.45 2.85 1.76 4.85 4.03 6.71 6.45q-5.46 0-10.92 0z"/>
			<path id="&lt;Path&gt;" class="s2" d="m1627.4 2378c-18.2-0.26-33.49-2.88-47.95-9.51-7.53-3.45-14.54-7.73-20.7-13.31-0.89-0.81-1.7-1.72-2.44-2.67-0.4-0.5-0.31-1.22 0.28-1.58 0.36-0.23 0.88-0.23 1.33-0.24 0.21-0.01 0.45 0.18 0.63 0.33q0.43 0.34 0.82 0.72c10.32 9.68 22.63 15.7 36.14 19.39 13.46 3.69 27.17 4.48 41.06 3.25 9.55-0.84 18.99-2.23 28.28-4.64 8.48-2.19 16.65-5.19 24.27-9.56 4-2.29 7.78-4.91 11.02-8.25 0.41-0.43 0.86-0.86 1.37-1.17 0.56-0.34 1.23-0.31 1.62 0.27 0.23 0.34 0.41 0.99 0.24 1.29-0.47 0.83-1.03 1.67-1.75 2.28-2.4 2.02-4.78 4.12-7.39 5.86-7.61 5.1-16.02 8.5-24.78 11.07-8.74 2.57-17.64 4.33-26.7 5.18-5.91 0.55-11.82 0.99-15.35 1.29z"/>
			<path id="&lt;Path&gt;" class="s2" d="m1547.25 2157.84c-0.35 18.32-3.4 36.17-9.04 53.59-0.93 2.88-1.94 5.73-2.96 8.59-0.29 0.78-0.65 1.57-1.14 2.24-0.22 0.31-0.84 0.52-1.24 0.47-0.66-0.09-1.05-0.67-0.99-1.32 0.08-0.71 0.3-1.41 0.53-2.09 0.97-2.87 2-5.72 2.94-8.6 3.79-11.68 6.46-23.61 7.81-35.81 2.03-18.37 1.06-36.55-3.94-54.42-1.64-5.85-3.68-11.54-6.4-16.98-0.37-0.75-0.71-1.55-0.87-2.36-0.06-0.35 0.3-0.97 0.63-1.14 0.34-0.19 1.1-0.17 1.31 0.08 0.7 0.81 1.33 1.72 1.82 2.67 2.39 4.65 4.17 9.55 5.66 14.55 3.04 10.14 4.88 20.5 5.37 31.09 0.14 3.15 0.34 6.29 0.51 9.44z"/>
			<path id="&lt;Path&gt;" class="s4" d="m1870.66 2995.34c-0.44-1.31 0.43-2 0.88-2.77q9.15-15.72 18.38-31.39c30.12-51.08 60.21-102.17 90.39-153.2 8.15-13.77 16.54-27.41 24.94-41.03 3.04-4.95 1.98-4.5 8.11-5.58 11.81-2.09 23.62-4.22 35.44-6.29q18.08-3.15 36.18-6.24 17.92-3.08 35.84-6.12 18.1-3.07 36.2-6.14 18.64-3.16 37.28-6.32 20.07-3.41 40.14-6.81 18.46-3.13 36.92-6.25 18.11-3.05 36.21-6.09 18.64-3.15 37.28-6.3 18.46-3.13 36.92-6.25 18.11-3.04 36.22-6.08 12.01-2.02 24.02-4.03c0.56-0.09 1.14-0.09 1.73-0.13 0.17 1.45-0.74 2.21-1.32 3.09q-11.69 17.77-23.42 35.53-58.22 88.2-116.44 176.39c-0.27 0.41-0.56 0.8-0.79 1.23-0.99 1.84-2.49 2.68-4.58 3.1-27.2 5.53-54.38 11.13-81.56 16.73-26.46 5.46-52.92 10.95-79.39 16.4-24.22 4.99-48.44 9.92-72.66 14.9-26.47 5.45-52.92 10.95-79.39 16.4q-34.37 7.06-68.74 14.11-20.11 4.14-40.23 8.29c-1.52 0.31-3.05 0.57-4.56 0.85z"/>
			<path id="&lt;Path&gt;" class="s5" d="m1336.55 2559.42c23.79-10.51 48.02-19.63 72.55-28.32 0.64 1.14 1.16 1.95 1.56 2.8q5.14 11.03 14.12 19.22c16.04 14.63 32.04 29.3 48.13 43.87 8.89 8.06 17.93 15.97 26.9 23.95 0.5 0.44 0.96 0.93 1.14 1.8q-1.38-0.75-2.75-1.52c-11.21-6.36-22.86-11.72-35.32-15.17-3.5-0.97-7.07-1.7-10.62-2.45-1.18-0.24-2.41-0.22-3.62-0.25-0.65-0.01-1.15 0.35-1.3 1.03-0.16 0.71 0.28 1.32 1.16 1.56q0.88 0.25 1.78 0.38c11.15 1.57 21.63 5.33 31.81 9.96 16.77 7.65 32.1 17.6 46.11 29.53 17.45 14.87 34.77 29.87 52.73 44.13 0.47 0.38 0.92 0.8 1.43 1.12 4.19 2.7 7.08 6.54 9.63 10.72 5.14 8.42 9.1 17.4 12.55 26.6 1.53 4.09 2.88 8.24 4.32 12.36 0.32 0.9 0.63 1.84 1.1 2.67 0.19 0.31 0.83 0.53 1.24 0.51 0.69-0.04 1.09-0.63 1.02-1.27q-0.17-1.43-0.61-2.82c-2.61-8.46-5.7-16.75-9.4-24.8-1.72-3.74-3.66-7.39-5.51-11.07-0.32-0.64-0.68-1.27-0.99-1.86 0.52-0.7 0.96-0.27 1.32-0.05 12.35 7.75 24.13 16.28 34.78 26.27 4.77 4.48 9.27 9.25 13.78 13.98 1.52 1.59 3.09 3.07 4.86 4.36 7.74 5.65 15.33 11.49 22.59 17.75 4.42 3.82 8.41 8.02 11.82 12.79q6.88 9.61 13.96 19.08c4.87 6.52 10.04 12.79 15.91 18.44q3.02 2.9 6.26 5.54c4.07 3.33 8.54 6.03 13.58 7.57q11.12 3.41 22.32 6.53c10.63 2.96 21.3 5.74 31.91 8.72 3.5 0.98 6.88 2.35 10.3 3.57 0.63 0.23 1.21 0.62 2.29 1.19-1.34 0.37-2.12 0.61-2.93 0.79-20.12 4.37-40.28 8.63-60.38 13.14-9.57 2.15-19.05 4.74-28.55 7.2-1.8 0.47-3.47 0.6-5.33 0.18-17.39-3.88-34.8-7.63-52.19-11.48-22.84-5.06-45.71-9.92-68.7-14.23-18.22-3.42-36.4-7.07-54.61-10.55-17.38-3.33-34.78-6.52-52.15-9.85-16.56-3.18-32.91-7.22-49.1-11.91-8.14-2.36-16.2-5-24.26-7.64-2.99-0.98-5.9-2.23-8.76-3.54-1.86-0.86-3.65-1.93-5.3-3.14-6.75-4.95-14.37-8-22.31-10.37-1.52-0.46-2.6-0.05-2.7 0.88-0.09 0.78 0.51 1.41 1.87 1.89 2.63 0.93 5.27 1.82 7.89 2.77 1.12 0.41 2.19 0.94 3.2 1.85-0.5-0.03-1.01-0.01-1.5-0.09-4.54-0.82-9-1.94-13.3-3.66q-9.44-3.76-16.45-11.11-3.01-3.16-5.8-6.51c-2.67-3.21-5.7-6-9.32-8.04-5.8-3.28-11.69-6.41-17.56-9.56-3.74-2-7.53-3.93-11.28-5.9-3.04-1.59-5.68-3.7-8.13-6.08-3.92-3.82-7.43-7.99-10.67-12.39q-3.68-4.97-7.14-10.1-5.27-7.85-10.34-15.83c-6.29-9.92-10.87-20.55-13.14-32.12-2.67-13.62-1.99-27.05 2.52-40.18 2.51-7.33 5.48-14.5 8.36-21.71 0.94-2.35 2.17-4.6 3.37-6.84 1.58-2.93 3.77-5.36 6.63-7.1 4.59-2.81 8.53-6.36 12.3-10.18 1.85-1.89 3.93-3.63 6.12-5.12 8.15-5.53 16.83-10.2 25.94-13.84 6.73-2.68 13.86-4.26 21.22-4.62 5.56-0.28 11.1-1.03 16.63-1.73 5.65-0.71 11.26-1.74 16.92-2.4 6.54-0.76 13.07-0.34 19.54 0.9q7.87 1.5 15.47 4.05c0.68 0.23 1.38 0.47 2.08 0.63 0.87 0.19 1.58-0.2 1.73-0.89 0.19-0.86-0.25-1.39-0.95-1.75q-0.65-0.33-1.34-0.56c-7.01-2.41-14.15-4.27-21.53-5.11-1.93-0.23-3.85-0.45-5.79-0.59-4.26-0.3-8.47 0.22-12.68 0.8-8.04 1.13-16.08 2.25-24.13 3.28-2.73 0.35-5.49 0.48-8.31-0.06z"/>
			<path id="&lt;Compound Path&gt;" class="s5" d="m1737.49 2716.62c-1.78-0.65-2.84-1.86-4.02-2.88-9.47-8.15-18.53-16.75-27.39-25.55-9.56-9.48-18.96-19.12-28.48-28.64-3.68-3.68-7.58-7.16-11.27-10.84-3.17-3.16-6.31-6.38-9.25-9.76-11.04-12.74-21.4-26.05-31.77-39.34-8.96-11.46-17.91-22.94-26.79-34.47-11.48-14.91-24.04-28.89-37.15-42.37q-15.59-16.06-32.14-31.13c-0.24-0.23-0.42-0.52-1.02-1.26 1.31 0.45 2.08 0.7 2.85 0.98 9.89 3.56 20.09 5.6 30.6 5.65 6.06 0.04 12.12-0.44 18.17-0.7 1.09-0.05 2.18-0.17 3.27-0.22q18.16-0.86 36.33-1.73c9.44-0.47 18.88-0.98 28.33-1.47q13.8-0.71 27.6-1.41c10.29-0.51 20.58-1.05 30.88-1.51 12.35-0.54 24.7-1.11 37.07-1.46 5.2-0.14 10.41-0.04 15.61-0.49 7.61-0.66 15.22-1.24 22.82-2.01q10.31-1.03 20.58-2.42c16.46-2.24 32.84-4.9 48.87-9.4 10.41-2.93 20.32-7.2 30.22-11.5 0.65-0.28 1.29-0.61 2.07-0.98 0.48 0.44 0.99 0.77 1.32 1.23 2.94 4.02 6.89 6.75 11.23 9.04 10.29 5.44 20.55 10.93 30.82 16.4 0.64 0.35 1.26 0.77 1.93 1.03 1.76 0.7 2.48 2.04 2.89 3.84 2.33 10.15 4.81 20.28 7.14 30.43 2.52 10.99 4.39 22.11 6.14 33.24 0.2 1.3 0.18 2.63 0.28 4.12-1.26 0.71-2.39 1.39-3.56 1.99-6.26 3.19-12.54 6.35-18.8 9.55-0.96 0.49-1.89 1.08-2.72 1.76-0.25 0.21-0.3 0.95-0.13 1.3 0.17 0.35 0.8 0.8 1.1 0.72q1.74-0.49 3.36-1.3c6.07-3.04 12.11-6.13 18.17-9.19 0.85-0.43 1.73-0.79 2.81-1.28 1.1 2.14 1 4.32 1.2 6.43 0.21 2.17 0.46 4.34 0.64 6.51q0.28 3.27 0.49 6.53c0.14 2.17 0.28 4.34 0.07 6.31-0.94 1.11-2.06 1.18-3.11 1.45-7.64 1.93-15.17 4.2-22.52 7.11-15.09 5.97-28.44 14.58-39.8 26.2-5.17 5.29-10.24 10.67-15.38 16-4.65 4.83-9.85 8.97-15.47 12.62-11.49 7.46-23.33 14.37-35.23 21.15-22.55 12.83-45.29 25.33-68.45 37.04q-3.41 1.72-6.88 3.32c-1.19 0.55-2.45 0.95-3.53 1.36zm46.97-44.39c0.59-0.43 1.28-0.67 1.45-1.11 0.62-1.57 1.29-3.17 1.54-4.82q0.91-6.11 1.47-12.26c0.68-7.25 1.69-14.44 3.54-21.49 2.67-10.15 6.93-19.63 12.1-28.73 5.48-9.63 12.06-18.44 19.81-26.38 6.31-6.46 11.68-13.63 15.85-21.64 1.51-2.89 2.72-5.94 3.99-8.95 0.32-0.76 0.47-1.64 0.48-2.46 0-0.36-0.48-0.9-0.85-1.03-0.36-0.13-1.03 0.02-1.26 0.3-0.45 0.54-0.71 1.25-1 1.9-1.07 2.44-2.01 4.94-3.19 7.33-4.17 8.44-9.71 15.91-16.28 22.64-7.57 7.76-14.03 16.37-19.48 25.73-6.01 10.32-10.8 21.14-13.59 32.79-1.69 7.09-2.61 14.3-3.24 21.54-0.4 4.59-0.7 9.19-2.12 13.62-0.17 0.55-0.23 1.2-0.13 1.77 0.06 0.39 0.5 0.72 0.91 1.25zm-161.31-114.49c-0.4 0.31-1 0.54-1.07 0.87-0.11 0.52-0.02 1.29 0.31 1.61 0.48 0.48 1.24 0.7 1.92 0.96 5.6 2.13 10.66 5.18 15.41 8.81 6.98 5.35 13 11.66 18.02 18.86 5.9 8.44 11.69 16.96 17.3 25.6 4.15 6.41 7.93 13.05 11.88 19.58 0.56 0.93 1.07 1.92 1.78 2.73 0.31 0.33 1.13 0.44 1.62 0.31 0.62-0.16 0.9-0.86 0.64-1.48q-0.61-1.52-1.43-2.93c-2.77-4.69-5.52-9.4-8.38-14.05-6.6-10.74-13.55-21.26-20.95-31.47-6.02-8.3-13.03-15.63-21.46-21.53-3.89-2.72-7.97-5.08-12.41-6.8-1-0.39-2.05-0.69-3.18-1.07z"/>
			<path id="&lt;Path&gt;" class="s5" d="m2025.49 2578.78c0.97-0.39 1.51-0.67 2.08-0.83 6.93-2 13.34-5.16 19.49-8.84 3.95-2.37 7.79-4.92 11.65-7.44 0.78-0.51 1.45-1.25 2.08-1.96 0.17-0.19 0.14-0.78-0.03-1-0.28-0.32-0.77-0.7-1.15-0.67-0.56 0.03-1.16 0.32-1.65 0.63-1.43 0.91-2.81 1.91-4.23 2.84-6.18 4.07-12.54 7.85-19.35 10.81-2.1 0.91-4.29 1.66-6.46 2.42-0.53 0.18-1.15 0.09-1.6 0.12-0.99-1.11-0.72-2.25-0.7-3.3 0.1-3.99 0.28-7.99 0.39-11.99 0.1-3.88 0.12-7.76 0.22-11.64q0.42-14.91 0.88-29.82c0.05-1.68 0.11-3.36 0.69-4.88 3.1-0.24 19.88 2 22.97 3.11-1.42 0.41-2.54 0.72-3.65 1.06-4.87 1.46-9.75 2.91-14.61 4.43-0.9 0.28-1.77 0.77-2.54 1.32-0.27 0.19-0.39 0.93-0.25 1.29 0.14 0.35 0.72 0.81 1.06 0.77 0.94-0.1 1.88-0.38 2.79-0.7 6.65-2.31 13.39-4.29 20.32-5.58 5.37-1.01 10.77-1.85 16.24-1.7 3.38 0.1 6.8 0.38 10.1 1.04 9.53 1.89 19.15 3.08 28.81 3.91 4.49 0.38 8.86 1.18 13.15 2.65 9.86 3.38 19.8 6.51 29.67 9.86 5.77 1.96 11.77 2.86 17.66 4.26q6.54 1.56 12.97 3.52c2.19 0.67 4.29 1.67 6.37 2.66 3.35 1.59 6 3.96 8.2 6.99 9.33 12.86 18.76 25.64 28.2 38.43 1.43 1.94 2.94 3.88 4.62 5.61 2.26 2.31 3.74 5.04 4.94 7.98 2.29 5.63 3.88 11.47 5.03 17.44 1.07 5.49 1.66 11.02 1.52 16.62-0.1 4.42-0.97 8.63-2.78 12.69-5.7 12.86-11.3 25.77-17.82 38.24-4.22 8.06-8.72 15.96-14.09 23.33-0.5 0.69-1.03 1.35-1.51 2.06-0.72 1.08-1.72 1.57-3.01 1.78-3.83 0.61-7.64 1.32-11.46 1.97q-19 3.23-38 6.42c-15.06 2.53-30.13 5.02-45.19 7.55q-13.8 2.32-27.59 4.71c-4.72 0.82-4.72 0.86-7.87-2.64-5.12-5.68-9.91-11.61-13.88-18.19-3.58-5.95-7.93-11.32-12.73-16.32q-3.39-3.55-6.8-7.09c-3.96-4.11-6.59-8.95-8.15-14.41-1.37-4.8-2.18-9.7-2.78-14.63-1.86-15.56-2.44-31.18-2.35-46.84 0.08-11.28 0.09-22.56 0.13-33.83 0-1.33 0-2.66 0-4.22z"/>
			<g id="&lt;Group&gt;">
				<g id="&lt;Group&gt;">
					<path id="&lt;Compound Path&gt;" class="s6" d="m1918.24 2389.27c3.2 0.51 5.93 1.02 8.68 1.38 7.37 0.96 14.77 0.8 22.14 0.14 20.76-1.85 40.85-6.77 60.56-13.38 0.9-0.3 1.84-0.52 2.66-0.75 1.5 0.88 1.49 2.36 1.8 3.58q2.37 9.53 4.53 19.1c2.36 10.53 4.21 21.16 5.62 31.85 1.68 12.75 2.78 25.55 2.33 38.43-0.2 5.57-0.59 11.14-0.9 16.71-0.14 2.66-0.34 5.32-0.45 7.98q-0.63 14.72-1.23 29.43-0.08 1.82-0.13 3.64c-0.34 14.54-0.74 29.09-0.99 43.63-0.26 15.64-0.39 31.28-0.53 46.92-0.12 12.49 0.47 24.97 1.54 37.41 0.65 7.48 1.48 14.95 3.36 22.26 1.7 6.6 4.69 12.44 9.46 17.35 2.71 2.78 5.37 5.6 8.03 8.43 4 4.25 7.62 8.81 10.63 13.81 3.83 6.37 8.37 12.19 13.27 17.74q0.96 1.09 1.86 2.23c0.14 0.18 0.16 0.45 0.3 0.9-0.49 0.21-0.98 0.54-1.51 0.63q-17.02 2.92-34.05 5.78c-10.51 1.77-21.03 3.55-31.55 5.25-2.2 0.35-3.69 1.32-4.84 3.29-4.34 7.44-8.82 14.79-13.26 22.16-0.62 1.03-1.3 2.02-2.11 3.28-0.63-0.61-1.21-1.01-1.57-1.55-0.66-1.01-1.13-2.14-1.78-3.16-1.59-2.5-3.92-3.48-6.84-3.21-1.73 0.15-3.35 0.71-4.75 1.68-2.1 1.43-4.08 3.02-6.11 4.55-0.64 0.49-1.27 1.01-2.18 1.74-0.37-1.49-0.63-2.64-0.93-3.77q-1.26-4.75-2.54-9.48-0.15-0.52-0.39-1.02c-0.28-0.61-0.78-0.94-1.44-0.83-0.68 0.11-1.11 0.61-1.04 1.27 0.12 1.07 0.37 2.13 0.61 3.19 0.82 3.66 1.86 7.28 2.45 10.98 1.81 11.21-0.48 21.7-6.12 31.47-1.26 2.18-2.96 4.13-4.59 6.07-0.68 0.81-1.64 1.57-2.61 1.87-2.18 0.66-4.43 1.18-6.83 1.1-0.46-0.76-0.92-1.46-1.32-2.19-2.35-4.24-4.63-8.52-7.05-12.71-0.84-1.45-1.31-2.71-0.64-4.4 0.98-2.51 1.05-5.2 1.07-7.88 0.03-2.99-0.59-5.79-2.14-8.35-2.18-3.6-3.27-7.56-3.62-11.71-0.39-4.84-0.44-9.68 0.51-14.49q0.78-3.99 3.01-7.36c1.54-2.32 3.21-4.56 4.85-6.81 3.49-4.81 7.07-9.55 10.49-14.4 6.4-9.11 9.41-19.26 9.39-30.41-0.02-6.59-0.83-13.06-1.89-19.52-1.7-10.34-2.03-20.73-1.49-31.17q0.16-2.91 0.24-5.82c0.32-12.48 1.22-24.93 2.12-37.39q1.07-14.88-0.31-29.77c-2.35-25.17-7.41-49.84-13.58-74.3-2.26-8.94-3.96-17.99-5.5-27.06q-3.35-19.71-6.41-39.47c-1.9-12.33-3.6-24.69-5.42-37.04-0.37-2.49-0.87-4.97-0.87-7.83zm36.76 40.46c4.17-0.51 8.11-0.99 11.74-2.86 3.53-1.82 7.02-3.78 10.94-4.69 0.23-0.06 0.52-0.14 0.64-0.32 0.27-0.37 0.58-0.79 0.61-1.21 0.05-0.68-0.46-1.21-1.08-1.2-0.94 0-1.96 0.08-2.81 0.43-2.9 1.19-5.81 2.39-8.59 3.83-3.05 1.59-6.26 2.48-9.65 2.81-0.84 0.08-1.69 0.13-2.52 0.29-0.45 0.08-0.9 0.33-1.3 0.58-0.58 0.37-0.49 1.59 0.15 1.85 0.66 0.26 1.36 0.37 1.87 0.49z"/>
				</g>
			</g>
			<path id="&lt;Path&gt;" class="s5" d="m1947.8 2594.33c0 1.69 0.07 2.88-0.01 4.06-0.34 4.84-0.77 9.67-1.07 14.51q-0.58 9.44-0.98 18.89c-0.3 7.39-0.58 14.78-0.73 22.17-0.09 4.61-0.16 9.23 0.17 13.82 0.34 4.83 1.08 9.63 1.79 14.42 0.86 5.77 1.39 11.54 1.38 17.38q-0.02 15.02-8.52 27.35c-2.97 4.28-6.09 8.46-9.16 12.67-1.72 2.35-3.5 4.66-5.21 7.01-3.14 4.32-4.83 9.12-5.3 14.48-0.42 4.64-0.22 9.21 0.34 13.79 0.42 3.52 1.58 6.84 3.4 9.9 2.36 4 2.69 8.23 1.48 12.64-0.05 0.21-0.29 0.36-0.45 0.55-0.75 0.23-1.08-0.36-1.43-0.81-1.43-1.81-2.75-3.71-4.25-5.45-2.46-2.83-4.94-5.67-7.59-8.33-6.73-6.77-14.99-10.01-24.47-10.49-5.32-0.27-10.63-0.78-15.95-1.26-8.12-0.72-16.01-2.63-23.83-4.87-22.99-6.59-45.26-15.18-67.12-24.86-8.54-3.78-16.96-7.79-25.14-12.31-4.58-2.53-8.87-5.47-12.98-8.69-0.56-0.44-1.05-0.96-1.52-1.4 0.18-1.21 1.13-1.31 1.85-1.67 34.69-17.17 68.45-36.01 101.67-55.84 12.08-7.22 22.97-15.75 32.27-26.33 3.28-3.73 6.83-7.24 10.39-10.7 10.84-10.55 23.48-18.3 37.58-23.7q10.37-3.99 21.17-6.57c0.56-0.13 1.15-0.19 2.22-0.36z"/>
			<path id="&lt;Path&gt;" class="s4" d="m1892.84 2870.28c0.47 0.67 0.9 1.38 1.4 2.02 2.88 3.74 5.73 7.52 8.71 11.18 1.14 1.4 2.53 2.62 3.94 3.75 2.33 1.88 4.97 3 8.05 2.78 0.34-0.03 0.68 0.08 1.01 0.13 0 0.33 0.09 0.61-0.02 0.78q-28.34 47.24-56.72 94.47c-0.3 0.5-0.73 0.93-1.15 1.45-1.59-0.18-2.67-1.22-3.85-1.99q-17.17-11.3-34.31-22.63-60.71-40.06-121.42-80.12c-0.81-0.53-1.64-1.05-2.4-1.64-1.03-0.79-1.22-1.81-0.41-2.84 0.5-0.64 1.19-1.24 1.93-1.55q3.18-1.35 6.47-2.4c9.82-3.12 19.83-5.55 29.85-7.93 22.99-5.46 46.11-10.29 69.24-15.1 2.65-0.55 4.81-0.16 6.69 1.65 1.22 1.17 2.5 2.36 3.36 3.78 2.01 3.3 3.83 6.74 5.65 10.15 1.54 2.89 2.87 5.89 4.5 8.72 1.94 3.37 4.84 5.62 8.6 6.87 4.17 1.4 9-0.21 11.22-4.9 1.76-3.74 2.14-7.67 1.49-11.72-1.61-9.87-5.37-18.84-11.14-26.98q-0.82-1.18-1.6-2.4c-0.05-0.06 0.04-0.21 0.06-0.31 0.22-0.03 0.48-0.14 0.65-0.06 4.19 2.18 8.39 4.33 12.53 6.6 2.27 1.25 4.02 3.08 5.39 5.3 4.07 6.6 8.24 13.14 12.25 19.78 1.44 2.38 2.57 4.94 3.75 7.47 1.17 2.54 1.9 5.2 2.29 8 0.36 2.63 1.11 5.21 1.75 7.79 0.21 0.81 0.58 1.59 0.96 2.35 1.89 3.88 4.74 6.47 9.3 6.38 4.72-0.08 8.45-1.98 10.61-6.36 0.98-1.97 1.63-4.08 1.6-6.29-0.04-3.75-0.21-7.51-0.39-11.25-0.07-1.57-0.3-3.12-0.46-4.68q0.31-0.13 0.62-0.25z"/>
			<g id="&lt;Group&gt;">
				<path id="&lt;Path&gt;" class="s7" d="m1454.84 2899.03c0.72-0.79 1.52-1.53 2.16-2.39 0.64-0.86 1.24-1.78 1.62-2.77 0.15-0.4-0.18-1.28-0.56-1.51-0.37-0.22-1.35-0.11-1.6 0.21-4.79 6.17-11.53 7.53-18.76 7.72-0.42 0.01-0.85-0.11-1.97-0.27 1.17-0.71 1.75-1.06 2.33-1.42 1.23-0.77 2.48-1.52 3.68-2.33 0.5-0.33 1.04-0.74 1.29-1.24 0.23-0.47 0.33-1.28 0.08-1.64-0.25-0.36-1.1-0.55-1.57-0.41-0.66 0.19-1.22 0.74-1.82 1.16-2.82 1.95-5.86 3.43-9.21 4.17-1.53 0.33-3.12 0.48-4.68 0.5-4.8 0.07-9.04-4.08-8.91-9.11 0.05-1.91-0.08-3.88 1.37-5.65 0.46 0.2 0.93 0.32 1.29 0.58 5.1 3.53 10.74 4.16 16.7 3.21 4.45-0.72 8.71-2.07 12.91-3.69 7.14-2.76 13.95-6.21 20.59-9.99 3.36-1.92 6.57-4.16 10.47-4.96 0.63-0.13 0.98-0.67 0.95-1.37-0.04-0.71-0.69-1.34-1.52-1.19-1.42 0.24-2.9 0.46-4.19 1.05-2.09 0.94-4.08 2.13-6.07 3.28-7.15 4.14-14.48 7.91-22.24 10.75-3.18 1.16-6.45 2.15-9.75 2.9-4.06 0.91-8.18 0.93-12.21-0.39-1.87-0.61-3.57-1.53-4.92-2.99-2.04-2.19-2.7-4.82-2.42-7.73 0.61-6.4 5.87-12.53 12.08-14.05 0.92-0.23 1.9-0.25 2.95-0.38 0.71 0.93 1.36 1.78 2.02 2.63 4.13 5.3 9.59 8.02 16.26 8.41 4.42 0.27 8.69-0.35 12.78-2.13 5.62-2.45 9.14-6.63 10.68-12.53 0.15-0.59 0.35-1.17 0.42-1.77 0.45-3.59 1.79-6.74 4.25-9.45 1.6-1.78 2.19-4.03 2.09-6.42-0.03-0.71-0.21-1.44-0.46-2.11-0.23-0.63-0.84-0.96-1.46-0.75-0.38 0.13-0.66 0.61-0.91 0.99-0.12 0.17-0.11 0.47-0.07 0.71 0.38 2.74-0.66 4.95-2.44 6.95-1.81 2.04-2.9 4.46-3.41 7.14-0.14 0.71-0.37 1.41-0.48 2.12-1.23 7.65-5.97 11.95-13.23 13.72-3.31 0.8-6.66 1.02-10.1 0.33-5.14-1.02-9.28-3.51-12.16-7.88-6-9.14-5.27-19.32 0.29-28.1q1.12-1.75 3.05-2.48c1.13-0.43 2.26-0.87 3.42-1.22 1.68-0.51 3.04-1.28 3.92-2.96 0.86-1.64 2.47-2.61 4.3-3.62 1.84 0.42 3.84 0.85 5.83 1.33 12.02 2.91 24.22 4.93 36.36 7.26 18.33 3.51 36.66 7 54.99 10.52 18.44 3.55 36.9 7.06 55.32 10.73 11.52 2.29 23 4.84 34.5 7.29 0.22 0.05 0.41 0.22 0.65 0.36 0.18 0.89-0.63 0.91-1.1 1.09q-13.21 5.13-26.46 10.2c-9.56 3.66-19.42 6.11-29.64 6.92-6.88 0.54-13.79 0.84-20.69 1.17-1.92 0.09-3.87-0.24-5.81-0.21-12 0.16-23.99 0.59-35.89 2.39-6.23 0.94-12.46 1.85-18.68 2.87-7.97 1.32-15.43 4.14-22.51 7.99q-2.4 1.3-4.82 2.55c-1.31 0.67-2.67 1.11-4.11 0.58-0.2-1.05 0.62-1.33 1.11-1.82 1.02-1.03 2.1-2.01 3.07-3.08 0.52-0.56 0.37-1.58-0.18-1.95-0.56-0.37-1.17-0.37-1.69 0.05-0.66 0.53-1.26 1.14-1.92 1.66-3.34 2.63-6.62 5.33-10.06 7.8-1.54 1.11-3.41 1.77-5.14 2.63z"/>
			</g>
			<path id="&lt;Path&gt;" class="s8" d="m2444.1 2684.9c-1.13 0.28-1.93 0.53-2.74 0.67q-23.12 3.93-46.25 7.82c-13.62 2.28-27.25 4.53-40.87 6.82-12.19 2.05-24.38 4.16-36.56 6.21-12.31 2.08-24.63 4.11-36.94 6.18q-20.25 3.43-40.5 6.88-18.28 3.09-36.57 6.17-18.1 3.07-36.2 6.15-18.28 3.1-36.56 6.21-18.1 3.09-36.19 6.19c-11.95 2.04-23.9 4.06-35.83 6.16-16.24 2.84-32.45 5.8-48.7 8.56-2.79 0.47-4.59 1.76-6 4.1-3.52 5.81-7.25 11.49-10.72 17.32-21.16 35.53-42.34 71.03-63.37 106.64-20.6 34.87-41.02 69.84-61.53 104.77-0.6 1.02-1.28 2-2.02 3.13-2.2-1.35-3.64-3.13-5.18-4.8-0.55-0.59-0.57-1.33-0.2-2.03q0.77-1.45 1.61-2.85 43.38-72.18 86.77-144.36 25.29-42.09 50.59-84.18c2.59-4.3 1.41-3.51 6.4-4.38 17.08-2.97 34.17-5.81 51.26-8.68 15.06-2.53 30.13-5.02 45.18-7.55 15.06-2.54 30.11-5.12 45.17-7.66 12.19-2.06 24.38-4.08 36.57-6.13q18.28-3.08 36.56-6.18 18.11-3.06 36.21-6.11 18.29-3.07 36.57-6.14 20.98-3.52 41.95-7.06 17.93-3.02 35.85-6.05 18.28-3.1 36.56-6.19c9.44-1.6 18.9-3.11 28.32-4.81 2.06-0.38 3.52-0.01 4.73 1.64 0.78 1.05 1.97 1.79 2.63 3.54z"/>
			<path id="&lt;Path&gt;" class="s8" d="m1856.12 2990.07c-0.9 1.91-1.95 3.62-3.4 5.18-1.56-0.31-2.65-1.31-3.84-2.09q-27.37-17.93-54.72-35.88-49.56-32.48-99.1-64.98c-1.1-0.72-2.31-1.32-3.21-2.42 0.28-2.35 1.16-4.43 2.06-6.61 1.61 0.13 2.59 1.1 3.67 1.81q14.58 9.58 29.14 19.2 63.11 41.63 126.22 83.28c1.09 0.72 2.31 1.31 3.18 2.51z"/>
			<path id="&lt;Path&gt;" class="s5" d="m1950.07 2817.07c0.53-0.9 0.78-1.42 1.11-1.89 6.28-8.76 9.15-18.64 9.34-29.31 0.04-2.28 0.61-3.96 2.33-5.38 1.96-1.61 3.8-3.37 5.82-4.91 1.04-0.79 2.3-1.35 3.54-1.81 2.48-0.92 4.18-0.29 5.59 1.92 0.64 1.03 1.16 2.13 1.79 3.16 0.57 0.92 1.23 1.79 1.91 2.78-0.53 0.97-1.01 1.94-1.56 2.87q-8.32 13.87-16.65 27.74c-0.38 0.62-0.69 1.3-1.18 1.83-0.47 0.5-1.06 1.07-1.7 1.22-3.25 0.8-6.54 1.38-10.34 1.78z"/>
			<path id="&lt;Path&gt;" class="s9" d="m1935.19 2858.17c-0.11 0.5-0.1 0.89-0.27 1.18q-4.93 8.26-9.91 16.5c-0.17 0.28-0.51 0.47-0.74 0.67-0.96-0.16-1.14-0.93-1.35-1.59-1.24-3.79-2.45-7.6-3.67-11.4-1.49-4.61-2.85-9.26-4.51-13.81-1.33-3.62-2.94-7.15-4.57-10.66-1.32-2.85-2.46-5.72-3.09-9.15 0.69 0.25 1.16 0.31 1.5 0.55 2.76 1.96 5.53 3.91 8.24 5.95 1.88 1.4 3.18 3.26 4.02 5.48 0.68 1.81 1.51 3.57 2.36 5.31 2.26 4.62 5.59 8.16 10.44 10.14 0.53 0.22 1.02 0.54 1.55 0.83z"/>
			<path id="&lt;Path&gt;" class="s10" d="m1948.44 2836.95c-5.45-3.56-7.98-8.54-10.21-14.01 0.63-0.33 1.1-0.74 1.63-0.84q8.02-1.5 16.05-2.9c0.8-0.14 1.64-0.02 2.54-0.02-0.06 0.52 0 0.93-0.16 1.21-3.19 5.4-6.41 10.79-9.85 16.56z"/>
			<path id="&lt;Path&gt;" class="s3" d="m1342.8 2898.99q-0.14 0.09-0.28 0.19 0.16-0.08 0.31-0.15c0.01 0-0.03-0.04-0.03-0.04z"/>
			<path id="&lt;Compound Path&gt;" class="s11" d="m1949.96 2055.37c-0.57 0.78-1.14 1.39-1.51 2.11-4.7 9.24-12.51 13.48-22.59 14.02-7.87 0.42-14.74-2.3-20.98-6.9-1.06-0.78-2.09-1.61-2.88-2.22-1.66-0.12-2.33 0.83-3.14 1.53-3.45 2.97-7.31 5.19-11.77 6.27-3.71 0.89-7.45 0.91-11.14-0.12-4.5-1.26-8.57-3.36-12.02-6.55-2.65-2.44-4.19-5.32-3.59-9.05q0.08-0.54 0.05-1.09c-0.04-0.79-0.58-1.43-1.36-1.43-0.96 0-1.92 0.13-2.89 0.21-5.32 0.44-10.65 0.66-15.93-0.44-5.26-1.1-9.66-4.75-11.9-10.04 0.78-0.89 1.64-1.89 2.53-2.85q23.39-25.35 41.38-54.77 1.71-2.8 3.27-5.68c4.87-9 8.83-18.35 10.79-28.45 0.63-3.28 2.05-5.91 4.85-7.77 3.18-2.1 5.05-5.16 6.27-8.69 1.95-5.62 3.18-11.44 4.31-17.27 1.09-5.59 2.02-11.21 3.05-16.81 0.17-0.93 0.5-1.83 0.76-2.78 1.72-0.48 3.27-0.08 4.82-0.05 0.83 0.01 1.68-0.11 2.49-0.3 0.25-0.06 0.57-0.55 0.56-0.83-0.03-0.43-0.21-0.97-0.52-1.23-0.33-0.28-0.89-0.34-1.36-0.39-23.52-2.63-46.12-8.82-68.13-17.41-13.99-5.45-25.14-14.43-34.16-26.25-4.58-5.99-8.57-12.35-11.89-19.12-0.32-0.66-0.65-1.31-0.92-1.98-0.29-0.72-0.22-1.43 0.29-2.05q0.93-1.12 1.88-2.22c4.52-5.27 8.38-10.99 11.39-17.26q0.77-1.64 1.35-3.37c0.27-0.77-0.15-1.57-0.81-1.78-0.68-0.23-1.2 0.05-1.56 0.58-0.34 0.5-0.6 1.05-0.85 1.6-7 15.1-17.83 26.71-32 35.31-8.83 5.36-18.09 9.88-27.57 13.94-6.24 2.67-12.55 5.2-18.79 7.86-6.82 2.9-5.53 2.69-7.22 8.1-4.76 15.17-8.68 30.55-11.41 46.21-2.11 12.08-3.6 24.23-3.16 36.53 0.14 4 0.45 7.99 0.83 11.97 0.56 5.79 1.11 11.59 1.93 17.35 0.92 6.47 2.05 12.92 3.26 19.35 0.39 2.07 0.49 4.05 0.12 6.11-0.74 4.19-1.69 8.32-3.32 12.26-0.97 2.35-2.03 4.67-3.28 6.89-5.46 9.71-14.03 14.4-24.94 15.2-7.26 0.53-13.98-0.99-19.94-5.34q-0.43-0.33-0.93-0.56c-0.74-0.35-1.46-0.22-1.97 0.39-0.54 0.65-0.96 1.4-1.43 2.1-2.18 3.24-4.69 6.18-7.66 8.73-8.95 7.7-19.25 10.38-30.83 8.15-4.18-0.8-8.22-2.11-12.02-4.05q-2.44-1.23-4.68-2.78c-6.52-4.55-10.12-11.72-7.92-21.4 0.33-1.41 0.83-2.79 1.18-4.2 0.26-1.09-0.44-1.98-1.52-1.96-0.72 0.02-1.43 0.21-2.16 0.27-6.79 0.54-13.55 0.58-20.22-1.23-9.83-2.66-17.04-8.38-21.36-17.7-2.59-5.59-4.13-11.44-4.21-17.56-0.08-6.24 1.14-12.34 4.14-17.89 2.4-4.43 0.9-4.22-2.33-4.85-8.62-1.68-14.26-6.82-17.27-14.96-1.45-3.9-2.16-7.96-2.23-12.11q-0.13-7.27 0.57-14.53c0.48-4.96 1.14-9.87 2.27-14.72 1.36-5.84 3.88-11.14 6.89-16.33 4.22-7.29 9.95-13.09 16.36-18.35q2.12-1.72 4.24-3.44c0.56-0.46 1.13-0.92 1.63-1.44 0.66-0.7 0.59-1.61-0.16-2.23-0.57-0.46-1.19-0.83-1.79-1.24-8.68-5.99-13.22-14.42-14-24.76-1.15-15.1 3.17-28.77 11.63-41.2 4.33-6.37 9.65-11.81 16.05-16.17 3.2-2.19 6.38-4.42 9.56-6.64q1.05-0.73 2.05-1.51c0.75-0.58 1-1.37 0.68-2.27-0.33-0.91-0.74-1.79-1.1-2.68-3.24-8.09-5.17-16.42-4.66-25.19 0.55-9.49 4.1-17.64 11.16-24.11 9.24-8.46 20.15-11.72 32.53-10.33q8.57 0.96 16.43 4.47 0.66 0.31 1.34 0.55c1.46 0.48 2.49-0.36 2.18-1.8-0.16-0.71-0.43-1.39-0.61-2.09-3.4-12.65-0.9-23.82 8.6-33.05 7.77-7.54 17.15-12.24 27.74-14.32 12.82-2.52 24.56 0.14 34.99 8.15 0.83 0.64 1.62 1.67 2.85 0.97 0.99-0.56 0.89-1.66 0.9-2.61 0.01-3.78 0.54-7.49 1.51-11.14q4.47-16.77 19.15-25.99c6.46-4.06 13.57-6.41 20.99-7.9 7.05-1.42 14.17-1.94 21.35-1.5 7.34 0.45 14.37 2.18 20.86 5.75 6.88 3.77 12.28 9.02 15.88 16.04q0.23 0.49 0.48 0.98c1.03 1.82 1.75 1.98 3.43 0.71 0.68-0.51 1.3-1.09 1.97-1.62 9.12-7.24 19.08-12.9 30.5-15.64 10.31-2.47 20.51-2.2 30.21 2.46 14.71 7.08 24.08 18.51 27.06 34.74 2.13 11.55 0.86 22.94-2.57 34.12-0.4 1.27-0.86 2.52-1.2 3.81q-0.54 2.07 1.5 2.32 3.07 0.35 6.15 0.61 11.1 0.99 21.65 4.56c5.19 1.76 10.12 4.07 14.59 7.3 5.68 4.1 9.7 9.36 11.74 16.16 3.07 10.24 4.2 20.62 2.94 31.27-0.57 4.83-1.45 9.58-2.91 14.22q-0.22 0.69-0.38 1.4c-0.31 1.43 0.08 2.08 1.44 2.39 0.83 0.18 1.67 0.3 2.51 0.44 14.14 2.3 24.47 9.97 31.42 22.35 3.36 5.98 5.39 12.45 6.66 19.16 2.1 11.2 1.4 22.21-2.56 32.94-0.84 2.27-1.94 4.44-2.95 6.64-0.36 0.77-0.84 1.48-1.18 2.25-0.53 1.21-0.05 2.09 1.29 2.44 0.47 0.12 0.95 0.17 1.43 0.25 11.6 1.85 18.97 8.57 22.47 19.64 1.73 5.49 2.2 11.19 1.99 16.9-0.19 5.33-0.66 10.65-1.27 15.94q-0.99 8.71-4.26 16.88c-1.6 3.99-3.76 7.6-6.92 10.56q-4.12 3.85-8.29 7.64c-2.29 2.1-2.31 2.65 0.16 4.33 7.14 4.87 10.48 11.91 11.3 20.25 0.53 5.34 0.1 10.65-1.13 15.9-1.43 6.16-3.3 12.16-6.15 17.83-1.59 3.15-3.51 6.09-6.04 8.59-2.79 2.74-6 4.48-10 4.52-0.36 0-0.73 0.02-1.08 0.12-0.67 0.18-1.04 0.72-0.92 1.36 0.16 0.82 0.48 1.62 0.79 2.4 2.2 5.7 1.44 11.12-2.33 15.78-5.8 7.15-13.43 11.43-22.6 12.65-5.27 0.71-10.11-0.52-14.24-4.09-0.52-0.45-1.21-0.7-2-1.15zm-264.46-204.49c-0.95-0.62-1.55-1.02-2.16-1.4-2.68-1.69-5.49-1.88-8.31-0.51-1.51 0.74-3.02 1.61-4.28 2.71-6.74 5.84-11.27 13.02-12.05 22.05-0.59 6.74-1.22 13.5-1.12 20.29 0.07 4.36 1.06 8.36 3.29 12.1 2.94 4.9 6.19 9.55 10.01 13.8 3.26 3.63 6.68 7.04 11.68 7.76 0.21 0.43 0.32 0.64 0.41 0.87 0.23 0.59 0.6 1.19 1.27 1.04 0.51-0.12 1.13-0.53 1.34-0.98 0.41-0.86 0.62-1.83 0.81-2.77 0.99-4.89 0.99-9.88 1.07-14.83 0.09-5.92-0.1-11.86-0.35-17.78-0.33-8.23-0.74-16.45-1.3-24.66-0.4-5.93 0.45-11.58 2.93-16.98q0.46-0.99 0.93-1.97c0.25-0.55 0.52-1.1 0.73-1.66 0.39-1.08 0.14-1.88-0.63-2.16-0.77-0.27-1.43 0.06-2.01 1.09-0.42 0.73-0.74 1.52-1.14 2.27-0.29 0.51-0.64 0.99-1.12 1.72zm212.6 0.33c-0.8 2.61-1.66 4.76-2.11 6.99-1.19 6 0.62 11.04 5.41 14.86 3 2.39 6.38 2.9 9.9 1.25 3.34-1.55 5.6-4.15 6.84-7.63q0.12-0.35 0.18-0.71c0.13-0.74-0.32-1.57-0.98-1.74-0.67-0.18-1.19 0.14-1.51 0.7-0.36 0.62-0.61 1.31-0.94 1.96q-1.19 2.3-3.28 3.83c-2.79 2.05-6.06 2-8.69-0.21-2.62-2.21-4.16-4.99-4.24-8.51-0.06-2.59 0.38-5.07 1.53-7.4 0.63-1.3 1.36-2.56 2.05-3.84 1.21-2.2 0.71-2.96-1.93-2.91-1.09 0.02-2.18 0.11-3.27 0.04-5.11-0.31-8.33-2.98-9.45-7.98-0.31-1.4-0.46-2.9-0.32-4.32 0.35-3.75 2.04-6.67 5.71-8.15 0.33-0.14 0.77-0.17 0.99-0.4 0.3-0.33 0.6-0.81 0.6-1.22-0.01-0.65-0.5-1.05-1.18-1.17-1.28-0.21-2.39 0.24-3.43 0.91-2.66 1.72-4.35 4.16-5.21 7.19-0.86 3.01-0.65 6.02 0.22 8.97q2.16 7.3 9.66 8.78c1.05 0.21 2.1 0.43 3.45 0.71zm-257.42 131.34c1.37 0.5 2.26 0.86 3.16 1.16 5.21 1.76 9.76 0.65 13.68-3.17 1.49-1.46 2.58-3.19 3.43-5.08 1.97-4.38 2.77-9 2.83-13.76q0.01-0.73-0.16-1.44c-0.14-0.63-0.58-1.19-1.23-1.07-0.49 0.1-1.19 0.56-1.29 0.98-0.28 1.16-0.36 2.38-0.41 3.58q-0.17 4.39-1.61 8.53c-0.76 2.19-1.79 4.24-3.43 5.93-3.14 3.25-7.35 4.72-12.19 2.11-1.06-0.57-2.02-1.32-2.99-2.04-0.58-0.43-1.08-0.97-1.63-1.44-0.58-0.5-1.25-0.85-1.96-0.32-0.67 0.51-0.63 1.25-0.43 1.98 0.23 0.82 0.57 1.61 0.72 2.44 0.64 3.61 0.39 7-2.46 9.75-3.22 3.11-7.64 3.88-11.73 1.95-1.99-0.94-3.7-2.28-5.26-3.83-0.68-0.68-1.36-1.38-2.15-1.92-0.29-0.21-0.97-0.13-1.33 0.07-0.55 0.33-0.71 0.95-0.43 1.59 0.15 0.33 0.32 0.66 0.55 0.93 2.46 2.92 5.39 5.16 9.01 6.51 7.48 2.79 16.19-2.77 17.06-10.49 0.09-0.83 0.14-1.66 0.25-2.95zm196.3-268.98q0.1-0.01 0.2-0.02c-0.31-2.27-0.54-4.56-0.93-6.82-2.71-15.59-15.76-29.25-31.11-32.56q-0.89-0.19-1.8-0.14c-0.66 0.03-1.2 0.45-1.22 1.1-0.02 0.4 0.29 1 0.63 1.18 0.85 0.44 1.78 0.72 2.7 1q5.42 1.66 10.24 4.61c7.36 4.5 12.8 10.65 15.85 18.79 1.41 3.76 2.25 7.65 2.42 11.68q0.09 1.99 0.34 3.98c0.11 0.83 0.83 1.44 1.45 1.31 0.85-0.16 1.18-0.79 1.22-1.57 0.05-0.84 0.01-1.69 0.01-2.54zm6.29 21.45c-0.17-3.14-0.3-6.29-0.52-9.43-0.11-1.68-0.7-2.46-1.61-2.47-0.98 0-1.54 1.02-1.32 2.9 0.7 5.93 0.52 11.84-0.14 17.76-1.15 10.28-4.04 19.91-10.2 28.38q-0.54 0.73-0.96 1.54c-0.3 0.58-0.27 1.17 0.25 1.64 0.53 0.48 1.42 0.46 1.96-0.14q0.98-1.08 1.81-2.27c3.3-4.71 5.66-9.86 7.36-15.33 2.29-7.36 3.12-14.92 3.37-22.58z"/>
			<g id="&lt;Group&gt;">
				<g id="&lt;Group&gt;">
					<path id="&lt;Compound Path&gt;" class="s12" d="m1793.58 1830.38c0.79 1.49 1.35 2.55 1.9 3.61 5.55 10.6 12.32 20.31 20.94 28.67 5.98 5.79 12.67 10.51 20.26 13.97 12.17 5.55 24.84 9.68 37.75 13.09 7.97 2.1 15.99 3.96 24.14 5.3 1.06 0.17 2.1 0.5 3.36 0.82 0.04 0.73 0.21 1.44 0.09 2.1-1.66 9.56-3.19 19.13-5.63 28.53-0.61 2.34-1.36 4.65-2.16 6.93-0.91 2.58-2.43 4.75-4.75 6.28-3.44 2.28-5.34 5.5-6.09 9.52-1.84 9.88-5.75 19-10.5 27.78-4.34 8.01-9.37 15.58-14.62 23.02-8.68 12.29-17.9 24.18-28.16 35.2-4.13 4.43-8.5 8.65-12.96 12.75-5.23 4.79-11.27 8.37-17.84 11.07-8.24 3.41-16.7 3.93-25.31 1.79-2.93-0.73-5.83-1.67-8.64-2.78-7.57-3.02-14.7-6.92-21.44-11.49-8.87-6.02-15.11-14.26-19.67-23.85-3.78-7.93-6.24-16.29-8-24.86-1.82-8.8-3.04-17.68-3.81-26.62-0.33-3.87-0.84-7.72-1.12-11.59-0.57-8.23-0.58-16.46 0.21-24.7 2.14-22.32 7.54-43.92 14.09-65.28 0.18-0.58 0.41-1.14 0.56-1.73 0.3-1.14 1.01-1.9 2.07-2.36q3.17-1.38 6.34-2.75c8.89-3.87 17.85-7.6 26.66-11.65 4.94-2.27 9.7-4.99 14.45-7.65q8.77-4.91 16.15-11.74c0.44-0.4 0.92-0.74 1.73-1.38zm16.1 189.21c-0.57-0.63-1.06-1.17-1.54-1.71-1.53-1.68-3.47-2.72-5.65-3.08-6.55-1.08-12.2 0.88-17.04 5.34-0.74 0.68-1.19 1.5-1.24 2.54-0.31 7.89 2.35 14.26 9.41 18.34 2.86 1.65 6.02 2.46 9.23 3.19 4.6 1.05 8.9 0.26 13.08-1.64 2.56-1.17 4.9-2.68 6.94-4.6 1.05-0.99 1.99-2.13 2.85-3.29 0.81-1.09 1.12-2.4 0.97-3.78-0.67-5.96-7.07-11.43-11.65-11.31-1.69 0.04-3.38 0-5.36 0zm-37.97-119.52c-0.35 0.21-1.07 0.43-1.46 0.91-0.46 0.59 0.17 1.51 1.19 1.85q1.21 0.39 2.46 0.63c1.55 0.31 3.11 0.55 4.65 0.86 5.71 1.15 11.32 2.67 16.66 5.03 4.95 2.19 9.41 5.02 12.78 9.35 0.3 0.38 0.62 0.8 1.02 1.01 0.38 0.19 0.94 0.27 1.33 0.13 0.64-0.23 0.9-0.91 0.64-1.49-0.39-0.87-0.9-1.72-1.5-2.46-2.49-3.05-5.6-5.35-9.03-7.22-8.86-4.85-18.57-6.89-28.74-8.6zm111.46 21.21q1.09 0.09 2.17 0.17c1.58 0.09 3.14 0.21 4.72 0.25 0.9 0.01 1.51-0.53 1.53-1.22 0.02-0.89-0.58-1.3-1.3-1.52q-0.87-0.25-1.78-0.32c-9.56-0.71-18.85 0.53-27.84 3.85-0.78 0.29-1.55 0.71-2.2 1.22-0.3 0.23-0.54 0.98-0.38 1.23 0.26 0.44 0.89 0.97 1.32 0.93 0.94-0.09 1.86-0.48 2.77-0.8 6.78-2.45 13.8-3.58 20.99-3.79zm-57.67 85.59c1.89-0.33 3.84-0.52 5.68-1.05 1.55-0.44 2.71-1.59 3.34-3.13 0.26-0.63 0.06-1.27-0.52-1.56-0.37-0.19-0.93-0.12-1.36 0-0.31 0.08-0.6 0.4-0.84 0.66-1.33 1.47-3.03 1.81-4.92 1.89-3.35 0.15-6.54-0.39-9.51-1.94-3.11-1.63-6.16-3.38-9.24-5.07-0.85-0.47-1.66-1.03-2.55-1.37-0.34-0.13-0.96 0.09-1.29 0.35-0.53 0.44-0.48 1.13-0.1 1.64 0.36 0.47 0.85 0.87 1.35 1.2 3.65 2.41 7.43 4.57 11.44 6.34 2.7 1.2 5.53 1.75 8.52 2.04zm47.4-63.35c-0.09-0.45-0.16-1.44-0.52-2.3-1.05-2.56-3.89-3.45-6.28-2.05-2.95 1.73-4.15 6.27-2.43 9.2 1.27 2.18 3.69 2.9 5.88 1.66 2.31-1.31 3.23-3.44 3.35-6.51zm-80.86-7.75c-0.07-0.39-0.09-1.26-0.35-2.05-0.98-2.98-4.17-4-6.76-2.22-2.51 1.73-3.61 5.66-2.35 8.45 1.24 2.78 4.14 3.63 6.61 1.89 1.92-1.35 2.78-3.29 2.85-6.07zm52.36 6.87c-0.39 0.41-1.02 0.76-1.1 1.21-0.46 2.47-0.09 4.86 1.46 6.89 0.55 0.73 1.43 1.28 2.25 1.74 0.68 0.38 1.43 0.22 1.91-0.5 0.4-0.6 0.22-1.26-0.3-1.61-2.03-1.36-2.55-3.42-2.79-5.65-0.05-0.47-0.16-0.97-0.39-1.37-0.15-0.27-0.55-0.4-1.04-0.71zm-39.78-1.39c-0.34-0.33-0.61-0.81-0.99-0.91-0.39-0.1-0.92 0.08-1.29 0.29-0.28 0.16-0.45 0.55-0.59 0.87-0.81 1.98-1.49 4.03-3.41 5.33-0.25 0.17-0.32 0.93-0.16 1.29 0.15 0.35 0.66 0.74 1.05 0.77 0.55 0.05 1.28-0.04 1.68-0.37 2.25-1.84 3.13-4.41 3.71-7.27z"/>
				</g>
			</g>
			<g id="&lt;Group&gt;">
				<path id="&lt;Path&gt;" class="s13" d="m1661.31 2039.39c0.84 0.38 1.41 0.57 1.92 0.86 8.83 5.07 18.12 5.59 27.76 2.86 7.17-2.02 12.84-6.09 17.13-12.17 3.46-4.92 5.7-10.38 7.33-16.13 0.26-0.9 0.57-1.8 1.04-3.3 0.66 1.64 1.12 2.72 1.52 3.82 1.93 5.38 4.28 10.55 7.26 15.43 5.2 8.55 12.03 15.45 20.64 20.59 6.24 3.74 12.6 7.26 19.42 9.86 5.92 2.26 12.01 3.8 18.39 3.86 1.93 0.01 3.87-0.25 5.8-0.41 1.3-0.11 2.6-0.26 4.2-0.42-0.21 1.11-0.33 1.91-0.53 2.68-1.61 6.34-3.36 12.64-4.83 19.01-1.41 6.15-2.33 12.38-2.59 18.7-0.2 4.97-0.02 9.93 1.26 14.62-0.65 1.42-1.89 1.76-2.93 2.3-7.14 3.73-14.7 6.25-22.54 7.99q-13.77 3.05-27.82 2.15c-9.38-0.59-18.45-2.61-27.06-6.5-7.85-3.54-14.55-8.65-20.5-14.81-9.74-10.09-16.86-21.84-22.13-34.75q-5.46-13.33-7.86-27.55c-0.22-1.31-0.07-2.34 0.81-3.35 1.41-1.65 2.73-3.38 4.31-5.34z"/>
			</g>
			<path id="&lt;Path&gt;" class="s14" d="m1825.71 2044.32c0.96 1.2 1.76 2.24 2.62 3.24 0.8 0.91 1.64 1.78 2.49 2.64 0.89 0.91 0.7 2.03 0.59 3.09-0.44 4.1-0.82 8.2-1.41 12.28-1.32 9-3.06 17.91-5.69 26.63-1.79 5.93-3.95 11.71-6.76 17.23-2.84 5.56-6.52 10.46-11.11 14.72-11.38 10.58-24.32 18.41-39.36 22.54-11.83 3.25-23.85 4.14-36.03 2.76-4.56-0.52-9.15-1.11-13.64-2.04-14.74-3.07-27.34-10.29-38.41-20.34-10.44-9.47-18.62-20.7-25.35-33.01-6.01-11-10.63-22.57-14.01-34.64-0.16-0.58-0.3-1.16-0.47-1.85 0.36-0.33 0.64-0.79 1.05-0.94 4.33-1.7 8.25-4.07 11.89-6.94 0.17-0.13 0.45-0.12 0.81-0.21 0.78 0.77 0.86 1.85 1.07 2.88 2.61 13.05 7.01 25.45 13.37 37.14 5.3 9.76 11.92 18.53 20.01 26.18 9.42 8.91 20.57 14.43 33.17 17.11 9.17 1.96 18.43 2.53 27.82 1.67 10.83-1 21.28-3.36 31.31-7.54 5.16-2.16 10.03-4.85 14.57-8.14 5.31-3.85 9.4-8.7 12.4-14.51 3.24-6.28 5.48-12.93 7.24-19.75q3.72-14.46 5.02-29.34c0.45-5.07 0.43-5.07 4.27-8.65 0.77-0.73 1.6-1.39 2.54-2.21z"/>
			<path id="&lt;Path&gt;" class="s15" d="m1790.17 2117.75c-1.03-1.55-1.11-3.11-1.23-4.66-0.51-6.56-0.11-13.09 0.96-19.56 1.56-9.46 3.94-18.72 6.77-27.87 0.59-1.9 1.49-3.09 3.42-3.82 5.01-1.9 9.66-4.5 14-7.65 0.47-0.33 0.99-0.58 1.47-0.86 0.26 0.33 0.53 0.52 0.52 0.68-1.01 11-2.8 21.86-5.77 32.5-1.47 5.26-3.31 10.39-5.7 15.31-2.87 5.89-6.85 10.84-12.21 14.64-0.67 0.47-1.41 0.82-2.23 1.29z"/>
			<path id="&lt;Path&gt;" class="s2" d="m1784.46 2672.23c-0.41-0.53-0.85-0.86-0.91-1.25-0.1-0.57-0.04-1.22 0.13-1.78 1.42-4.42 1.72-9.02 2.12-13.61 0.63-7.24 1.55-14.45 3.24-21.54 2.79-11.65 7.58-22.47 13.59-32.79 5.45-9.37 11.91-17.97 19.48-25.73 6.57-6.73 12.11-14.2 16.28-22.64 1.18-2.39 2.12-4.89 3.19-7.33 0.29-0.65 0.55-1.36 1-1.9 0.23-0.28 0.9-0.43 1.26-0.3 0.37 0.13 0.85 0.67 0.85 1.03-0.01 0.82-0.16 1.7-0.48 2.46-1.27 3.01-2.48 6.06-3.99 8.95-4.17 8.01-9.54 15.18-15.85 21.64-7.75 7.94-14.33 16.75-19.81 26.38-5.17 9.09-9.43 18.58-12.1 28.73-1.85 7.05-2.86 14.24-3.54 21.49q-0.56 6.15-1.47 12.26c-0.25 1.65-0.92 3.25-1.54 4.82-0.17 0.44-0.86 0.68-1.45 1.11z"/>
			<path id="&lt;Path&gt;" class="s2" d="m1623.15 2557.74c1.13 0.38 2.18 0.68 3.18 1.07 4.44 1.72 8.52 4.08 12.41 6.8 8.43 5.9 15.44 13.23 21.46 21.53 7.4 10.21 14.35 20.73 20.95 31.47 2.86 4.65 5.61 9.36 8.38 14.05q0.82 1.41 1.43 2.93c0.26 0.62-0.02 1.32-0.64 1.48-0.49 0.13-1.31 0.02-1.62-0.31-0.71-0.81-1.22-1.8-1.78-2.73-3.95-6.53-7.73-13.17-11.89-19.58-5.6-8.64-11.39-17.16-17.29-25.6-5.02-7.2-11.04-13.51-18.02-18.86-4.75-3.63-9.81-6.68-15.41-8.81-0.68-0.26-1.44-0.48-1.92-0.96-0.33-0.32-0.42-1.09-0.31-1.61 0.07-0.33 0.67-0.56 1.07-0.87z"/>
			<path id="&lt;Path&gt;" class="s2" d="m1955 2429.73c-0.51-0.12-1.21-0.23-1.87-0.49-0.64-0.26-0.73-1.48-0.15-1.85 0.4-0.25 0.85-0.5 1.3-0.58 0.83-0.16 1.68-0.21 2.52-0.29 3.39-0.33 6.6-1.22 9.65-2.81 2.78-1.44 5.69-2.64 8.59-3.83 0.85-0.35 1.87-0.43 2.81-0.43 0.62-0.01 1.13 0.52 1.08 1.2-0.03 0.42-0.34 0.84-0.61 1.21-0.12 0.18-0.41 0.26-0.64 0.32-3.92 0.91-7.41 2.87-10.94 4.69-3.63 1.87-7.57 2.35-11.74 2.86z"/>
			<path id="&lt;Compound Path&gt;" class="s2" d="m1685.5 1850.88c0.48-0.74 0.84-1.21 1.12-1.73 0.4-0.74 0.72-1.53 1.14-2.27 0.58-1.03 1.24-1.35 2.01-1.08 0.77 0.28 1.02 1.08 0.63 2.16-0.21 0.56-0.48 1.11-0.73 1.66q-0.47 0.98-0.93 1.97c-2.48 5.4-3.33 11.05-2.93 16.98 0.56 8.21 0.97 16.43 1.31 24.66 0.24 5.92 0.44 11.86 0.34 17.78-0.08 4.95-0.08 9.94-1.07 14.83-0.19 0.94-0.4 1.91-0.81 2.77-0.21 0.45-0.83 0.86-1.34 0.98-0.67 0.14-1.04-0.45-1.27-1.05-0.09-0.22-0.2-0.43-0.4-0.86-5-0.72-8.43-4.14-11.69-7.76-3.82-4.25-7.07-8.9-10.01-13.8-2.23-3.74-3.22-7.74-3.29-12.1-0.1-6.8 0.53-13.55 1.12-20.29 0.78-9.03 5.31-16.21 12.05-22.06 1.26-1.09 2.77-1.96 4.28-2.7 2.82-1.37 5.63-1.18 8.31 0.51 0.61 0.38 1.21 0.78 2.16 1.4zm-2.92 12.14c0.43-2.21 0.78-4.34 1.26-6.45 0.44-1.94-0.32-3.29-1.81-4.38-1.72-1.26-3.6-1.37-5.53-0.63-0.89 0.34-1.79 0.79-2.54 1.38-7.18 5.65-11.8 12.76-12.39 22.11-0.1 1.57-0.32 3.14-0.38 4.71-0.2 5.21-0.41 10.42-0.52 15.62-0.07 3.24 0.93 6.19 2.59 8.97 2.94 4.9 6.18 9.58 10.02 13.81 1.38 1.52 2.92 2.91 4.49 4.24 0.82 0.69 1.81 1.23 2.8 1.65 1.51 0.65 2.92-0.19 3.28-1.82 0.1-0.47 0.14-0.96 0.17-1.44 0.18-2.9 0.44-5.8 0.51-8.71 0.3-14.32-0.84-28.59-1.5-42.88-0.04-0.8-0.33-1.6-0.5-2.39-3.18-1.03-5.65 0.14-7.89 1.95-3.7 3-6.02 6.91-7.2 11.51-0.71 2.74-1.02 5.48-0.12 8.24q0.22 0.7 0.31 1.43c0.11 0.82-0.34 1.64-0.97 1.73-0.85 0.12-1.42-0.38-1.68-1.09-0.36-1.02-0.73-2.08-0.84-3.14-0.86-8.95 2.5-16.1 9.47-21.61 1.84-1.45 4.03-2.2 6.37-2.48 0.82-0.1 1.65-0.21 2.6-0.33z"/>
			<path id="&lt;Path&gt;" class="s2" d="m1898.1 1851.2c-1.35-0.27-2.4-0.49-3.45-0.7q-7.5-1.48-9.66-8.78c-0.86-2.95-1.08-5.96-0.22-8.97 0.87-3.03 2.55-5.47 5.21-7.19 1.04-0.67 2.15-1.12 3.43-0.91 0.68 0.12 1.17 0.52 1.18 1.17 0 0.41-0.3 0.89-0.6 1.22-0.22 0.23-0.66 0.26-0.99 0.4-3.67 1.48-5.36 4.4-5.71 8.15-0.14 1.42 0.01 2.92 0.32 4.32 1.12 5 4.34 7.67 9.45 7.98 1.09 0.07 2.18-0.02 3.27-0.04 2.64-0.05 3.14 0.71 1.93 2.91-0.69 1.28-1.41 2.54-2.05 3.84-1.14 2.33-1.58 4.81-1.53 7.4 0.08 3.52 1.62 6.3 4.24 8.51 2.63 2.21 5.9 2.26 8.69 0.21q2.09-1.53 3.28-3.83c0.33-0.65 0.58-1.34 0.94-1.96 0.32-0.56 0.84-0.88 1.52-0.7 0.65 0.17 1.1 1 0.97 1.74q-0.06 0.36-0.18 0.7c-1.23 3.49-3.5 6.09-6.84 7.64-3.52 1.65-6.9 1.14-9.89-1.25-4.8-3.83-6.61-8.86-5.42-14.86 0.45-2.23 1.31-4.38 2.11-7z"/>
			<path id="&lt;Path&gt;" class="s2" d="m1640.68 1982.55c-0.11 1.29-0.16 2.12-0.25 2.94-0.87 7.73-9.58 13.29-17.06 10.5-3.62-1.35-6.55-3.59-9.01-6.51-0.23-0.27-0.4-0.6-0.55-0.93-0.28-0.64-0.12-1.26 0.43-1.59 0.36-0.2 1.04-0.28 1.33-0.07 0.79 0.54 1.47 1.24 2.15 1.92 1.56 1.55 3.27 2.89 5.26 3.83 4.09 1.93 8.51 1.16 11.73-1.95 2.85-2.75 3.1-6.14 2.46-9.75-0.15-0.83-0.49-1.62-0.72-2.44-0.2-0.73-0.24-1.47 0.43-1.98 0.71-0.53 1.38-0.18 1.96 0.32 0.55 0.47 1.05 1.01 1.63 1.44 0.97 0.72 1.93 1.47 2.99 2.04 4.84 2.61 9.05 1.13 12.19-2.11 1.64-1.69 2.67-3.74 3.43-5.93q1.44-4.14 1.61-8.53c0.05-1.2 0.13-2.42 0.41-3.58 0.1-0.42 0.8-0.88 1.29-0.98 0.65-0.12 1.09 0.44 1.23 1.07q0.17 0.71 0.16 1.43c-0.06 4.77-0.86 9.39-2.83 13.77-0.85 1.89-1.94 3.62-3.43 5.08-3.92 3.82-8.47 4.93-13.68 3.17-0.9-0.3-1.79-0.66-3.16-1.16z"/>
			<path id="&lt;Path&gt;" class="s2" d="m1836.98 1713.57c0 0.85 0.04 1.7-0.01 2.54-0.04 0.78-0.37 1.41-1.22 1.57-0.62 0.13-1.34-0.48-1.45-1.31q-0.25-1.99-0.34-3.98c-0.17-4.03-1.01-7.92-2.42-11.68-3.05-8.14-8.49-14.29-15.85-18.79q-4.82-2.95-10.24-4.61c-0.92-0.28-1.85-0.56-2.7-1-0.34-0.18-0.65-0.78-0.63-1.18 0.02-0.65 0.56-1.07 1.22-1.1q0.91-0.05 1.8 0.14c15.35 3.31 28.4 16.97 31.11 32.56 0.39 2.26 0.62 4.55 0.93 6.82q-0.1 0.01-0.2 0.02z"/>
			<path id="&lt;Path&gt;" class="s2" d="m1843.27 1735.02c-0.25 7.66-1.08 15.22-3.37 22.58-1.7 5.47-4.06 10.62-7.36 15.33q-0.83 1.19-1.81 2.27c-0.54 0.6-1.43 0.62-1.96 0.14-0.52-0.47-0.55-1.06-0.25-1.64q0.42-0.81 0.96-1.54c6.16-8.47 9.05-18.1 10.2-28.38 0.67-5.92 0.84-11.83 0.14-17.76-0.22-1.88 0.34-2.9 1.33-2.9 0.9 0.01 1.49 0.78 1.6 2.47 0.22 3.14 0.35 6.29 0.52 9.43z"/>
			<path id="&lt;Compound Path&gt;" class="s2" d="m1809.68 2019.59c1.97 0 3.67 0.04 5.36 0 4.58-0.12 10.98 5.36 11.65 11.31 0.15 1.39-0.16 2.69-0.97 3.78-0.87 1.16-1.8 2.3-2.85 3.29-2.04 1.92-4.38 3.43-6.94 4.6-4.18 1.9-8.48 2.69-13.08 1.64-3.21-0.73-6.37-1.53-9.23-3.19-7.06-4.08-9.73-10.45-9.41-18.34 0.05-1.04 0.5-1.86 1.24-2.54 4.84-4.46 10.49-6.42 17.04-5.34 2.18 0.37 4.12 1.4 5.64 3.08 0.49 0.54 0.98 1.08 1.55 1.71zm12.19 14.62c-0.08-0.07-0.16-0.2-0.24-0.21q-1.08-0.11-2.16-0.15c-5.1-0.09-10.11-0.83-15.05-2.03-5.08-1.24-9.91-3.1-14.56-5.46-0.7-0.36-1.38-1.07-2.41-0.29 0 0.39-0.06 0.87 0.01 1.33 0.64 4.59 2.94 8.13 6.85 10.59 3.44 2.17 7.26 3.27 11.29 3.59 6.51 0.52 11.69-2.33 16.19-6.71 0.13-0.12 0.06-0.43 0.08-0.66zm-13.97-11.41c-0.23-0.32-0.57-0.68-0.77-1.11-1.21-2.54-3.32-3.72-6-4.12-3.76-0.56-7.18 0.41-10.4 2.27-0.8 0.46-1.48 1.13-2.23 1.71 4.42 4.9 25.85 11.25 34.89 8.59-0.57-2.79-2.42-4.62-4.58-6.19-1.95-1.41-4.16-1.86-6.54-1.48-1.41 0.22-2.79 0.9-4.37 0.33z"/>
			<path id="&lt;Path&gt;" class="s2" d="m1771.71 1900.07c10.17 1.71 19.88 3.75 28.74 8.6 3.43 1.87 6.54 4.17 9.03 7.22 0.6 0.74 1.11 1.59 1.5 2.46 0.26 0.58 0 1.26-0.64 1.49-0.39 0.14-0.95 0.06-1.33-0.13-0.41-0.21-0.72-0.63-1.02-1.01-3.37-4.33-7.84-7.16-12.78-9.35-5.34-2.36-10.95-3.88-16.66-5.03-1.54-0.31-3.1-0.55-4.65-0.86q-1.25-0.24-2.46-0.63c-1.02-0.34-1.65-1.26-1.19-1.85 0.39-0.48 1.11-0.7 1.46-0.91z"/>
			<path id="&lt;Path&gt;" class="s2" d="m1883.17 1921.28c-7.19 0.21-14.21 1.34-21 3.79-0.9 0.32-1.82 0.71-2.76 0.8-0.43 0.04-1.06-0.49-1.32-0.93-0.16-0.25 0.08-1 0.38-1.23 0.65-0.51 1.42-0.93 2.2-1.22 8.99-3.32 18.28-4.56 27.84-3.85q0.91 0.07 1.78 0.32c0.72 0.22 1.32 0.64 1.29 1.52-0.02 0.69-0.62 1.23-1.52 1.22-1.58-0.04-3.15-0.16-4.72-0.25q-1.08-0.08-2.17-0.17z"/>
			<path id="&lt;Path&gt;" class="s2" d="m1825.5 2006.87c-2.99-0.29-5.82-0.84-8.52-2.04-4.01-1.77-7.8-3.93-11.44-6.34-0.5-0.33-0.99-0.72-1.35-1.2-0.38-0.51-0.43-1.2 0.1-1.63 0.33-0.27 0.95-0.49 1.29-0.36 0.89 0.34 1.7 0.9 2.55 1.37 3.08 1.69 6.13 3.44 9.24 5.07 2.97 1.56 6.16 2.09 9.5 1.95 1.9-0.09 3.6-0.43 4.93-1.89 0.24-0.27 0.53-0.58 0.84-0.67 0.43-0.12 0.99-0.19 1.36 0 0.58 0.29 0.78 0.93 0.52 1.56-0.63 1.54-1.79 2.69-3.34 3.14-1.84 0.52-3.79 0.71-5.68 1.04z"/>
			<path id="&lt;Compound Path&gt;" class="s2" d="m1872.9 1943.52c-0.12 3.07-1.05 5.2-3.35 6.51-2.19 1.24-4.61 0.52-5.88-1.66-1.72-2.93-0.52-7.47 2.43-9.2 2.39-1.4 5.23-0.51 6.28 2.05 0.36 0.86 0.42 1.85 0.52 2.3zm-4.38-1.98c-0.36 0.05-0.49 0.05-0.59 0.09-1.92 0.84-2.7 4.05-1.29 5.5 0.26 0.27 0.95 0.39 1.29 0.24 1.91-0.82 2.68-3.45 1.53-5.15-0.23-0.34-0.71-0.52-0.94-0.68z"/>
			<path id="&lt;Compound Path&gt;" class="s2" d="m1792.04 1935.78c-0.07 2.77-0.93 4.71-2.85 6.06-2.47 1.74-5.37 0.89-6.61-1.89-1.26-2.79-0.16-6.72 2.35-8.45 2.59-1.78 5.78-0.76 6.76 2.22 0.26 0.79 0.28 1.66 0.35 2.06zm-6.92 1.92c0.08 0.26 0.14 0.75 0.36 1.16 0.31 0.56 0.85 0.87 1.5 0.65 2-0.66 2.86-3.71 1.53-5.36-0.43-0.55-1.31-0.58-1.92-0.13-1.19 0.87-1.46 2.11-1.47 3.68z"/>
			<path id="&lt;Path&gt;" class="s2" d="m1844.4 1942.64c0.48 0.31 0.89 0.44 1.04 0.71 0.23 0.4 0.34 0.9 0.39 1.37 0.23 2.23 0.76 4.29 2.79 5.65 0.51 0.35 0.7 1.01 0.3 1.61-0.48 0.72-1.23 0.88-1.91 0.5-0.82-0.46-1.7-1.01-2.25-1.74-1.55-2.03-1.92-4.42-1.46-6.89 0.08-0.45 0.71-0.8 1.1-1.21z"/>
			<path id="&lt;Path&gt;" class="s2" d="m1804.62 1941.25c-0.58 2.87-1.46 5.43-3.71 7.27-0.4 0.33-1.13 0.42-1.68 0.37-0.39-0.03-0.9-0.42-1.05-0.77-0.16-0.36-0.09-1.12 0.16-1.29 1.92-1.3 2.6-3.35 3.41-5.33 0.14-0.32 0.31-0.71 0.59-0.87 0.37-0.21 0.9-0.39 1.29-0.29 0.38 0.1 0.65 0.58 0.99 0.91z"/>
			<g id="&lt;Group&gt;">
				<g id="&lt;Group&gt;">
					<path id="&lt;Compound Path&gt;" class="s16" d="m1682.58 1863.02c-0.95 0.12-1.78 0.23-2.6 0.33-2.34 0.28-4.53 1.03-6.37 2.48-6.97 5.51-10.33 12.66-9.46 21.61 0.1 1.06 0.47 2.12 0.83 3.14 0.26 0.71 0.83 1.21 1.68 1.09 0.63-0.09 1.08-0.91 0.97-1.73q-0.09-0.73-0.31-1.42c-0.9-2.77-0.59-5.51 0.12-8.25 1.18-4.6 3.5-8.51 7.2-11.51 2.24-1.81 4.71-2.97 7.89-1.95 0.17 0.79 0.46 1.59 0.5 2.39 0.66 14.29 1.8 28.56 1.5 42.88-0.07 2.91-0.33 5.81-0.51 8.71-0.03 0.48-0.06 0.97-0.17 1.44-0.36 1.64-1.77 2.47-3.28 1.82-0.99-0.42-1.98-0.96-2.8-1.65-1.57-1.33-3.11-2.72-4.49-4.24-3.84-4.23-7.08-8.91-10.02-13.81-1.66-2.78-2.66-5.73-2.59-8.97 0.11-5.2 0.32-10.41 0.52-15.62 0.06-1.57 0.28-3.14 0.38-4.71 0.6-9.35 5.21-16.46 12.39-22.11 0.75-0.59 1.65-1.04 2.54-1.38 1.93-0.73 3.81-0.63 5.53 0.63 1.49 1.09 2.25 2.44 1.81 4.38-0.48 2.11-0.83 4.25-1.26 6.45zm0.19 45.81c0.13-3.16-0.78-5.21-2.4-6.95-2.03-2.17-4.58-3.48-7.39-4.34-0.34-0.1-0.71-0.12-1.07-0.12-0.64 0.01-1.18 0.25-1.35 0.95-0.16 0.67 0.15 1.2 0.71 1.51 0.62 0.34 1.33 0.54 1.98 0.85 1.08 0.54 2.2 1.01 3.19 1.68 2.33 1.58 3.82 3.64 3.44 6.66-0.06 0.45-0.04 1.01 0.17 1.38 0.2 0.36 0.69 0.64 1.1 0.75 0.26 0.07 0.8-0.16 0.91-0.4 0.39-0.85 0.64-1.75 0.71-1.97z"/>
				</g>
			</g>
			<g id="&lt;Group&gt;">
				<path id="&lt;Path&gt;" class="s17" d="m1821.87 2034.21c-0.02 0.23 0.05 0.54-0.08 0.66-4.5 4.38-9.68 7.23-16.19 6.71-4.02-0.32-7.85-1.42-11.29-3.59-3.91-2.46-6.21-6-6.85-10.59-0.06-0.46-0.01-0.94-0.01-1.33 1.03-0.78 1.71-0.07 2.41 0.28 4.65 2.37 9.48 4.23 14.56 5.47 4.94 1.2 9.95 1.94 15.05 2.03q1.08 0.04 2.16 0.15c0.08 0.01 0.16 0.14 0.24 0.21z"/>
			</g>
			<g id="&lt;Group&gt;">
				<path id="&lt;Path&gt;" class="s17" d="m1807.9 2022.8c1.58 0.57 2.96-0.11 4.37-0.33 2.38-0.38 4.59 0.07 6.54 1.48 2.16 1.57 4.01 3.4 4.58 6.19-9.04 2.66-30.47-3.69-34.89-8.59 0.75-0.59 1.43-1.25 2.23-1.71 3.22-1.86 6.64-2.83 10.4-2.27 2.68 0.4 4.79 1.58 6 4.12 0.2 0.43 0.54 0.79 0.77 1.11z"/>
			</g>
			<path id="&lt;Path&gt;" class="s2" d="m1868.52 1941.54c0.23 0.16 0.71 0.34 0.94 0.68 1.15 1.7 0.38 4.33-1.53 5.15-0.34 0.15-1.03 0.03-1.29-0.24-1.41-1.45-0.63-4.66 1.29-5.5 0.11-0.04 0.23-0.04 0.59-0.09z"/>
			<path id="&lt;Path&gt;" class="s2" d="m1785.12 1937.7c0.01-1.57 0.28-2.81 1.47-3.68 0.61-0.45 1.49-0.42 1.92 0.12 1.33 1.66 0.47 4.71-1.53 5.37-0.65 0.22-1.19-0.09-1.5-0.65-0.22-0.41-0.28-0.9-0.36-1.16z"/>
			<path id="&lt;Path&gt;" class="s2" d="m1682.77 1908.83c-0.07 0.22-0.33 1.12-0.71 1.97-0.11 0.24-0.65 0.47-0.91 0.4-0.41-0.11-0.9-0.39-1.1-0.75-0.21-0.37-0.23-0.93-0.17-1.38 0.38-3.02-1.11-5.08-3.44-6.66-0.99-0.67-2.11-1.14-3.19-1.68-0.65-0.31-1.36-0.51-1.98-0.85-0.56-0.31-0.87-0.84-0.71-1.51 0.17-0.7 0.71-0.94 1.35-0.95 0.36 0 0.73 0.02 1.07 0.12 2.81 0.86 5.36 2.17 7.39 4.34 1.62 1.74 2.53 3.79 2.4 6.95z"/>
		</g>
	</g>
	<g xmlns="http://www.w3.org/2000/svg" id="Capa 6">
		<g id="&lt;Group&gt;">
		</g>
	</g>
</svg>