<svg xmlns="http://www.w3.org/2000/svg" viewBox="0 0 608.66 550.36"><defs><style>.cls-1{fill:#353dfe;}.cls-2{fill:#14fe5e;}</style></defs><g id="Capa_4" data-name="Capa 4"><path d="M0,238a46.16,46.16,0,0,0,.81-5A438,438,0,0,1,6.9,180.47C13.75,141.29,30,106.58,56.28,76.66c3.39-3.85,6.94-7.52,11.4-10.24a10.24,10.24,0,0,0,3-3.05,45.82,45.82,0,0,0,4-7,32.57,32.57,0,0,1,4.8-7.76A165.71,165.71,0,0,1,94.69,32.57a27.5,27.5,0,0,1,10.89-6.23c2.31-.72,4.64-1.41,6.91-2.26,2.67-1,3.71-2.21,3.07-4.91-.87-3.65.67-5.42,3.61-7a79.94,79.94,0,0,0,7.38-5,20.15,20.15,0,0,1,8.16-3.34,10.93,10.93,0,0,1,6.09.64c2.79,1.13,3.93,3.15,3.56,6.17,0,.34-.06.69-.15,1.65a50,50,0,0,0,4.11-3.53c2.41-2.57,5.53-3.29,8.79-3.45,3.77-.18,5.48,2.4,3.93,5.84a35.1,35.1,0,0,1-2.85,4.88c-1.54,2.33-3.29,4.51-4.75,6.88A46.73,46.73,0,0,0,150,29.61c-2,4.82-5,6.21-9.85,4.19-1.07-.45-2.08-1-3.13-1.56a7.75,7.75,0,0,0-11.28,6.68c-.23,4.35.74,5,4.8,3.37a17.76,17.76,0,0,1,5.15-1.36c3.05-.21,5.05,1.75,5.35,4.83a14.36,14.36,0,0,1-1.32,7.62A68.61,68.61,0,0,1,136,60.56c-3.66,6-7.47,11.86-11.2,17.79A49.36,49.36,0,0,0,117.5,96.2a9.28,9.28,0,0,0-.11,2.68,4.3,4.3,0,0,0,4.8,4,9.84,9.84,0,0,0,1.86-.28c1.13-.26,2.26-.57,3.39-.84,6.33-1.52,12.05,2.3,12.29,8.82a84.83,84.83,0,0,1-1.07,14.74c-.43,3.2-2.43,5.76-5,7.78l-2.1,1.65a9.71,9.71,0,0,0,1.5.45,118.77,118.77,0,0,0,42.16-3.89,24.32,24.32,0,0,0,4.27-1.65,27.86,27.86,0,0,0,3.14-2.15c-1-1-1.67-1.76-2.47-2.4a11.2,11.2,0,0,1-4-12.26,14.47,14.47,0,0,1,4.42-7.27c7.62-6.66,16.35-8.81,26.06-5.76a22.89,22.89,0,0,1,6.48,3.73,10.31,10.31,0,0,1,3.94,6.56c.36,1.93.68,2.34,2.56,2.41a49.55,49.55,0,0,0,7-.11,271.9,271.9,0,0,0,29.18-5c.71-.15,1.42-.27,2.13-.38a11.8,11.8,0,0,0,4.87-1.92c3.63-2.38,7.83-2.21,12-2a103.63,103.63,0,0,0,11.28.29c4-.2,5.31-1.85,5.7-5.78a18.43,18.43,0,0,0-2-11.22c-2.58-4.58-6.05-5.69-10.58-3.08-3,1.74-5.88,3.81-8.82,5.71-1.51,1-3,2-4.6,2.8a8.46,8.46,0,0,1-9.18-.56,12.58,12.58,0,0,1-4.69-5.1,64.35,64.35,0,0,1-3.14-7.72,108,108,0,0,1-3.78-20.1c-.33-2.92.25-3.43,3.2-3.57,8.17-.38,16.35-.69,24.34-2.66A63.45,63.45,0,0,0,287.94,46c2.81-1.54,3.5-2.67,3.78-5.31-.6-.22-1.24-.48-1.9-.68-1.12-.33-2.27-.55-3.36-.94a6.25,6.25,0,0,1-4.32-5.94,10.67,10.67,0,0,1,3.95-9.57,27,27,0,0,1,6.24-3.67,48.19,48.19,0,0,1,17.57-3.66,36.23,36.23,0,0,1,7.72.95,9.74,9.74,0,0,1,3.4,1.57,6.92,6.92,0,0,1,2.44,9.43c-.61,1.2-1.43,2.29-2.08,3.47-.94,1.71-.79,2.73,1,3.45a18.43,18.43,0,0,0,6,1.35,47.73,47.73,0,0,0,13.85-1.84c4.26-1.08,8.54-2.19,12.66-3.68q18.51-6.67,37.2-12.76c5.63-1.83,11.08-4.22,16.71-6a59.8,59.8,0,0,1,10.5-2.3,22.54,22.54,0,0,1,6.94.36A7.52,7.52,0,0,1,432.35,16a41.52,41.52,0,0,0,1.95,5.59c2.05,4.57,4.83,6.25,9.83,5.79a28.25,28.25,0,0,0,11.42-3.81,12.52,12.52,0,0,0,1.8-1.63,29.19,29.19,0,0,0-2.74-2.34c-1.8-1.18-3.73-2.17-5.52-3.36a25.18,25.18,0,0,1-4-3.14c-2.18-2.18-2.1-4.59.35-6.48a17.33,17.33,0,0,1,5.18-2.79c4.19-1.3,8.48-2.29,12.73-3.41.43-.11.85-.26,1.27-.4h2.7l5.51,2.81a211.7,211.7,0,0,1,56.42,42.43c36.95,38.55,61.39,83.86,72.73,136.1,3.61,16.62,6.09,33.4,6.37,50.46a26.21,26.21,0,0,0,.34,2.91v22.12a31.77,31.77,0,0,0-.36,3.19,210,210,0,0,1-3,31.37,323.36,323.36,0,0,1-16.59,63.51c-7,18.82-14.85,37.23-25.49,54.32-25.42,40.88-59,73.65-99.67,99.15-18.67,11.69-38.44,21.06-59.7,27.06a381.46,381.46,0,0,1-80.48,14.07c-2.59.16-5.17.57-7.75.86H285.45c-2.49-.3-5-.74-7.47-.87A273.48,273.48,0,0,1,247.76,546a311.83,311.83,0,0,1-56.65-15c-28.58-10.51-55-24.82-78.34-44.49a328.17,328.17,0,0,1-56.52-62c-13.74-19.41-25.86-39.76-34.8-61.88A286.77,286.77,0,0,1,.84,269.69c-.11-2-.55-3.89-.84-5.84Zm298.56,66.52c0,1,0,1.7,0,2.41a244.06,244.06,0,0,0,2.83,28.68,49.63,49.63,0,0,0,4.06,13.93,21.94,21.94,0,0,0,5.46,7.28,11,11,0,0,0,12.33,1.74,25.5,25.5,0,0,0,7.57-5.54c2.87-2.85,5.64-5.82,8.71-8.45a50.49,50.49,0,0,1,8.51-6.11c6.23-3.42,11.72-2.17,16.34,3.28a18.58,18.58,0,0,1,1.16,1.49,56.75,56.75,0,0,1,8.78,18.68,27.1,27.1,0,0,1,.89,10.94c-.76,4.94-3.57,7.51-8.52,7.65a17.26,17.26,0,0,1-2.69-.13c-2.94-.39-5.85-.95-8.8-1.24-3.75-.37-7.6-.85-11.22.49-5.14,1.89-10.2,4-15.21,6.21a14.65,14.65,0,0,0-8.4,10,39.19,39.19,0,0,0-.17,20.78,18.67,18.67,0,0,0,4.51,8.18,4.24,4.24,0,0,0,3.33,1.44c2.15,0,4.31.09,6.47.19,16.1.74,32.17.49,48.14-1.86a76.34,76.34,0,0,0,24.59-7.65,37.47,37.47,0,0,0,9.62-6.85,8.72,8.72,0,0,0,2.57-4.64c.3-1.81,0-2.76-1.67-3.52a35.48,35.48,0,0,0-4.08-1.36c-5.89-1.88-8.32-7-5.59-12.55a23.3,23.3,0,0,1,4.9-6.69,74.58,74.58,0,0,1,32.42-18,23.68,23.68,0,0,1,12.53-.13c4.52,1.29,7.57,4.08,8.24,8.94a12.89,12.89,0,0,1-1.4,7.05c-.56,1.23-1.22,2.41-1.74,3.65-1.68,4-1.22,4.77,3.15,4.55a90.31,90.31,0,0,0,24.2-5c11.55-3.86,21.73-9.75,29.87-19,3.3-3.75,7.12-7.05,10.87-10.72-.33-.5-.87-1.31-1.4-2.13-6.29-9.55-11.22-19.66-12.66-31.18-1.1-8.85,1.75-16.48,7.24-23.26,2.32-2.86,5.42-3.68,9-3,1.06.19,2.1.45,3.16.66,6.06,1.24,9.8-.87,11.57-6.74a25.82,25.82,0,0,0-1.23-18.42,17.4,17.4,0,0,0-2.62-4.06c-3.53-4.22-12-6-16.31,1.17-1.16,1.91-2.06,4-3.11,6a45.54,45.54,0,0,1-2.61,4.7c-1.93,2.79-4.62,3.76-8,3.14-5-.92-8.26-4-10.78-8.19a135.31,135.31,0,0,1-14.6-32.34c-.32-1.1-.73-2.18-1.16-3.45a23,23,0,0,0-2,1.08,256.79,256.79,0,0,1-31.33,17.92c-6.12,3-12.25,6.06-19,7.59-2.46.56-5,1.07-7.46.33-6-1.78-8.81-5.44-6-11.2a24.28,24.28,0,0,0,1.18-2.72c1-3.06,2.18-6.09,3-9.21.84-3.31-.37-5.54-3.7-6.38a32.44,32.44,0,0,0-8.77-1,79.48,79.48,0,0,0-21.16,3.77,35.91,35.91,0,0,0-12.23,6.09A16,16,0,0,0,374,252.4c-.45,3.55.46,6.36,3.6,8.33a22.78,22.78,0,0,1,2.74,2.18,20.69,20.69,0,0,1,6.29,9.56c1.41,4.46.78,8.64-2.29,12.13a23.94,23.94,0,0,1-6.35,5.32,73.75,73.75,0,0,1-12.05,5.28c-13.5,4.44-27.57,5.71-41.6,7.05-7.78.74-15.59,1.15-23.38,1.74A20.07,20.07,0,0,0,298.56,304.47Zm-1-4.14c1.14,0,1.86.05,2.57,0q12.22-1,24.44-2a254.23,254.23,0,0,0,29.09-3.86,78.76,78.76,0,0,0,20.18-6.54,22.49,22.49,0,0,0,7.13-5.24,8.82,8.82,0,0,0,1.87-9.28,18,18,0,0,0-5.83-8.25c-1.41-1.12-2.83-2.23-4.15-3.44a8.68,8.68,0,0,1-2.86-6.2,19.21,19.21,0,0,1,5.38-14.76,24.8,24.8,0,0,1,8.8-6.11,116.91,116.91,0,0,1,12-4.07A62.56,62.56,0,0,1,418,228.17a22.91,22.91,0,0,1,7.25,1.8,7.65,7.65,0,0,1,4.55,9.1c-.81,3.57-2.06,7.05-3.2,10.55-.41,1.27-1.1,2.46-1.57,3.72-.85,2.31-.49,3.14,1.62,4.46a7,7,0,0,0,5.7.85,77.75,77.75,0,0,0,10.77-3.36,265.53,265.53,0,0,0,43.11-23.82,2.62,2.62,0,0,0,1.33-2.89c-1-7-1.83-14.07-2.76-21.1-.26-1.95-.28-4-1-5.8-1.75-4.12-3.78-8.14-5.89-12.09a23.13,23.13,0,0,0-3.38-4.53c-5.08-5.6-9.8-5.56-14.76.1-1.18,1.35-2.18,2.85-3.25,4.3a31.22,31.22,0,0,1-7.68,7.87c-5.24,3.48-10.49,3.21-14.94-1.25a35,35,0,0,1-5.52-7.57,55,55,0,0,1-5.85-17,26.21,26.21,0,0,1-.16-10.44c1.09-5.12,4.13-8.33,9.29-9.23a23.39,23.39,0,0,1,5.61,0c2.15.15,4.27.69,6.41.75,3,.1,3.85-1,3.51-4a16.62,16.62,0,0,0-.79-3.4,57.56,57.56,0,0,0-14.91-24c-.57-.55-1.19-1.05-1.78-1.56-.81.25-1.5.45-2.18.67-13.25,4.25-26.49,8.56-40.06,11.72a63.27,63.27,0,0,1-11.4,1.83c-5.23.22-8.18-2.95-8.29-8.14a13.28,13.28,0,0,1,.1-3c.64-3.16,1.37-6.31,2.11-9.45.63-2.66.43-3.22-1.88-4.6a11.57,11.57,0,0,0-1.92-1c-9.34-3.46-18.66-3.57-27.77.65a25.54,25.54,0,0,0-12.94,13.88c-1.35,3.22-.71,5.58,1.9,7.71a23,23,0,0,0,3.84,2.46c2.39,1.25,4.89,2.29,7.27,3.55a22.09,22.09,0,0,1,4.25,2.82,4.59,4.59,0,0,1,.73,6.54,13.14,13.14,0,0,1-3.67,3.5,69.71,69.71,0,0,1-8.85,4.55c-11,4.62-22.69,6.73-34.49,8.09-7.49.86-15,1.51-22.51,2.29a17.44,17.44,0,0,0-2.38.58c1.19,4.84,2.38,9.44,3.45,14.07,1.86,8,3.48,16,3.77,24.19a45.16,45.16,0,0,1-.85,9.34,6.67,6.67,0,0,1-4.69,5.12,22.1,22.1,0,0,1-7.93,1.24c-4.21,0-8.12-1.45-12.11-2.48a14.49,14.49,0,0,0-8,.08c-9.48,2.89-14.86,10.9-14.06,21.31a43,43,0,0,0,5.17,17.44c4,7.29,9.08,8.83,16.35,4.89a77,77,0,0,0,7.16-4.79c7.57-5.29,15.6-6.25,23.94-2.22,6.63,3.2,10.5,8.86,12.48,15.81,2.2,7.7,2.47,15.59,1.94,23.52C298,294.58,297.82,297.33,297.6,300.33Zm24.21,127.31c-.51-.75-.83-1.26-1.19-1.74a25,25,0,0,1-4.46-9.44,43.23,43.23,0,0,1,.14-20.57,19.75,19.75,0,0,1,12.07-14.24l2.74-1.13c3.33-1.35,6.61-2.85,10-4a27.29,27.29,0,0,1,7.59-1.56,87.24,87.24,0,0,1,9.92.72c2.86.25,5.71.67,8.57.76,2.19.06,3.36-.91,3.87-3a14.65,14.65,0,0,0,.47-4.78,46.78,46.78,0,0,0-10.59-25c-2.94-3.63-6.48-4.28-10.63-2.13a35.35,35.35,0,0,0-6.89,4.66c-3.2,2.76-6.16,5.78-9.16,8.76-2.7,2.67-5.49,5.21-9,6.79-6.27,2.83-12.08,2.09-17.3-2.44a26.16,26.16,0,0,1-6.49-9.19A54,54,0,0,1,297.74,337a205.39,205.39,0,0,1-2.8-26.53c-.08-1.57-.31-3.15-.47-4.73a14.73,14.73,0,0,0-1.68-.08c-8.31.89-16.63,1.62-24.9,2.74a212.94,212.94,0,0,0-52.06,14.39,47.5,47.5,0,0,0-6.52,3.21c-2.83,1.71-3.1,3.09-1,5.65,1.75,2.16,3.82,4,5.75,6.05a49.93,49.93,0,0,1,4.07,4.3c3.73,4.93,2.75,9.74-2.71,12.53a31.12,31.12,0,0,1-7.85,2.73,164.58,164.58,0,0,1-26.19,3.14A55.7,55.7,0,0,1,172,360c-7.28-.93-10.76-6-9.37-13.22a32.59,32.59,0,0,1,4.57-10.87c1.27-2.07,1.17-3.19-.73-4.66a22.6,22.6,0,0,0-5.08-3,74.71,74.71,0,0,0-28.72-5.24c-11.69.08-22.88,3.31-33.95,6.83a2.35,2.35,0,0,0-1.92,2.5c-.13,11.34,0,22.66,1.68,33.9a30.66,30.66,0,0,0,2.23,8.57c4.13,8.64,9,8.85,15.17,5.89,1.94-.94,3.78-2.07,5.63-3.18,1.23-.74,2.37-1.63,3.59-2.4a11.81,11.81,0,0,1,12.77-.34,21.07,21.07,0,0,1,4.32,3.19,41.07,41.07,0,0,1,10.48,17.06,20.91,20.91,0,0,1,1,5.56c.2,4.52-1.53,8.13-5.78,10.09-5.75,2.64-14,2.91-19.57-3.35-.89-1-1.84-2-2.76-3a7.3,7.3,0,0,0-6.56-2.38,19.54,19.54,0,0,0-7.81,2.79,8.38,8.38,0,0,0-4.21,7.1,21.56,21.56,0,0,0,1.42,8.72c2.64,7.37,6.87,13.81,11.51,20a3.91,3.91,0,0,0,3,1.54c2.5.23,5,.45,7.52.64,8,.61,15.94,1.28,23.92,1.79,9,.56,17.95,1,26.92,1.46,3.59.19,7.18.26,10.76.6a22.4,22.4,0,0,1,9,2.54c4,2.24,5.08,5.7,3.06,9.81a23,23,0,0,1-1.87,3c-2.75,3.91-2.26,6.35,1.89,8.82a12.3,12.3,0,0,0,3.15,1.5c3.47.89,7,1.76,10.48,2.36,6.08,1,12.21.56,18.29-.08a103.1,103.1,0,0,0,12.17-2.18,14.31,14.31,0,0,0,4.6-2.15c1.55-1,1.77-2.2.65-3.69a41.42,41.42,0,0,0-3.9-4.06,42.39,42.39,0,0,1-3.65-3.56c-2.49-3.19-2.6-6.79-.07-9.93a24.71,24.71,0,0,1,5.37-4.83,40.47,40.47,0,0,1,13-5.69c14.47-3.63,29.17-6.12,43.87-8.61C312.53,429.15,317,428.43,321.81,427.64Zm-54.2-263a27.5,27.5,0,0,0-3.07.16c-15.48,2.66-31,5.26-46.43,8.07-5.29,1-10.5,2.39-15.7,3.8a17.2,17.2,0,0,0-9.32,6.1c-2.51,3.28-2.37,6.72.39,9.8.71.8,1.6,1.44,2.34,2.22a35.59,35.59,0,0,1,3.77,4.2c2.42,3.5,1.87,7.07-1.41,9.82a19.06,19.06,0,0,1-3.37,2.22,70.57,70.57,0,0,1-13.8,5.32,27.34,27.34,0,0,1-22.76-3.21,21.71,21.71,0,0,1-5-4.38,6.06,6.06,0,0,1-.37-7.75,43.47,43.47,0,0,1,3.92-4.78c1.56-1.73,3.3-3.31,4.84-5.07a13.75,13.75,0,0,0,1.47-2.6c-9.6-5.64-58.27-3.4-69.27,3,.23,1.57.59,3.16.68,4.76a157.76,157.76,0,0,1-1.21,29.86A30.75,30.75,0,0,1,90,236.42c-2.83,5.41-7.24,6.51-12.3,3.13-.68-.45-1.3-1-2-1.4a16.24,16.24,0,0,0-2.37-1.25,5.54,5.54,0,0,0-7.23,2.38,11.24,11.24,0,0,0-1.77,6.41c.14,4.94.23,9.89.7,14.8a42.07,42.07,0,0,0,2,8.92c1.3,4,2.51,4.26,6,2a33.27,33.27,0,0,1,9.67-4.67c6.32-1.62,10.66,1.11,11.87,7.48a21.92,21.92,0,0,1,.41,2.66c.4,6.46.87,12.91,1.09,19.38.33,9.25.45,18.51.69,27.77a19.89,19.89,0,0,0,.33,2.28c3.54-1,6.72-2,9.92-2.85,8.17-2.17,16.39-4,24.91-4.17a82.52,82.52,0,0,1,15.55,1.3,62.28,62.28,0,0,1,15.29,4.21,29.53,29.53,0,0,1,6.23,3.68c3.24,2.57,3.61,5.77,1.56,9.34a34.19,34.19,0,0,0-3,5.73,23.92,23.92,0,0,0-1.33,6.54c-.16,3,1.38,5,4.24,5.8a18.09,18.09,0,0,0,4.51.67,149.76,149.76,0,0,0,32.64-3.25,23.07,23.07,0,0,0,5.34-1.82c3.82-1.82,4.37-4.2,1.77-7.48-1.11-1.4-2.54-2.54-3.75-3.86a81.28,81.28,0,0,1-6.77-7.64c-2.17-3.08-1.48-6.21,1.39-8.62a16.69,16.69,0,0,1,3.13-2.08c2-1,4-2,6.12-2.82,24.31-10.06,49.72-15.24,75.9-16.94.79-.05,1.56-.21,2.35-.32.18-.8.38-1.4.46-2a91.41,91.41,0,0,0,.15-25c-.7-4.66-2-9.16-4.91-13-4.61-6-10.6-8.65-18.17-7.52a19.58,19.58,0,0,0-9.23,4.14,37.32,37.32,0,0,1-9.65,5.85,15.12,15.12,0,0,1-7.9,1.14,13.46,13.46,0,0,1-9.33-6.31c-5.21-8.16-8-17.09-7.08-26.85.93-10.15,7.87-17.88,17.77-20.27a15.57,15.57,0,0,1,7.73,0c2.61.68,5.21,1.36,7.82,2a18.27,18.27,0,0,0,10.36-.16c1.94-.63,3.17-1.81,3.32-3.78.23-3.12.68-6.32.28-9.38-1-7.29-2.24-14.55-3.66-21.78C270.22,174.09,268.85,169.52,267.61,164.65ZM533.09,356.52a45.51,45.51,0,0,0-3.59,2.86c-3.45,3.41-6.82,6.9-10.23,10.36A54.25,54.25,0,0,1,505,380.3a103.33,103.33,0,0,1-38.1,10.89,16.34,16.34,0,0,1-5.07-.43,4.32,4.32,0,0,1-3.51-5.24,34.8,34.8,0,0,1,1.87-5.87c.55-1.51,1.41-2.93,1.84-4.47a6.21,6.21,0,0,0-3.87-7.89,12.58,12.58,0,0,0-3.38-.83,26.29,26.29,0,0,0-10.13.9c-9.15,2.56-17.23,7.21-24.72,12.88a45.92,45.92,0,0,0-6.58,6.35,13.93,13.93,0,0,0-2.34,4.49,3.83,3.83,0,0,0,1.73,4.68,14.94,14.94,0,0,0,2.94,1.28,43.55,43.55,0,0,1,4.49,1.76,5.76,5.76,0,0,1,3.14,6.07c-.23,2.48-.88,4.86-2.71,6.59a60,60,0,0,1-7.61,6.39c-6.26,4.2-13.28,6.71-20.55,8.55a123.84,123.84,0,0,1-22.89,3.36,262.24,262.24,0,0,1-30.45.57c-3.23-.17-6.47-.19-9.71-.22-1.88,0-2.38.34-2.27,2.16a16.13,16.13,0,0,0,1.12,5.47,21.17,21.17,0,0,0,9,10.42c3.29,1.83,6.77,3.32,10.13,5a64.66,64.66,0,0,1,7.35,3.94c4.41,3,5.07,7.07,1.92,11.39a23.7,23.7,0,0,1-15.89,9.73c-5.42.88-10.78.2-16.12-.4a28.77,28.77,0,0,0-21.24,5.94c-3.31,2.5-4.49,5.86-3.53,10s3.42,6.81,7.78,7.43a22.83,22.83,0,0,0,3.74.44,113.94,113.94,0,0,0,11.55-.59A76.79,76.79,0,0,0,342.77,496a51.86,51.86,0,0,1,7.93-2.52c4.38-1,8.17.39,11.35,3.44a23.61,23.61,0,0,1,6.06,9.76c.28.83.57,1.66.86,2.52a10.11,10.11,0,0,0,1.77-.12c11.5-2.84,23-5.59,34.49-8.61a107.25,107.25,0,0,0,11.61-4.29c1-.39,2.17-.83,2.54-2.2-.61-.38-1.15-.69-1.67-1-2.73-1.86-3.28-4.48-1.41-7.21a9.94,9.94,0,0,1,2.39-2.53,46.57,46.57,0,0,1,6.42-3.93,56,56,0,0,1,21.39-4.94,17.33,17.33,0,0,1,5.06.61c2.59.67,3.44,2.32,2.83,4.91-.12.5-.27,1-.42,1.56a6.17,6.17,0,0,0,4.84.06,63,63,0,0,0,7.54-2.88c8.29-3.92,16.51-8,24.79-11.91a4.85,4.85,0,0,0,2.52-2.6c1.22-2.71,2.58-5.34,3.81-8a43.49,43.49,0,0,1,10.07-13.88,68.65,68.65,0,0,0,5.82-6,33,33,0,0,0,3.33-5.19,2.43,2.43,0,0,0,0-2c-.11-.26-1.19-.33-1.68-.12a74.24,74.24,0,0,0-7.34,3.28c-2.13,1.15-4,2.81-6.11,3.94a33.15,33.15,0,0,1-6.92,2.87,5.45,5.45,0,0,1-6.85-4.11,12.57,12.57,0,0,1-.52-4.78,64.32,64.32,0,0,1,1.86-10,18.25,18.25,0,0,1,11.74-12.48,39.27,39.27,0,0,1,4.35-1.39c3.84-.94,7.68-1.86,11.55-2.69,5.14-1.11,8.68-3.92,10.53-9,1.61-4.38,3.59-8.63,5.36-12.95a37.8,37.8,0,0,0,3-17.12C535.46,361.78,535.2,359.08,533.09,356.52ZM434.29,118a3.23,3.23,0,0,0,.25.66c.35.4.71.81,1.08,1.2a60.54,60.54,0,0,1,14.23,23.57,24.68,24.68,0,0,1,1.28,6.57c.15,3.31-1.66,5.48-4.9,6.13a20.35,20.35,0,0,1-5.06.17c-2.77-.16-5.53-.7-8.29-.69a6.27,6.27,0,0,0-6.12,4.47,10.81,10.81,0,0,0-.84,4.19,57.16,57.16,0,0,0,1.11,9.6c1.47,6.33,3.69,12.43,7.75,17.63q6.29,8.07,13.78,1.2a47.81,47.81,0,0,0,4.17-4.59c.86-1,1.5-2.26,2.39-3.26a40.65,40.65,0,0,1,5.05-5.19c4.4-3.44,9.18-3.48,13.7-.23a24.65,24.65,0,0,1,4.49,4.23c4.36,5.26,7.2,11.37,9.47,17.75a15.24,15.24,0,0,1,.57,3.18c.93,7.49,1.83,15,2.79,22.47a19,19,0,0,0,.77,2.82,21.4,21.4,0,0,0,2.34-.77c12.66-6,24.11-13.58,32.75-24.87,2.23-2.93,4.34-6,6.66-8.82a49.1,49.1,0,0,1,5.69-6.1,9.86,9.86,0,0,1,10.32-1.92,20,20,0,0,1,12,10.89,27.74,27.74,0,0,1,2.37,11.26c.06,3.41.15,6.85,1.39,10.1,1.64,4.3,4.91,5.1,8.42,2.07a12.7,12.7,0,0,0,4.38-9,22.4,22.4,0,0,0-1.92-10.24c-1.12-2.74-2.21-5.5-3.13-8.32a38.9,38.9,0,0,1-2-14.88c.53-7.22,4-11.15,11.13-12.41.7-.13,1.42-.19,2.14-.28l9.54-1.26a282.67,282.67,0,0,0-50-97.33L540,69.71c.44,1.44.87,2.62,1.16,3.83.67,2.74.12,4.07-2.42,5.24-2.29,1-4.68,1.85-7,2.8-3.57,1.47-7.14,2.93-10.67,4.49a4.69,4.69,0,0,0-2.79,2.4,17.1,17.1,0,0,1,2.23,1.72,25.73,25.73,0,0,1,3.91,4.74c2.84,5.31,1,12.28-3.88,14.92a27.93,27.93,0,0,1-16.07,3.6A13.29,13.29,0,0,1,492,102c-.12-.71-.3-1.41-.43-2.11a4.86,4.86,0,0,0-3.39-3.84c-4.12-1.53-8.11-1.48-11.85,1.06a43.77,43.77,0,0,0-4.07,3.11,41.42,41.42,0,0,1-11.64,7.2q-10.86,4.39-21.75,8.75C437.37,116.77,435.88,117.34,434.29,118ZM373.5,28.51c-1,.29-1.7.45-2.37.69-4.73,1.71-9.43,3.49-14.19,5.13-8.5,2.94-17.12,5.43-26.18,5.94-3.61.2-7.21,0-10.46-1.84-3.56-2.08-4.32-5.1-2.27-8.67.54-.94,1.19-1.81,1.71-2.75,1.35-2.45.86-4.44-1.73-5.51a19.46,19.46,0,0,0-6-1.35,38.26,38.26,0,0,0-14.58,2.08,42.26,42.26,0,0,0-7.62,3.32,7.28,7.28,0,0,0-3.81,7,3,3,0,0,0,2.33,3.19c1.21.35,2.45.58,3.66.91,3.43,1,4.56,3.17,3.42,6.58a10.84,10.84,0,0,1-5.43,6.1,67.66,67.66,0,0,1-17.77,6.93A101.86,101.86,0,0,1,253,58.45c-1.3,0-2.59.22-4.13.35.4,2.88.7,5.36,1.11,7.82A62.42,62.42,0,0,0,254,82a18.28,18.28,0,0,0,3.15,5c2.51,2.7,4.81,2.92,8,1,2.38-1.45,4.61-3.13,7-4.63a72.22,72.22,0,0,1,6.72-4,9.61,9.61,0,0,1,9.78.37,12.84,12.84,0,0,1,4.48,4.94,22.69,22.69,0,0,1,2.47,14.07c-.61,5-3.1,8.24-9.5,8.74-3.38.27-6.81-.25-10.22-.25a81.17,81.17,0,0,0-9.1.39c-1.79.2-3.19,1.23-3.05,3.43a1.69,1.69,0,0,1-.34,1.26c-1.67,1.38-1.55,3.38-1.81,5.19-.54,3.74-.86,7.5.18,11.24q3.93,14.15,7.82,28.3c.28,1,.62,2,.94,3,1.2,0,2.19.08,3.15,0q9.53-.94,19-2A170.83,170.83,0,0,0,316,154.17,81.91,81.91,0,0,0,335.44,147a20.58,20.58,0,0,0,3.75-2.6c1.78-1.57,1.7-2.56-.25-3.8-1.43-.91-3-1.63-4.51-2.42-2.62-1.37-5.38-2.53-7.86-4.12-5.75-3.67-7.1-8.51-4.12-14.62a30.26,30.26,0,0,1,17.7-16,39.44,39.44,0,0,1,20.46-1.38,26.63,26.63,0,0,1,10.74,4.13c2.46,1.74,3.51,4,2.64,7-.67,2.32-1.34,4.67-1.8,7a24.83,24.83,0,0,0-.58,5.87c.15,2.68,1.52,3.89,4.22,3.83a37.44,37.44,0,0,0,6.93-.79c14.59-3.17,28.77-7.77,43-12.33a10.64,10.64,0,0,0,1.73-1c-.78-.91-1.4-1.67-2.05-2.39-6.55-7.3-12.95-14.74-18.17-23.07a88.62,88.62,0,0,1-5.51-10.76,13,13,0,0,1-.46-8.72c1.24-4.78,3.67-6.72,8.67-6.77,2.43,0,4.88.2,7.28-.07A28,28,0,0,0,424,62.42a3.3,3.3,0,0,0,2.2-4.57,16.46,16.46,0,0,0-2.93-5.67,89.12,89.12,0,0,0-8.73-8.76c-3.82-3.33-5.09-3.07-8.56.53a31,31,0,0,1-5.16,4.71c-6.34,4.14-12,3.46-17-1.69a21,21,0,0,1-3.49-4.44c-2-3.61-3.73-7.35-5.54-11.06C374.3,30.6,374,29.67,373.5,28.51Zm-8.89,481.74a10.26,10.26,0,0,0-.11-2.16,19.39,19.39,0,0,0-6-9.14,7,7,0,0,0-5.47-1.85,37.29,37.29,0,0,0-6.26,1.41c-2.48.8-4.82,2-7.3,2.79a94.34,94.34,0,0,1-21.62,4.27,35.21,35.21,0,0,1-12.84-1c-2.36-.7-4.63-1.71-6.1-3.76-3.76-5.28-5.51-13.67,1.44-19.44a30.84,30.84,0,0,1,22.46-7.43c4.92.34,9.86.74,14.79.72a19.2,19.2,0,0,0,15.06-7.25c3-3.58,2.74-5.61-1.31-7.94-2.56-1.47-5.34-2.57-8-3.9a85.43,85.43,0,0,1-9-4.75,25.09,25.09,0,0,1-10.92-15.48c-.29-1.2-.37-2.44-.57-3.91-4.05.65-7.95,1.21-11.83,1.93q-20.38,3.76-40.76,7.63c-5.84,1.13-11.54,2.83-16.58,6.14a22.93,22.93,0,0,0-4.67,4c-1.72,2-1.59,3.83.13,5.84.86,1,2,1.8,3,2.74a37.34,37.34,0,0,1,4.29,4.43c2.64,3.65,1.92,7.33-1.93,9.65a23.68,23.68,0,0,1-6.43,2.68,89.3,89.3,0,0,1-30.77,2.06A65.71,65.71,0,0,1,206,476a15.75,15.75,0,0,1-6.9-4.1A7.94,7.94,0,0,1,197.6,462c.59-1.11,1.39-2.09,2.09-3.14,2.39-3.6,1.82-5.46-2.16-7a8.87,8.87,0,0,0-1.79-.57c-2.66-.41-5.32-1-8-1.12-6-.32-12-.34-18.06-.63-6.37-.3-12.74-.72-19.1-1.2-7.7-.59-15.4-1.31-23.09-1.94-1.22-.09-2.44,0-4,0,.7.8,1.12,1.34,1.6,1.82,2.85,2.87,5.72,5.73,8.58,8.59A194.68,194.68,0,0,1,153.77,481a44,44,0,0,1,3,5.12,2.4,2.4,0,0,1-.4,3,2.53,2.53,0,0,1-3,.48c-1.14-.51-2.28-1-3.39-1.62-1.67-.88-3.29-1.87-5-2.68a18.66,18.66,0,0,0-3.18-.81,14.93,14.93,0,0,0,.88,2.77,19.64,19.64,0,0,0,2.33,3.3,84,84,0,0,0,21.45,16.58,14.25,14.25,0,0,0,6.72,1.78,4.69,4.69,0,0,0,4.77-2.83c.19-.41.37-.82.57-1.22a4.72,4.72,0,0,1,4.56-2.76,11.79,11.79,0,0,1,6.61,2c3.83,2.5,7.66,5,11.27,7.85,7.59,5.91,15,12,22.53,18,1.31,1.05,2.59,2.14,4,3.28a10.16,10.16,0,0,1,6.38-4.05,40.69,40.69,0,0,1,6.08-1.14c5.72-.55,11.45-1,17.19-1.4a37.15,37.15,0,0,1,13.34,1.41c3,.9,5.75,2.32,7.39,5.07a4.88,4.88,0,0,0,4.61,2.65c1,0,2,0,3,0q9-.62,18-1.3c.26,0,.5-.23,1.13-.54-1.82-.49-3.2-.85-4.57-1.23a17.71,17.71,0,0,1-2.31-.72c-1.36-.59-2.61-1.35-2.63-3.07s1-2.43,2.28-3.06a12.62,12.62,0,0,1,2.73-1.11c3.75-.91,7.49-1.91,11.28-2.58,5.57-1,11.28-1.29,16.76-2.59C340.28,516.75,352.39,513.42,364.61,510.25ZM534.84,351a10.74,10.74,0,0,0,1.61-.67c8.67-5.69,17.06-11.63,22.49-20.88a116.13,116.13,0,0,1,8.36-11.89,13.39,13.39,0,0,1,4.33-3.54c3-1.54,5.7.15,5.88,3.48a26,26,0,0,1-.37,4.81c-.34,2.67-.89,5.32-1.13,8a3.08,3.08,0,0,0,1.67,3.4,3,3,0,0,0,3.76-1.34,32.88,32.88,0,0,0,3.37-5.78,40.9,40.9,0,0,0,3.2-18.7,32.79,32.79,0,0,1,6.67-22.5c2.61-3.54,5.15-7.15,7.77-10.69a6.64,6.64,0,0,0,1.44-3.68c.26-4.66.71-9.32.87-14A286,286,0,0,0,601,197.17c-1.51-8.58-3.43-17.08-5.24-25.6-.46-2.14-.6-2.24-2.72-2q-5.62.53-11.23,1.33a6.7,6.7,0,0,0-5.85,5.27,27.75,27.75,0,0,0-.74,6.92c.09,5.93,2.09,11.42,4.25,16.88a39.47,39.47,0,0,1,2.61,9c.87,6.59-1.06,12.34-6.58,16.41-5.24,3.88-11,2.25-13.3-3.87a39.84,39.84,0,0,1-1.68-8.4c-.33-2.39-.21-4.85-.54-7.25-.68-5-2.6-9.44-6.84-12.39-6.93-4.82-9.93-3.29-14,1.43-2.29,2.64-4.34,5.5-6.43,8.31a80.87,80.87,0,0,1-14.43,15.59,97.84,97.84,0,0,1-26.55,15.45,10.78,10.78,0,0,0,.2,1.81,130.37,130.37,0,0,0,15.45,34.28,16.9,16.9,0,0,0,2.2,2.72,9.23,9.23,0,0,0,5.23,2.56,3.89,3.89,0,0,0,4.55-2c1-1.82,1.81-3.72,2.82-5.52a47.32,47.32,0,0,1,3.9-6.42c2.82-3.6,6.72-4.88,11.24-4.52,5.4.43,9.24,3.22,11.93,7.73a28.53,28.53,0,0,1,3.65,15.81A23.57,23.57,0,0,1,550,292a11,11,0,0,1-7.89,5.52,17.81,17.81,0,0,1-8.25-.53c-3.43-1-5.85.19-7.84,3.06a27,27,0,0,0-4.8,20.95c1.95,10.75,6.74,20.21,13,29.05ZM377.34,27.14c.35,1.06.56,1.93.92,2.73,1.24,2.78,2.36,5.65,3.86,8.29a32,32,0,0,0,4.6,6.28c3.44,3.61,7.49,4,11.69,1.23a22.33,22.33,0,0,0,3.09-2.59c1-.92,1.83-2,2.78-2.93,3.58-3.57,6.72-4,10.83-1.09A47.89,47.89,0,0,1,427.6,51.6a18.46,18.46,0,0,1,1.88,3.57c2,5.17.25,9.44-5,11.21A42.12,42.12,0,0,1,415.8,68a56.1,56.1,0,0,1-6.74,0,3.59,3.59,0,0,0-3.77,2.82,10.24,10.24,0,0,0,0,7.39,70.79,70.79,0,0,0,4.56,9.14c5.87,9.42,13.16,17.75,20.61,25.94a2.41,2.41,0,0,0,3.06.77c9.07-3.69,18.2-7.23,27.2-11.08a46.65,46.65,0,0,0,7.75-4.81c2-1.36,3.78-3.07,5.8-4.39a15,15,0,0,1,11.31-2.38c6.77,1.26,9,3.14,10.12,9.94.69,4.2,3.2,7,8.22,8,5.41,1.09,10.3-.68,15-3.16a5.74,5.74,0,0,0,2.05-2.42,8.16,8.16,0,0,0-1.43-9.26,28.31,28.31,0,0,0-3.33-2.71c-2.62-2.06-2.87-4.63-.37-6.83a19.75,19.75,0,0,1,5-3.16c4-1.76,8.16-3.28,12.24-4.91,1.41-.56,2.79-1.16,4.42-1.84a19.94,19.94,0,0,0-1.09-3.44c-2.38-4.43-4.74-8.87-7.32-13.18a23.48,23.48,0,0,0-6.19-7.06,3.58,3.58,0,0,1-1.18-1.72,59.78,59.78,0,0,1-2.07-7.25A4.83,4.83,0,0,0,518,39.57c-3.65-3.2-7.22-6.49-11-9.58a192.12,192.12,0,0,0-38.6-25A6.13,6.13,0,0,0,465.14,4c-5.31.91-10.6,2-15.51,4.35a19,19,0,0,0-2.41,1.72c1.63,1.2,2.87,2.21,4.2,3.07,2,1.32,4.22,2.43,6.2,3.82,4.88,3.44,4.66,7.27-.57,10.15a35.69,35.69,0,0,1-11.95,4c-6,.92-10.92-1.38-13.69-6.77a37,37,0,0,1-2.57-6.78A4.85,4.85,0,0,0,424,13.66a37.41,37.41,0,0,0-6.44.3c-5.19.73-10.08,2.55-15,4.32-7.44,2.69-14.92,5.22-22.38,7.83C379.3,26.42,378.4,26.76,377.34,27.14ZM94.13,186.9c1.12-.28,2-.48,2.83-.71a108.3,108.3,0,0,1,23.58-4c4.49-.19,9-.45,13.47-.59A138.75,138.75,0,0,1,158.19,183a25,25,0,0,1,5.21,1.28c3.65,1.39,4.63,4.29,2.51,7.54a39.56,39.56,0,0,1-4,4.73c-1.57,1.73-3.31,3.31-4.81,5.09-2.22,2.65-2.14,4.24.53,6.41,4.21,3.42,9,5.64,14.55,5.6,8.12-.06,15.48-2.9,22.39-6.93,3.27-1.91,3.42-3.87.87-6.79-1.24-1.41-2.73-2.6-4.08-3.91-5-4.92-5.23-11.4-.49-16.6a20.86,20.86,0,0,1,9.94-6.2c5.1-1.42,10.22-2.85,15.42-3.8,14.65-2.7,29.35-5.16,44-7.72,2-.35,4-.73,6-1.1a8.48,8.48,0,0,0-.09-1.12c-2.48-9.19-4.85-18.41-7.51-27.55a28.12,28.12,0,0,1-1.41-10.06c.2-2.5.6-5,.89-7.49.12-1,.18-2.06.29-3.39-2.23.42-4.07.73-5.9,1.11-9.24,1.89-18.48,3.74-27.91,4.36a34.47,34.47,0,0,1-7.24-.39c-2.61-.38-3.7-1.67-4-4.29a7.42,7.42,0,0,0-3.06-5.49,19.16,19.16,0,0,0-5.39-2.94c-7.95-2.34-15.13-.52-21.33,4.83a13.7,13.7,0,0,0-3.43,5c-1.48,3.53-.38,6.73,2.59,9.08a13.58,13.58,0,0,1,2.34,2.2,4.35,4.35,0,0,1-.29,6.11,10.62,10.62,0,0,1-3,2.23,36.1,36.1,0,0,1-5.49,2.19,110.47,110.47,0,0,1-20.89,3.86,106.38,106.38,0,0,1-23.93-.06c-5-.63-9.93-1.47-15-1.09a6.79,6.79,0,0,1-5.15-2,4.67,4.67,0,0,0-6.54-.1,12.08,12.08,0,0,0-2.54,3.11c-3.38,6.16-6.32,12.53-7.54,19.52a87,87,0,0,0-1,8.83A107.1,107.1,0,0,0,94.13,186.9ZM19.06,297.22c.06-1.4.12-2.11.13-2.81,0-3.87,0-7.74.14-11.6.27-6,4.27-10.33,9.94-10.94,11.13-1.2,23.34,9.11,18,22.52a37,37,0,0,0-2,7.26c-1.35,7.67,1.23,13.78,7.72,18.16a32.87,32.87,0,0,0,10.09,4.38,104.58,104.58,0,0,0,24.78,3.2c1.6,0,3.2,0,4.89,0a13.52,13.52,0,0,0,.25-1.8c-.48-14.83-.94-29.65-1.5-44.46a37.24,37.24,0,0,0-1-7.2c-.77-3.24-2.82-4.45-6-3.63a31.12,31.12,0,0,0-5.77,2.18c-1.76.87-3.37,2.06-5.06,3.07-3.74,2.23-7,1.48-9.12-2.32a22.35,22.35,0,0,1-2.11-5.5,85.13,85.13,0,0,1-2-22.22,18.16,18.16,0,0,1,1.38-6.27c2.49-6.27,8.33-8.37,14.31-5.28a33.71,33.71,0,0,1,3.38,2.2c3.49,2.36,5.44,1.93,7.18-1.95a30.47,30.47,0,0,0,2.5-7.65,140.32,140.32,0,0,0,1.63-26.06c-.1-2.72.08-5.59-1.28-8.16a9.33,9.33,0,0,0-1.68-.28q-8.2.17-16.41.38c-3.68.1-7.37.45-11,.29-7.13-.33-10.61-5.52-8.42-12.31.43-1.36,1.2-2.62,1.67-4a58.19,58.19,0,0,0,2-6.67,10.56,10.56,0,0,0-1.12-7.06,4.87,4.87,0,0,0-5-2.94A10.22,10.22,0,0,0,42.46,163c-2.65,2.85-4.36,6.08-4.15,10.18.19,3.49.25,7,.11,10.51A10.23,10.23,0,0,1,34,192.24a16.39,16.39,0,0,1-7.81,2.69c-3.4.32-6.32-.83-9.17-2.56a17.83,17.83,0,0,0-5.12-2.2c-2.23-.5-2.78,0-3.05,2.24-1.11,8.91-2.32,17.82-3.19,26.75a303.75,303.75,0,0,0-1.36,38.51c.2,6.2.48,12.39.8,18.58.09,1.77.21,3.54,1.43,5.09,3.62,4.58,7.14,9.25,10.71,13.87C17.66,295.77,18.17,296.25,19.06,297.22Zm95.45,143c-.78-1.28-1.24-2-1.68-2.77-2.1-3.66-4.29-7.27-6.25-11A34.22,34.22,0,0,1,103.17,416c-1.2-7.37,1.74-12.9,8.59-15.83a32.94,32.94,0,0,1,5.62-1.83,10.64,10.64,0,0,1,10.21,2.78,41.36,41.36,0,0,1,3.19,3.3c3.6,4.29,8.25,4.78,13.26,3.58,4.47-1.06,6.45-4.13,5.63-8.64a27.65,27.65,0,0,0-1.87-6.17c-2.42-5.47-5.46-10.56-10.42-14.17-3.85-2.8-7-2.79-10.94-.19a52,52,0,0,1-4.52,2.93,55.72,55.72,0,0,1-8,3.73c-5.33,1.79-9.89.26-13.55-4a17.29,17.29,0,0,1-3.93-7,85.83,85.83,0,0,1-2-9.47,218.42,218.42,0,0,1-1.5-30.68c0-.94-.15-1.88-.25-3.1-1.25,0-2.22,0-3.19,0a121.64,121.64,0,0,1-24.07-2.59c-5.84-1.3-11.43-3.19-16.21-6.95a20.05,20.05,0,0,1-7.89-13.91,29.86,29.86,0,0,1,1.64-12.72c.49-1.54,1.1-3.05,1.47-4.61a10.42,10.42,0,0,0-2.08-9.4,13.72,13.72,0,0,0-12.58-5.34A6.79,6.79,0,0,0,23.33,282a26.69,26.69,0,0,0-.16,3c-.11,4.59-.2,9.17-.33,13.75a9.08,9.08,0,0,1-.34,2.66,2.23,2.23,0,0,1-3.63,1.27,12.78,12.78,0,0,1-2.5-2.43c-2.66-3.28-5.25-6.62-7.88-9.93-.47-.59-1-1.11-1.52-1.67-.18.1-.35.21-.52.32C12.53,341.41,32.92,388,65.12,429.64a14.37,14.37,0,0,0-1.1-2.31c-2-3.79-4.28-7.5-6-11.42a31,31,0,0,1-2.29-8c-.72-4.5,1.68-7.67,6.1-8.7a14.52,14.52,0,0,1,7.46.27,24.74,24.74,0,0,1,12.53,8.91c3,3.72,3.87,8,3.71,12.63-.28,7.53,1.83,10.44,9.07,13.51a2.6,2.6,0,0,0,.25.1c5.65,1.77,11.3,3.55,17,5.29A19.69,19.69,0,0,0,114.51,440.27ZM90,188.12c0-1.4,0-2.46,0-3.52,0-6.56-.19-13.12.06-19.66.39-10.4,4.09-19.82,9.28-28.68a14.08,14.08,0,0,1,4-4.25,8.4,8.4,0,0,1,10.44.63,4.59,4.59,0,0,0,2.6,1.14c4.31.05,8.61-.19,12.57-2.18,3.24-1.63,5.62-4.13,6.1-7.74a83.32,83.32,0,0,0,.8-12.62c-.07-4.46-3.43-6.72-7.74-5.71-1.74.42-3.47,1-5.24,1.21a8.06,8.06,0,0,1-9.25-7.29,20.11,20.11,0,0,1,0-2.69c.24-4.29,1.85-8.2,3.47-12.11.36-.89.75-1.77,1.3-3.07a21.51,21.51,0,0,0-4.09.33c-2.48.74-4.91,1.68-7.34,2.6-3.18,1.22-6.3,2.61-9.54,3.68a11.39,11.39,0,0,1-4.51.39,3.51,3.51,0,0,1-3.09-4.88,17.75,17.75,0,0,1,1.86-3.23A31.81,31.81,0,0,0,94,76.56c.85-2,.23-3-1.86-3.6a17,17,0,0,0-7.21-.13,7.64,7.64,0,0,0-6.75,5.72c-.61,2-1.24,3.94-2,5.87a14.26,14.26,0,0,1-7,7.86,23.88,23.88,0,0,1-19.06,1.59l-2.41-.81C27.9,121.11,14.8,151.72,10,186.12a16.36,16.36,0,0,1,9.44,3.14c3.5,2.51,7.23,2.26,11,.6a6.23,6.23,0,0,0,3.95-5.06,46.45,46.45,0,0,0,.3-5.9c0-2-.16-4-.24-5.92-.23-5.45,2.26-9.71,6-13.34a13.93,13.93,0,0,1,9.31-3.74,7.7,7.7,0,0,1,7.37,3.63,17.69,17.69,0,0,1,2.32,5.94,19.86,19.86,0,0,1-2,12.29,28.8,28.8,0,0,0-2,5c-.78,3,.55,5.17,3.56,5.88a18,18,0,0,0,4.8.46c6.73-.26,13.46-.66,20.19-1C85.84,188.05,87.72,188.12,90,188.12ZM537,354.69c3.32,6.69,3.22,13.64,1.62,20.58-2,8.72-6.07,16.7-9.82,24.75a11.56,11.56,0,0,1-6.88,5.77c-2.53.9-5.15,1.53-7.75,2.23-4.07,1.11-8.21,2-12.2,3.3a13.56,13.56,0,0,0-8.41,7.88,29.77,29.77,0,0,0-2.4,12.35c.09,3.62,1.43,4.48,4.82,3.17a11.58,11.58,0,0,0,1.95-.92c1.91-1.17,3.81-2.38,5.68-3.61,2.93-1.94,5.89-3.87,9.34-4.72a14.58,14.58,0,0,1,4.51-.37,3.81,3.81,0,0,1,3.5,3.81,9,9,0,0,1-1.39,5.13,35.26,35.26,0,0,1-7.69,9.32,44.88,44.88,0,0,0-12.13,16.95c-.21.52-.36,1.07-.68,2,1.23-.78,2.08-1.27,2.88-1.83q7.63-5.33,15.26-10.66c1.67-1.17,2.84-1.15,3.63.27a4.67,4.67,0,0,1,.51,2c.08,1.39,0,2.79,0,4.4.54-.49,1-.87,1.42-1.31,17.15-18,32.24-37.53,43.79-59.58A338.63,338.63,0,0,0,602,288.11c.31-2.06.49-4.14.72-6.22l-.62-.21c-2,2.92-4.14,5.79-6.08,8.78a27.81,27.81,0,0,0-4.18,16.19,69.31,69.31,0,0,1-.33,9.67,40.09,40.09,0,0,1-5.05,15.81,12.33,12.33,0,0,1-4.55,4.87,6.3,6.3,0,0,1-9.42-4.27,12.13,12.13,0,0,1-.18-3.75c.38-3.12.94-6.22,1.38-9.33a14.71,14.71,0,0,0,0-2.12c-2.23,1-3,1.49-4.85,4.16-2.85,4-5.43,8.26-8.26,12.31a43.54,43.54,0,0,1-5.23,6.47,88.56,88.56,0,0,1-17.21,13.37A13.86,13.86,0,0,0,537,354.69ZM68.48,434.22c40,53.26,91.87,87.72,156.58,102.76a36.34,36.34,0,0,0-4.39-4.21q-10.59-8.57-21.24-17c-2.82-2.23-5.7-4.38-8.66-6.42a28.94,28.94,0,0,0-5-2.7c-2.71-1.17-3.55-.94-4.68,1.55-1.41,3.12-4.09,4.59-7.59,4.63a20.42,20.42,0,0,1-10.71-3.18A94.59,94.59,0,0,1,146,497.1a51.14,51.14,0,0,1-5.59-6.18,12.36,12.36,0,0,1-2.13-4.59c-.88-3.77,2-6.44,5.67-5.42a39.06,39.06,0,0,1,4.71,2c.6.26,1.19.55,1.78.82a9.16,9.16,0,0,0-1.58-3c-9.23-12.84-20.3-24-31.73-34.84a7,7,0,0,0-3.3-1.57,124.35,124.35,0,0,1-20.1-6,34.06,34.06,0,0,1-6.19-3.23,12.31,12.31,0,0,1-5.69-9.9c-.15-2.42-.11-4.86-.38-7.27a13.44,13.44,0,0,0-1.22-4.62,20.24,20.24,0,0,0-11.07-9.77,9.88,9.88,0,0,0-6.59-.48c-2.48.76-3.38,1.71-3,4.3A29,29,0,0,0,61.33,414a78.31,78.31,0,0,0,8.41,15,17.61,17.61,0,0,1,1.32,2,1.8,1.8,0,0,1-.93,2.68A8.58,8.58,0,0,1,68.48,434.22ZM367.61,526.4a6.54,6.54,0,0,0,1.87.17,51.48,51.48,0,0,0,5.17-1.45,54.46,54.46,0,0,1,16-3.64,17.36,17.36,0,0,1,5.57.57c2.86.85,3.69,3.63,1.88,6a8.46,8.46,0,0,1-3.1,2.5,37.13,37.13,0,0,1-7.33,2.58c-5.36,1.1-10.79,1.82-16.18,2.8a26.06,26.06,0,0,0-5.1,1.54c-.44.18-.74,1.16-.75,1.78,0,.26.91.68,1.44.76a5.48,5.48,0,0,0,1.87-.2c4.83-1,9.67-2,14.48-3.08,16-3.62,31.65-8.14,46.64-14.86,30.85-13.83,58-33.1,82.48-56.25,3.14-3,4-6.56,4.83-10.88-1.09.69-1.82,1.15-2.54,1.63q-8.94,6-17.9,12.05a15.85,15.85,0,0,1-2.57,1.45c-1.72.73-3.54,1.25-5.22,2.05-6.9,3.28-13.74,6.67-20.65,9.93a48.81,48.81,0,0,1-7.51,3,22.41,22.41,0,0,1-6.62.84c-3-.08-4.63-2.33-4.21-5.32.07-.5.14-1,.2-1.47a3.49,3.49,0,0,0-.85-.49,12.88,12.88,0,0,0-2.14-.18,51.12,51.12,0,0,0-21.6,5,25,25,0,0,0-4.12,2.55c-2.93,2.2-2.9,2.89,0,5,2.61,1.89,2.84,4.38.45,6.56a13.3,13.3,0,0,1-3.57,2.37,57.77,57.77,0,0,1-8.51,3.34c-11.88,3.17-23.81,6.14-35.72,9.19-1.28.33-2.54.7-3.89,1.07,0,2.45.34,4.74-.1,6.86S368.58,524.18,367.61,526.4ZM157.59,9.5a7.43,7.43,0,0,0-6.29,1.83c-2.74,2.32-5.52,4.61-8.41,6.73a7.9,7.9,0,0,1-3.71,1.4c-2.2.23-3.28-1.59-2.25-3.56.41-.78,1-1.45,1.54-2.2a23.52,23.52,0,0,0,1.82-3c.65-1.42.29-2.17-1.16-2.72a6.36,6.36,0,0,0-1.84-.33A13,13,0,0,0,129,10.24c-2.24,1.5-4.37,3.18-6.7,4.51-2.09,1.2-3.1,2.55-2.85,5.12.35,3.62-1.4,6.24-4.88,7.52-2.36.86-4.74,1.7-7.15,2.39a23,23,0,0,0-10.61,6.14C91.87,41.06,87,46.19,82.26,51.5c-1.63,1.85-2.65,4.23-3.91,6.4s-2.46,4.59-3.85,6.79a17.81,17.81,0,0,1-5.22,5.37,27.42,27.42,0,0,0-5.08,4C59.7,78.92,55.39,84,51,89a3.35,3.35,0,0,0-.29.87A17,17,0,0,0,61,91c6.09-1,10.85-3.74,12.46-10.27A37.07,37.07,0,0,1,75,76.13a9.94,9.94,0,0,1,4.81-5.61,19.29,19.29,0,0,1,14.44-.91c3.43,1,4.87,4.1,3.62,7.53a38.61,38.61,0,0,1-3.09,5.62c-.36.63-.76,1.23-1.14,1.85l.42.52c1.69-.48,3.43-.84,5.06-1.48,3.26-1.29,6.45-2.75,9.68-4.1a19.29,19.29,0,0,1,9.72-1.67,2.59,2.59,0,0,0,2.88-1.35c4.42-7.19,8.94-14.33,13.27-21.58A30.6,30.6,0,0,0,137,49c.43-1.28.79-2.81-.4-3.79s-2.56-.21-3.82.27a31.43,31.43,0,0,1-3.79,1.4c-3.82,1-6.58-1-7.1-4.88a26.87,26.87,0,0,1-.1-2.69c-.2-8.05,9-14.83,17.06-10.39a28.51,28.51,0,0,0,2.65,1.33c2.68,1.13,3.6.63,4.82-1.95A92.53,92.53,0,0,1,150.79,20c1.6-2.6,3.48-5,5.18-7.56C156.55,11.58,157,10.62,157.59,9.5ZM394.77,525.55a14,14,0,0,0-2.76-.36,40,40,0,0,0-6.39.82c-3.65.91-7.24,2.07-10.83,3.19-2.32.72-4.61,1.56-7.1,1.33-2.81-.26-4.43-2.28-3.75-5a20.61,20.61,0,0,1,1.9-4.41,7.52,7.52,0,0,0,.13-7.22,14.93,14.93,0,0,0-1.75.25c-5.61,1.6-11.21,3.22-16.82,4.81a169.51,169.51,0,0,1-27.08,5.8c-5.68.66-11.3,2-16.93,3.07a17,17,0,0,0-2.37.82,10,10,0,0,0,2.87,1.2c2.13.69,4.27,1.36,6.35,2.19a2.78,2.78,0,0,1,2,2.92c-.15,1.46-1.28,2.13-2.53,2.47a21.12,21.12,0,0,1-3.7.67q-6.17.55-12.35,1c-3.94.26-7.88.56-11.82.62-2.72,0-5.19-.87-6.6-3.43a9.28,9.28,0,0,0-6.4-4.54,35.3,35.3,0,0,0-7.7-1.09c-4.57,0-9.16.22-13.72.59-3.83.32-7.66.91-11.46,1.53a12.28,12.28,0,0,0-3.76,1.39c-.46.25-1,1.34-.82,1.67.92,1.66,1.62,3.54,3.93,4a306,306,0,0,0,33,5c6.26.57,12.54.91,18.81,1.31a264.29,264.29,0,0,0,35.82-.4c9.66-.7,19.29-2,28.92-3.07,3.26-.38,6.49-1,9.68-1.55,0-5.22,1.42-7.13,6.12-8.4a14.4,14.4,0,0,1,1.59-.31c3.64-.54,7.3-.93,10.91-1.64,3.78-.74,7.51-1.72,11.23-2.73A4.8,4.8,0,0,0,394.77,525.55ZM541.5,64.82a236.89,236.89,0,0,0-16.4-18.34c-.3,1.41.48,2.07,1.25,2.85a34.24,34.24,0,0,1,4.14,4.56c2.26,3.23,4.29,6.61,6.4,9.94.47.72.91,1.47,1.4,2.27Z"/><path class="cls-1" d="M298.56,304.47A20.07,20.07,0,0,1,301,304c7.79-.59,15.6-1,23.38-1.74,14-1.34,28.1-2.61,41.6-7.05A73.75,73.75,0,0,0,378,289.92a23.94,23.94,0,0,0,6.35-5.32c3.07-3.49,3.7-7.67,2.29-12.13a20.69,20.69,0,0,0-6.29-9.56,22.78,22.78,0,0,0-2.74-2.18c-3.14-2-4-4.78-3.6-8.33a16,16,0,0,1,6.08-10.74,35.91,35.91,0,0,1,12.23-6.09,79.48,79.48,0,0,1,21.16-3.77,32.44,32.44,0,0,1,8.77,1c3.33.84,4.54,3.07,3.7,6.38-.79,3.12-1.94,6.15-3,9.21a24.28,24.28,0,0,1-1.18,2.72c-2.81,5.76,0,9.42,6,11.2,2.48.74,5,.23,7.46-.33,6.72-1.53,12.85-4.55,19-7.59a256.79,256.79,0,0,0,31.33-17.92,23,23,0,0,1,2-1.08c.43,1.27.84,2.35,1.16,3.45a135.31,135.31,0,0,0,14.6,32.34c2.52,4.2,5.77,7.27,10.78,8.19,3.38.62,6.07-.35,8-3.14a45.54,45.54,0,0,0,2.61-4.7c1-2,1.95-4.06,3.11-6,4.35-7.14,12.78-5.39,16.31-1.17a17.4,17.4,0,0,1,2.62,4.06A25.82,25.82,0,0,1,548,286.9c-1.77,5.87-5.51,8-11.57,6.74-1.06-.21-2.1-.47-3.16-.66-3.55-.63-6.65.19-9,3-5.49,6.78-8.34,14.41-7.24,23.26,1.44,11.52,6.37,21.63,12.66,31.18.53.82,1.07,1.63,1.4,2.13-3.75,3.67-7.57,7-10.87,10.72-8.14,9.28-18.32,15.17-29.87,19a90.31,90.31,0,0,1-24.2,5c-4.37.22-4.83-.53-3.15-4.55.52-1.24,1.18-2.42,1.74-3.65a12.89,12.89,0,0,0,1.4-7.05c-.67-4.86-3.72-7.65-8.24-8.94a23.68,23.68,0,0,0-12.53.13,74.58,74.58,0,0,0-32.42,18,23.3,23.3,0,0,0-4.9,6.69c-2.73,5.54-.3,10.67,5.59,12.55a35.48,35.48,0,0,1,4.08,1.36c1.65.76,2,1.71,1.67,3.52a8.72,8.72,0,0,1-2.57,4.64,37.47,37.47,0,0,1-9.62,6.85,76.34,76.34,0,0,1-24.59,7.65c-16,2.35-32,2.6-48.14,1.86-2.16-.1-4.32-.21-6.47-.19a4.24,4.24,0,0,1-3.33-1.44,18.67,18.67,0,0,1-4.51-8.18,39.19,39.19,0,0,1,.17-20.78,14.65,14.65,0,0,1,8.4-10c5-2.22,10.07-4.32,15.21-6.21,3.62-1.34,7.47-.86,11.22-.49,2.95.29,5.86.85,8.8,1.24a17.26,17.26,0,0,0,2.69.13c4.95-.14,7.76-2.71,8.52-7.65a27.1,27.1,0,0,0-.89-10.94,56.75,56.75,0,0,0-8.78-18.68,18.58,18.58,0,0,0-1.16-1.49c-4.62-5.45-10.11-6.7-16.34-3.28a50.49,50.49,0,0,0-8.51,6.11c-3.07,2.63-5.84,5.6-8.71,8.45a25.5,25.5,0,0,1-7.57,5.54,11,11,0,0,1-12.33-1.74,21.94,21.94,0,0,1-5.46-7.28,49.63,49.63,0,0,1-4.06-13.93,244.06,244.06,0,0,1-2.83-28.68C298.52,306.17,298.56,305.46,298.56,304.47Z"/><path class="cls-2" d="M297.6,300.33c.22-3,.43-5.75.62-8.51.53-7.93.26-15.82-1.94-23.52-2-6.95-5.85-12.61-12.48-15.81-8.34-4-16.37-3.07-23.94,2.22a77,77,0,0,1-7.16,4.79c-7.27,3.94-12.36,2.4-16.35-4.89a43,43,0,0,1-5.17-17.44c-.8-10.41,4.58-18.42,14.06-21.31a14.49,14.49,0,0,1,8-.08c4,1,7.9,2.44,12.11,2.48a22.1,22.1,0,0,0,7.93-1.24,6.67,6.67,0,0,0,4.69-5.12,45.16,45.16,0,0,0,.85-9.34c-.29-8.19-1.91-16.22-3.77-24.19-1.07-4.63-2.26-9.23-3.45-14.07a17.44,17.44,0,0,1,2.38-.58c7.5-.78,15-1.43,22.51-2.29,11.8-1.36,23.46-3.47,34.49-8.09a69.71,69.71,0,0,0,8.85-4.55,13.14,13.14,0,0,0,3.67-3.5,4.59,4.59,0,0,0-.73-6.54,22.09,22.09,0,0,0-4.25-2.82c-2.38-1.26-4.88-2.3-7.27-3.55a23,23,0,0,1-3.84-2.46c-2.61-2.13-3.25-4.49-1.9-7.71a25.54,25.54,0,0,1,12.94-13.88c9.11-4.22,18.43-4.11,27.77-.65a11.57,11.57,0,0,1,1.92,1c2.31,1.38,2.51,1.94,1.88,4.6-.74,3.14-1.47,6.29-2.11,9.45a13.28,13.28,0,0,0-.1,3c.11,5.19,3.06,8.36,8.29,8.14a63.27,63.27,0,0,0,11.4-1.83c13.57-3.16,26.81-7.47,40.06-11.72.68-.22,1.37-.42,2.18-.67.59.51,1.21,1,1.78,1.56a57.56,57.56,0,0,1,14.91,24,16.62,16.62,0,0,1,.79,3.4c.34,3-.51,4.06-3.51,4-2.14-.06-4.26-.6-6.41-.75a23.39,23.39,0,0,0-5.61,0c-5.16.9-8.2,4.11-9.29,9.23a26.21,26.21,0,0,0,.16,10.44,55,55,0,0,0,5.85,17,35,35,0,0,0,5.52,7.57c4.45,4.46,9.7,4.73,14.94,1.25a31.22,31.22,0,0,0,7.68-7.87c1.07-1.45,2.07-3,3.25-4.3,5-5.66,9.68-5.7,14.76-.1a23.13,23.13,0,0,1,3.38,4.53c2.11,3.95,4.14,8,5.89,12.09.75,1.76.77,3.85,1,5.8.93,7,1.8,14.07,2.76,21.1a2.62,2.62,0,0,1-1.33,2.89,265.53,265.53,0,0,1-43.11,23.82,77.75,77.75,0,0,1-10.77,3.36,7,7,0,0,1-5.7-.85c-2.11-1.32-2.47-2.15-1.62-4.46.47-1.26,1.16-2.45,1.57-3.72,1.14-3.5,2.39-7,3.2-10.55a7.65,7.65,0,0,0-4.55-9.1,22.91,22.91,0,0,0-7.25-1.8,62.56,62.56,0,0,0-21.85,2.41,116.91,116.91,0,0,0-12,4.07,24.8,24.8,0,0,0-8.8,6.11A19.21,19.21,0,0,0,370,255.52a8.68,8.68,0,0,0,2.86,6.2c1.32,1.21,2.74,2.32,4.15,3.44a18,18,0,0,1,5.83,8.25,8.82,8.82,0,0,1-1.87,9.28,22.49,22.49,0,0,1-7.13,5.24,78.76,78.76,0,0,1-20.18,6.54,254.23,254.23,0,0,1-29.09,3.86q-12.21,1-24.44,2C299.46,300.38,298.74,300.33,297.6,300.33Z"/><path class="cls-1" d="M321.81,427.64c-4.79.79-9.28,1.51-13.77,2.27-14.7,2.49-29.4,5-43.87,8.61a40.47,40.47,0,0,0-13,5.69,24.71,24.71,0,0,0-5.37,4.83c-2.53,3.14-2.42,6.74.07,9.93a42.39,42.39,0,0,0,3.65,3.56,41.42,41.42,0,0,1,3.9,4.06c1.12,1.49.9,2.67-.65,3.69a14.31,14.31,0,0,1-4.6,2.15A103.1,103.1,0,0,1,236,474.61c-6.08.64-12.21,1.11-18.29.08-3.53-.6-7-1.47-10.48-2.36a12.3,12.3,0,0,1-3.15-1.5c-4.15-2.47-4.64-4.91-1.89-8.82a23,23,0,0,0,1.87-3c2-4.11.94-7.57-3.06-9.81a22.4,22.4,0,0,0-9-2.54c-3.58-.34-7.17-.41-10.76-.6-9-.48-17.95-.9-26.92-1.46-8-.51-16-1.18-23.92-1.79-2.51-.19-5-.41-7.52-.64a3.91,3.91,0,0,1-3-1.54c-4.64-6.22-8.87-12.66-11.51-20a21.56,21.56,0,0,1-1.42-8.72,8.38,8.38,0,0,1,4.21-7.1,19.54,19.54,0,0,1,7.81-2.79,7.3,7.3,0,0,1,6.56,2.38c.92,1,1.87,1.95,2.76,3,5.53,6.26,13.82,6,19.57,3.35,4.25-2,6-5.57,5.78-10.09a20.91,20.91,0,0,0-1-5.56A41.07,41.07,0,0,0,142.15,378a21.07,21.07,0,0,0-4.32-3.19,11.81,11.81,0,0,0-12.77.34c-1.22.77-2.36,1.66-3.59,2.4-1.85,1.11-3.69,2.24-5.63,3.18-6.14,3-11,2.75-15.17-5.89a30.66,30.66,0,0,1-2.23-8.57c-1.69-11.24-1.81-22.56-1.68-33.9a2.35,2.35,0,0,1,1.92-2.5c11.07-3.52,22.26-6.75,33.95-6.83a74.71,74.71,0,0,1,28.72,5.24,22.6,22.6,0,0,1,5.08,3c1.9,1.47,2,2.59.73,4.66a32.59,32.59,0,0,0-4.57,10.87C161.2,354,164.68,359.1,172,360a55.7,55.7,0,0,0,9.4.33,164.58,164.58,0,0,0,26.19-3.14,31.12,31.12,0,0,0,7.85-2.73c5.46-2.79,6.44-7.6,2.71-12.53a49.93,49.93,0,0,0-4.07-4.3c-1.93-2-4-3.89-5.75-6.05-2.08-2.56-1.81-3.94,1-5.65a47.5,47.5,0,0,1,6.52-3.21,212.94,212.94,0,0,1,52.06-14.39c8.27-1.12,16.59-1.85,24.9-2.74a14.73,14.73,0,0,1,1.68.08c.16,1.58.39,3.16.47,4.73a205.39,205.39,0,0,0,2.8,26.53,54,54,0,0,0,3.75,13.18,26.16,26.16,0,0,0,6.49,9.19c5.22,4.53,11,5.27,17.3,2.44,3.5-1.58,6.29-4.12,9-6.79,3-3,6-6,9.16-8.76a35.35,35.35,0,0,1,6.89-4.66c4.15-2.15,7.69-1.5,10.63,2.13a46.78,46.78,0,0,1,10.59,25,14.65,14.65,0,0,1-.47,4.78c-.51,2.13-1.68,3.1-3.87,3-2.86-.09-5.71-.51-8.57-.76a87.24,87.24,0,0,0-9.92-.72,27.29,27.29,0,0,0-7.59,1.56c-3.4,1.12-6.68,2.62-10,4l-2.74,1.13a19.75,19.75,0,0,0-12.07,14.24,43.23,43.23,0,0,0-.14,20.57,25,25,0,0,0,4.46,9.44C321,426.38,321.3,426.89,321.81,427.64Z"/><path class="cls-1" d="M267.61,164.65c1.24,4.87,2.61,9.44,3.52,14.09,1.42,7.23,2.69,14.49,3.66,21.78.4,3.06-.05,6.26-.28,9.38-.15,2-1.38,3.15-3.32,3.78a18.27,18.27,0,0,1-10.36.16c-2.61-.65-5.21-1.33-7.82-2a15.57,15.57,0,0,0-7.73,0c-9.9,2.39-16.84,10.12-17.77,20.27-.89,9.76,1.87,18.69,7.08,26.85a13.46,13.46,0,0,0,9.33,6.31,15.12,15.12,0,0,0,7.9-1.14,37.32,37.32,0,0,0,9.65-5.85,19.58,19.58,0,0,1,9.23-4.14c7.57-1.13,13.56,1.56,18.17,7.52,2.94,3.82,4.21,8.32,4.91,13a91.41,91.41,0,0,1-.15,25c-.08.61-.28,1.21-.46,2-.79.11-1.56.27-2.35.32-26.18,1.7-51.59,6.88-75.9,16.94-2.07.86-4.12,1.8-6.12,2.82a16.69,16.69,0,0,0-3.13,2.08c-2.87,2.41-3.56,5.54-1.39,8.62a81.28,81.28,0,0,0,6.77,7.64c1.21,1.32,2.64,2.46,3.75,3.86,2.6,3.28,2,5.66-1.77,7.48a23.07,23.07,0,0,1-5.34,1.82,149.76,149.76,0,0,1-32.64,3.25,18.09,18.09,0,0,1-4.51-.67c-2.86-.84-4.4-2.81-4.24-5.8a23.92,23.92,0,0,1,1.33-6.54,34.19,34.19,0,0,1,3-5.73c2-3.57,1.68-6.77-1.56-9.34a29.53,29.53,0,0,0-6.23-3.68,62.28,62.28,0,0,0-15.29-4.21,82.52,82.52,0,0,0-15.55-1.3c-8.52.16-16.74,2-24.91,4.17-3.2.85-6.38,1.83-9.92,2.85A19.89,19.89,0,0,1,96.8,324c-.24-9.26-.36-18.52-.69-27.77-.22-6.47-.69-12.92-1.09-19.38a21.92,21.92,0,0,0-.41-2.66c-1.21-6.37-5.55-9.1-11.87-7.48a33.27,33.27,0,0,0-9.67,4.67c-3.54,2.3-4.75,2-6-2a42.07,42.07,0,0,1-2-8.92c-.47-4.91-.56-9.86-.7-14.8a11.24,11.24,0,0,1,1.77-6.41,5.54,5.54,0,0,1,7.23-2.38,16.24,16.24,0,0,1,2.37,1.25c.69.43,1.31.95,2,1.4,5.06,3.38,9.47,2.28,12.3-3.13a30.75,30.75,0,0,0,3.25-10.23,157.76,157.76,0,0,0,1.21-29.86c-.09-1.6-.45-3.19-.68-4.76,11-6.4,59.67-8.64,69.27-3a13.75,13.75,0,0,1-1.47,2.6c-1.54,1.76-3.28,3.34-4.84,5.07a43.47,43.47,0,0,0-3.92,4.78,6.06,6.06,0,0,0,.37,7.75,21.71,21.71,0,0,0,5,4.38A27.34,27.34,0,0,0,181,216.36a70.57,70.57,0,0,0,13.8-5.32,19.06,19.06,0,0,0,3.37-2.22c3.28-2.75,3.83-6.32,1.41-9.82a35.59,35.59,0,0,0-3.77-4.2c-.74-.78-1.63-1.42-2.34-2.22-2.76-3.08-2.9-6.52-.39-9.8a17.2,17.2,0,0,1,9.32-6.1c5.2-1.41,10.41-2.83,15.7-3.8,15.46-2.81,30.95-5.41,46.43-8.07A27.5,27.5,0,0,1,267.61,164.65Z"/><path class="cls-1" d="M533.09,356.52c2.11,2.56,2.37,5.26,2.55,7.92a37.8,37.8,0,0,1-3,17.12c-1.77,4.32-3.75,8.57-5.36,12.95-1.85,5.06-5.39,7.87-10.53,9-3.87.83-7.71,1.75-11.55,2.69a39.27,39.27,0,0,0-4.35,1.39,18.25,18.25,0,0,0-11.74,12.48,64.32,64.32,0,0,0-1.86,10,12.57,12.57,0,0,0,.52,4.78,5.45,5.45,0,0,0,6.85,4.11,33.15,33.15,0,0,0,6.92-2.87c2.13-1.13,4-2.79,6.11-3.94a74.24,74.24,0,0,1,7.34-3.28c.49-.21,1.57-.14,1.68.12a2.43,2.43,0,0,1,0,2,33,33,0,0,1-3.33,5.19,68.65,68.65,0,0,1-5.82,6A43.49,43.49,0,0,0,497.47,456c-1.23,2.7-2.59,5.33-3.81,8a4.85,4.85,0,0,1-2.52,2.6c-8.28,3.94-16.5,8-24.79,11.91a63,63,0,0,1-7.54,2.88,6.17,6.17,0,0,1-4.84-.06c.15-.57.3-1.06.42-1.56.61-2.59-.24-4.24-2.83-4.91a17.33,17.33,0,0,0-5.06-.61,56,56,0,0,0-21.39,4.94,46.57,46.57,0,0,0-6.42,3.93,9.94,9.94,0,0,0-2.39,2.53c-1.87,2.73-1.32,5.35,1.41,7.21.52.35,1.06.66,1.67,1-.37,1.37-1.54,1.81-2.54,2.2a107.25,107.25,0,0,1-11.61,4.29c-11.46,3-23,5.77-34.49,8.61a10.11,10.11,0,0,1-1.77.12c-.29-.86-.58-1.69-.86-2.52a23.61,23.61,0,0,0-6.06-9.76c-3.18-3.05-7-4.48-11.35-3.44a51.86,51.86,0,0,0-7.93,2.52A76.79,76.79,0,0,1,323,501.09a113.94,113.94,0,0,1-11.55.59,22.83,22.83,0,0,1-3.74-.44c-4.36-.62-6.8-3.16-7.78-7.43s.22-7.53,3.53-10a28.77,28.77,0,0,1,21.24-5.94c5.34.6,10.7,1.28,16.12.4a23.7,23.7,0,0,0,15.89-9.73c3.15-4.32,2.49-8.41-1.92-11.39a64.66,64.66,0,0,0-7.35-3.94c-3.36-1.7-6.84-3.19-10.13-5a21.17,21.17,0,0,1-9-10.42,16.13,16.13,0,0,1-1.12-5.47c-.11-1.82.39-2.17,2.27-2.16,3.24,0,6.48.05,9.71.22a262.24,262.24,0,0,0,30.45-.57,123.84,123.84,0,0,0,22.89-3.36c7.27-1.84,14.29-4.35,20.55-8.55a60,60,0,0,0,7.61-6.39c1.83-1.73,2.48-4.11,2.71-6.59a5.76,5.76,0,0,0-3.14-6.07,43.55,43.55,0,0,0-4.49-1.76,14.94,14.94,0,0,1-2.94-1.28,3.83,3.83,0,0,1-1.73-4.68,13.93,13.93,0,0,1,2.34-4.49,45.92,45.92,0,0,1,6.58-6.35c7.49-5.67,15.57-10.32,24.72-12.88a26.29,26.29,0,0,1,10.13-.9,12.58,12.58,0,0,1,3.38.83,6.21,6.21,0,0,1,3.87,7.89c-.43,1.54-1.29,3-1.84,4.47a34.8,34.8,0,0,0-1.87,5.87,4.32,4.32,0,0,0,3.51,5.24,16.34,16.34,0,0,0,5.07.43A103.33,103.33,0,0,0,505,380.3a54.25,54.25,0,0,0,14.24-10.56c3.41-3.46,6.78-6.95,10.23-10.36A45.51,45.51,0,0,1,533.09,356.52Z"/><path class="cls-1" d="M434.29,118c1.59-.62,3.08-1.19,4.56-1.78q10.88-4.37,21.75-8.75a41.42,41.42,0,0,0,11.64-7.2,43.77,43.77,0,0,1,4.07-3.11c3.74-2.54,7.73-2.59,11.85-1.06a4.86,4.86,0,0,1,3.39,3.84c.13.7.31,1.4.43,2.11a13.29,13.29,0,0,0,12.46,11.44,27.93,27.93,0,0,0,16.07-3.6c4.89-2.64,6.72-9.61,3.88-14.92a25.73,25.73,0,0,0-3.91-4.74,17.1,17.1,0,0,0-2.23-1.72,4.69,4.69,0,0,1,2.79-2.4c3.53-1.56,7.1-3,10.67-4.49,2.33-1,4.72-1.75,7-2.8,2.54-1.17,3.09-2.5,2.42-5.24-.29-1.21-.72-2.39-1.16-3.83L544.15,68a282.67,282.67,0,0,1,50,97.33l-9.54,1.26c-.72.09-1.44.15-2.14.28-7.09,1.26-10.6,5.19-11.13,12.41a38.9,38.9,0,0,0,2,14.88c.92,2.82,2,5.58,3.13,8.32a22.4,22.4,0,0,1,1.92,10.24,12.7,12.7,0,0,1-4.38,9c-3.51,3-6.78,2.23-8.42-2.07-1.24-3.25-1.33-6.69-1.39-10.1a27.74,27.74,0,0,0-2.37-11.26,20,20,0,0,0-12-10.89,9.86,9.86,0,0,0-10.32,1.92,49.1,49.1,0,0,0-5.69,6.1c-2.32,2.85-4.43,5.89-6.66,8.82-8.64,11.29-20.09,18.89-32.75,24.87a21.4,21.4,0,0,1-2.34.77,19,19,0,0,1-.77-2.82c-1-7.49-1.86-15-2.79-22.47a15.24,15.24,0,0,0-.57-3.18c-2.27-6.38-5.11-12.49-9.47-17.75a24.65,24.65,0,0,0-4.49-4.23c-4.52-3.25-9.3-3.21-13.7.23a40.65,40.65,0,0,0-5.05,5.19c-.89,1-1.53,2.23-2.39,3.26a47.81,47.81,0,0,1-4.17,4.59q-7.51,6.85-13.78-1.2c-4.06-5.2-6.28-11.3-7.75-17.63a57.16,57.16,0,0,1-1.11-9.6,10.81,10.81,0,0,1,.84-4.19,6.27,6.27,0,0,1,6.12-4.47c2.76,0,5.52.53,8.29.69a20.35,20.35,0,0,0,5.06-.17c3.24-.65,5-2.82,4.9-6.13a24.68,24.68,0,0,0-1.28-6.57,60.54,60.54,0,0,0-14.23-23.57c-.37-.39-.73-.8-1.08-1.2A3.23,3.23,0,0,1,434.29,118Z"/><path class="cls-1" d="M373.5,28.51c.48,1.16.8,2.09,1.23,3,1.81,3.71,3.55,7.45,5.54,11.06A21,21,0,0,0,383.76,47c5.05,5.15,10.68,5.83,17,1.69A31,31,0,0,0,405.94,44c3.47-3.6,4.74-3.86,8.56-.53a89.12,89.12,0,0,1,8.73,8.76,16.46,16.46,0,0,1,2.93,5.67,3.3,3.3,0,0,1-2.2,4.57,28,28,0,0,1-6.75,1.63c-2.4.27-4.85,0-7.28.07-5,0-7.43,2-8.67,6.77a13,13,0,0,0,.46,8.72,88.62,88.62,0,0,0,5.51,10.76c5.22,8.33,11.62,15.77,18.17,23.07.65.72,1.27,1.48,2.05,2.39a10.64,10.64,0,0,1-1.73,1c-14.19,4.56-28.37,9.16-43,12.33a37.44,37.44,0,0,1-6.93.79c-2.7.06-4.07-1.15-4.22-3.83a24.83,24.83,0,0,1,.58-5.87c.46-2.37,1.13-4.72,1.8-7,.87-3-.18-5.26-2.64-7a26.63,26.63,0,0,0-10.74-4.13,39.44,39.44,0,0,0-20.46,1.38,30.26,30.26,0,0,0-17.7,16c-3,6.11-1.63,11,4.12,14.62,2.48,1.59,5.24,2.75,7.86,4.12,1.52.79,3.08,1.51,4.51,2.42,1.95,1.24,2,2.23.25,3.8a20.58,20.58,0,0,1-3.75,2.6A81.91,81.91,0,0,1,316,154.17,170.83,170.83,0,0,1,292.66,158q-9.51,1.05-19,2c-1,.1-1.95,0-3.15,0-.32-1-.66-2-.94-3q-3.92-14.14-7.82-28.3c-1-3.74-.72-7.5-.18-11.24.26-1.81.14-3.81,1.81-5.19a1.69,1.69,0,0,0,.34-1.26c-.14-2.2,1.26-3.23,3.05-3.43a81.17,81.17,0,0,1,9.1-.39c3.41,0,6.84.52,10.22.25,6.4-.5,8.89-3.78,9.5-8.74a22.69,22.69,0,0,0-2.47-14.07,12.84,12.84,0,0,0-4.48-4.94,9.61,9.61,0,0,0-9.78-.37,72.22,72.22,0,0,0-6.72,4c-2.35,1.5-4.58,3.18-7,4.63-3.15,1.92-5.45,1.7-8-1A18.28,18.28,0,0,1,254,82,62.42,62.42,0,0,1,250,66.62c-.41-2.46-.71-4.94-1.11-7.82,1.54-.13,2.83-.32,4.13-.35a101.86,101.86,0,0,0,19.23-2.23A67.66,67.66,0,0,0,290,49.29a10.84,10.84,0,0,0,5.43-6.1c1.14-3.41,0-5.62-3.42-6.58-1.21-.33-2.45-.56-3.66-.91A3,3,0,0,1,286,32.51a7.28,7.28,0,0,1,3.81-7,42.26,42.26,0,0,1,7.62-3.32A38.26,38.26,0,0,1,312,20.15a19.46,19.46,0,0,1,6,1.35c2.59,1.07,3.08,3.06,1.73,5.51-.52.94-1.17,1.81-1.71,2.75-2,3.57-1.29,6.59,2.27,8.67,3.25,1.89,6.85,2,10.46,1.84,9.06-.51,17.68-3,26.18-5.94,4.76-1.64,9.46-3.42,14.19-5.13C371.8,29,372.48,28.8,373.5,28.51Z"/><path class="cls-1" d="M364.61,510.25c-12.22,3.17-24.33,6.5-36.54,9.39-5.48,1.3-11.19,1.62-16.76,2.59-3.79.67-7.53,1.67-11.28,2.58a12.62,12.62,0,0,0-2.73,1.11c-1.25.63-2.3,1.48-2.28,3.06s1.27,2.48,2.63,3.07a17.71,17.71,0,0,0,2.31.72c1.37.38,2.75.74,4.57,1.23-.63.31-.87.52-1.13.54q-9,.68-18,1.3c-1,.07-2,0-3,0a4.88,4.88,0,0,1-4.61-2.65c-1.64-2.75-4.41-4.17-7.39-5.07a37.15,37.15,0,0,0-13.34-1.41c-5.74.36-11.47.85-17.19,1.4a40.69,40.69,0,0,0-6.08,1.14,10.16,10.16,0,0,0-6.38,4.05c-1.39-1.14-2.67-2.23-4-3.28-7.5-6-14.94-12.12-22.53-18-3.61-2.81-7.44-5.35-11.27-7.85a11.79,11.79,0,0,0-6.61-2,4.72,4.72,0,0,0-4.56,2.76c-.2.4-.38.81-.57,1.22a4.69,4.69,0,0,1-4.77,2.83,14.25,14.25,0,0,1-6.72-1.78A84,84,0,0,1,145,490.59a19.64,19.64,0,0,1-2.33-3.3,14.93,14.93,0,0,1-.88-2.77,18.66,18.66,0,0,1,3.18.81c1.7.81,3.32,1.8,5,2.68,1.11.58,2.25,1.11,3.39,1.62a2.53,2.53,0,0,0,3-.48,2.4,2.4,0,0,0,.4-3,44,44,0,0,0-3-5.12,194.68,194.68,0,0,0-20.14-24.25c-2.86-2.86-5.73-5.72-8.58-8.59-.48-.48-.9-1-1.6-1.82,1.61,0,2.83-.08,4,0,7.69.63,15.39,1.35,23.09,1.94,6.36.48,12.73.9,19.1,1.2,6,.29,12.05.31,18.06.63,2.67.14,5.33.71,8,1.12a8.87,8.87,0,0,1,1.79.57c4,1.54,4.55,3.4,2.16,7-.7,1-1.5,2-2.09,3.14a7.94,7.94,0,0,0,1.51,9.87A15.75,15.75,0,0,0,206,476a65.71,65.71,0,0,0,11.26,2.56A89.3,89.3,0,0,0,248,476.46a23.68,23.68,0,0,0,6.43-2.68c3.85-2.32,4.57-6,1.93-9.65a37.34,37.34,0,0,0-4.29-4.43c-1-.94-2.1-1.73-3-2.74-1.72-2-1.85-3.86-.13-5.84a22.93,22.93,0,0,1,4.67-4c5-3.31,10.74-5,16.58-6.14q20.37-3.9,40.76-7.63c3.88-.72,7.78-1.28,11.83-1.93.2,1.47.28,2.71.57,3.91a25.09,25.09,0,0,0,10.92,15.48,85.43,85.43,0,0,0,9,4.75c2.65,1.33,5.43,2.43,8,3.9,4.05,2.33,4.34,4.36,1.31,7.94a19.2,19.2,0,0,1-15.06,7.25c-4.93,0-9.87-.38-14.79-.72a30.84,30.84,0,0,0-22.46,7.43c-6.95,5.77-5.2,14.16-1.44,19.44,1.47,2.05,3.74,3.06,6.1,3.76a35.21,35.21,0,0,0,12.84,1,94.34,94.34,0,0,0,21.62-4.27c2.48-.81,4.82-2,7.3-2.79a37.29,37.29,0,0,1,6.26-1.41,7,7,0,0,1,5.47,1.85,19.39,19.39,0,0,1,6,9.14A10.26,10.26,0,0,1,364.61,510.25Z"/><path class="cls-1" d="M534.84,351l-.69-1c-6.22-8.84-11-18.3-13-29.05A27,27,0,0,1,526,300c2-2.87,4.41-4,7.84-3.06a17.81,17.81,0,0,0,8.25.53A11,11,0,0,0,550,292a23.57,23.57,0,0,0,2.91-11.37,28.53,28.53,0,0,0-3.65-15.81c-2.69-4.51-6.53-7.3-11.93-7.73-4.52-.36-8.42.92-11.24,4.52a47.32,47.32,0,0,0-3.9,6.42c-1,1.8-1.84,3.7-2.82,5.52a3.89,3.89,0,0,1-4.55,2,9.23,9.23,0,0,1-5.23-2.56,16.9,16.9,0,0,1-2.2-2.72A130.37,130.37,0,0,1,491.91,236a10.78,10.78,0,0,1-.2-1.81,97.84,97.84,0,0,0,26.55-15.45,80.87,80.87,0,0,0,14.43-15.59c2.09-2.81,4.14-5.67,6.43-8.31,4.07-4.72,7.07-6.25,14-1.43,4.24,2.95,6.16,7.41,6.84,12.39.33,2.4.21,4.86.54,7.25a39.84,39.84,0,0,0,1.68,8.4c2.3,6.12,8.06,7.75,13.3,3.87,5.52-4.07,7.45-9.82,6.58-16.41a39.47,39.47,0,0,0-2.61-9c-2.16-5.46-4.16-10.95-4.25-16.88a27.75,27.75,0,0,1,.74-6.92,6.7,6.7,0,0,1,5.85-5.27q5.6-.81,11.23-1.33c2.12-.19,2.26-.09,2.72,2,1.81,8.52,3.73,17,5.24,25.6a286,286,0,0,1,3.78,59.89c-.16,4.66-.61,9.32-.87,14a6.64,6.64,0,0,1-1.44,3.68c-2.62,3.54-5.16,7.15-7.77,10.69a32.79,32.79,0,0,0-6.67,22.5,40.9,40.9,0,0,1-3.2,18.7,32.88,32.88,0,0,1-3.37,5.78,3,3,0,0,1-3.76,1.34,3.08,3.08,0,0,1-1.67-3.4c.24-2.68.79-5.33,1.13-8a26,26,0,0,0,.37-4.81c-.18-3.33-2.93-5-5.88-3.48a13.39,13.39,0,0,0-4.33,3.54,116.13,116.13,0,0,0-8.36,11.89c-5.43,9.25-13.82,15.19-22.49,20.88A10.74,10.74,0,0,1,534.84,351Z"/><path class="cls-1" d="M377.34,27.14c1.06-.38,2-.72,2.87-1,7.46-2.61,14.94-5.14,22.38-7.83,4.9-1.77,9.79-3.59,15-4.32a37.41,37.41,0,0,1,6.44-.3,4.85,4.85,0,0,1,4.83,3.92,37,37,0,0,0,2.57,6.78c2.77,5.39,7.69,7.69,13.69,6.77a35.69,35.69,0,0,0,11.95-4c5.23-2.88,5.45-6.71.57-10.15-2-1.39-4.16-2.5-6.2-3.82-1.33-.86-2.57-1.87-4.2-3.07a19,19,0,0,1,2.41-1.72C454.54,6,459.83,4.92,465.14,4a6.13,6.13,0,0,1,3.27.94A192.12,192.12,0,0,1,507,30c3.75,3.09,7.32,6.38,11,9.58a4.83,4.83,0,0,1,1.66,2.93,59.78,59.78,0,0,0,2.07,7.25,3.58,3.58,0,0,0,1.18,1.72,23.48,23.48,0,0,1,6.19,7.06c2.58,4.31,4.94,8.75,7.32,13.18a19.94,19.94,0,0,1,1.09,3.44c-1.63.68-3,1.28-4.42,1.84-4.08,1.63-8.22,3.15-12.24,4.91a19.75,19.75,0,0,0-5,3.16c-2.5,2.2-2.25,4.77.37,6.83a28.31,28.31,0,0,1,3.33,2.71,8.16,8.16,0,0,1,1.43,9.26,5.74,5.74,0,0,1-2.05,2.42c-4.66,2.48-9.55,4.25-15,3.16-5-1-7.53-3.84-8.22-8-1.14-6.8-3.35-8.68-10.12-9.94a15,15,0,0,0-11.31,2.38c-2,1.32-3.8,3-5.8,4.39a46.65,46.65,0,0,1-7.75,4.81c-9,3.85-18.13,7.39-27.2,11.08a2.41,2.41,0,0,1-3.06-.77c-7.45-8.19-14.74-16.52-20.61-25.94a70.79,70.79,0,0,1-4.56-9.14,10.24,10.24,0,0,1,0-7.39,3.59,3.59,0,0,1,3.77-2.82,56.1,56.1,0,0,0,6.74,0,42.12,42.12,0,0,0,8.68-1.64c5.25-1.77,7-6,5-11.21a18.46,18.46,0,0,0-1.88-3.57,47.89,47.89,0,0,0-12.49-12.54c-4.11-2.88-7.25-2.48-10.83,1.09-.95,1-1.8,2-2.78,2.93a22.33,22.33,0,0,1-3.09,2.59c-4.2,2.72-8.25,2.38-11.69-1.23a32,32,0,0,1-4.6-6.28c-1.5-2.64-2.62-5.51-3.86-8.29C377.9,29.07,377.69,28.2,377.34,27.14Z"/><path class="cls-1" d="M94.13,186.9a107.1,107.1,0,0,1-.39-19.79,87,87,0,0,1,1-8.83c1.22-7,4.16-13.36,7.54-19.52a12.08,12.08,0,0,1,2.54-3.11,4.67,4.67,0,0,1,6.54.1,6.79,6.79,0,0,0,5.15,2c5.06-.38,10,.46,15,1.09a106.38,106.38,0,0,0,23.93.06A110.47,110.47,0,0,0,176.32,135a36.1,36.1,0,0,0,5.49-2.19,10.62,10.62,0,0,0,3-2.23,4.35,4.35,0,0,0,.29-6.11,13.58,13.58,0,0,0-2.34-2.2c-3-2.35-4.07-5.55-2.59-9.08a13.7,13.7,0,0,1,3.43-5c6.2-5.35,13.38-7.17,21.33-4.83a19.16,19.16,0,0,1,5.39,2.94,7.42,7.42,0,0,1,3.06,5.49c.28,2.62,1.37,3.91,4,4.29a34.47,34.47,0,0,0,7.24.39c9.43-.62,18.67-2.47,27.91-4.36,1.83-.38,3.67-.69,5.9-1.11-.11,1.33-.17,2.36-.29,3.39-.29,2.5-.69,5-.89,7.49a28.12,28.12,0,0,0,1.41,10.06c2.66,9.14,5,18.36,7.51,27.55a8.48,8.48,0,0,1,.09,1.12c-2,.37-4,.75-6,1.1-14.68,2.56-29.38,5-44,7.72-5.2,1-10.32,2.38-15.42,3.8a20.86,20.86,0,0,0-9.94,6.2c-4.74,5.2-4.54,11.68.49,16.6,1.35,1.31,2.84,2.5,4.08,3.91,2.55,2.92,2.4,4.88-.87,6.79-6.91,4-14.27,6.87-22.39,6.93-5.51,0-10.34-2.18-14.55-5.6-2.67-2.17-2.75-3.76-.53-6.41,1.5-1.78,3.24-3.36,4.81-5.09a39.56,39.56,0,0,0,4-4.73c2.12-3.25,1.14-6.15-2.51-7.54a25,25,0,0,0-5.21-1.28A138.75,138.75,0,0,0,134,181.61c-4.49.14-9,.4-13.47.59a108.3,108.3,0,0,0-23.58,4C96.11,186.42,95.25,186.62,94.13,186.9Z"/><path class="cls-1" d="M19.06,297.22c-.89-1-1.4-1.45-1.83-2-3.57-4.62-7.09-9.29-10.71-13.87-1.22-1.55-1.34-3.32-1.43-5.09-.32-6.19-.6-12.38-.8-18.58a303.75,303.75,0,0,1,1.36-38.51c.87-8.93,2.08-17.84,3.19-26.75.27-2.22.82-2.74,3.05-2.24a17.83,17.83,0,0,1,5.12,2.2c2.85,1.73,5.77,2.88,9.17,2.56A16.39,16.39,0,0,0,34,192.24a10.23,10.23,0,0,0,4.43-8.52c.14-3.5.08-7-.11-10.51-.21-4.1,1.5-7.33,4.15-10.18a10.22,10.22,0,0,1,7.18-3.24,4.87,4.87,0,0,1,5,2.94,10.56,10.56,0,0,1,1.12,7.06,58.19,58.19,0,0,1-2,6.67c-.47,1.35-1.24,2.61-1.67,4-2.19,6.79,1.29,12,8.42,12.31,3.67.16,7.36-.19,11-.29q8.2-.21,16.41-.38a9.33,9.33,0,0,1,1.68.28c1.36,2.57,1.18,5.44,1.28,8.16a140.32,140.32,0,0,1-1.63,26.06,30.47,30.47,0,0,1-2.5,7.65c-1.74,3.88-3.69,4.31-7.18,1.95a33.71,33.71,0,0,0-3.38-2.2c-6-3.09-11.82-1-14.31,5.28a18.16,18.16,0,0,0-1.38,6.27,85.13,85.13,0,0,0,2,22.22,22.35,22.35,0,0,0,2.11,5.5c2.14,3.8,5.38,4.55,9.12,2.32,1.69-1,3.3-2.2,5.06-3.07a31.12,31.12,0,0,1,5.77-2.18c3.21-.82,5.26.39,6,3.63a37.24,37.24,0,0,1,1,7.2c.56,14.81,1,29.63,1.5,44.46a13.52,13.52,0,0,1-.25,1.8c-1.69,0-3.29,0-4.89,0a104.58,104.58,0,0,1-24.78-3.2A32.87,32.87,0,0,1,53,319.81c-6.49-4.38-9.07-10.49-7.72-18.16a37,37,0,0,1,2-7.26c5.34-13.41-6.87-23.72-18-22.52-5.67.61-9.67,4.95-9.94,10.94-.17,3.86-.1,7.73-.14,11.6C19.18,295.11,19.12,295.82,19.06,297.22Z"/><path class="cls-1" d="M114.51,440.27a19.69,19.69,0,0,1-2.75-.34c-5.66-1.74-11.31-3.52-17-5.29a2.6,2.6,0,0,1-.25-.1c-7.24-3.07-9.35-6-9.07-13.51.16-4.66-.74-8.91-3.71-12.63a24.74,24.74,0,0,0-12.53-8.91,14.52,14.52,0,0,0-7.46-.27c-4.42,1-6.82,4.2-6.1,8.7a31,31,0,0,0,2.29,8c1.77,3.92,4,7.63,6,11.42a14.37,14.37,0,0,1,1.1,2.31C32.92,388,12.53,341.41,6.45,288.92c.17-.11.34-.22.52-.32.51.56,1,1.08,1.52,1.67,2.63,3.31,5.22,6.65,7.88,9.93a12.78,12.78,0,0,0,2.5,2.43,2.23,2.23,0,0,0,3.63-1.27,9.08,9.08,0,0,0,.34-2.66c.13-4.58.22-9.16.33-13.75a26.69,26.69,0,0,1,.16-3,6.79,6.79,0,0,1,6.38-6.22,13.72,13.72,0,0,1,12.58,5.34,10.42,10.42,0,0,1,2.08,9.4c-.37,1.56-1,3.07-1.47,4.61a29.86,29.86,0,0,0-1.64,12.72,20.05,20.05,0,0,0,7.89,13.91c4.78,3.76,10.37,5.65,16.21,6.95a121.64,121.64,0,0,0,24.07,2.59c1,0,1.94,0,3.19,0,.1,1.22.26,2.16.25,3.1a218.42,218.42,0,0,0,1.5,30.68,85.83,85.83,0,0,0,2,9.47,17.29,17.29,0,0,0,3.93,7c3.66,4.24,8.22,5.77,13.55,4a55.72,55.72,0,0,0,8-3.73,52,52,0,0,0,4.52-2.93c3.95-2.6,7.09-2.61,10.94.19,5,3.61,8,8.7,10.42,14.17a27.65,27.65,0,0,1,1.87,6.17c.82,4.51-1.16,7.58-5.63,8.64-5,1.2-9.66.71-13.26-3.58a41.36,41.36,0,0,0-3.19-3.3,10.64,10.64,0,0,0-10.21-2.78,32.94,32.94,0,0,0-5.62,1.83c-6.85,2.93-9.79,8.46-8.59,15.83a34.22,34.22,0,0,0,3.41,10.47c2,3.74,4.15,7.35,6.25,11C113.27,438.26,113.73,439,114.51,440.27Z"/><path class="cls-1" d="M90,188.12c-2.27,0-4.15-.07-6,0-6.73.3-13.46.7-20.19,1a18,18,0,0,1-4.8-.46c-3-.71-4.34-2.89-3.56-5.88a28.8,28.8,0,0,1,2-5,19.86,19.86,0,0,0,2-12.29,17.69,17.69,0,0,0-2.32-5.94,7.7,7.7,0,0,0-7.37-3.63,13.93,13.93,0,0,0-9.31,3.74c-3.74,3.63-6.23,7.89-6,13.34.08,2,.24,3.94.24,5.92a46.45,46.45,0,0,1-.3,5.9,6.23,6.23,0,0,1-3.95,5.06c-3.78,1.66-7.51,1.91-11-.6A16.36,16.36,0,0,0,10,186.12c4.83-34.4,17.93-65,37.77-93.06l2.41.81a23.88,23.88,0,0,0,19.06-1.59,14.26,14.26,0,0,0,7-7.86c.72-1.93,1.35-3.9,2-5.87a7.64,7.64,0,0,1,6.75-5.72,17,17,0,0,1,7.21.13c2.09.58,2.71,1.62,1.86,3.6a31.81,31.81,0,0,1-2.34,3.91,17.75,17.75,0,0,0-1.86,3.23,3.51,3.51,0,0,0,3.09,4.88,11.39,11.39,0,0,0,4.51-.39c3.24-1.07,6.36-2.46,9.54-3.68,2.43-.92,4.86-1.86,7.34-2.6a21.51,21.51,0,0,1,4.09-.33c-.55,1.3-.94,2.18-1.3,3.07-1.62,3.91-3.23,7.82-3.47,12.11a20.11,20.11,0,0,0,0,2.69,8.06,8.06,0,0,0,9.25,7.29c1.77-.26,3.5-.79,5.24-1.21,4.31-1,7.67,1.25,7.74,5.71a83.32,83.32,0,0,1-.8,12.62c-.48,3.61-2.86,6.11-6.1,7.74-4,2-8.26,2.23-12.57,2.18a4.59,4.59,0,0,1-2.6-1.14,8.4,8.4,0,0,0-10.44-.63,14.08,14.08,0,0,0-4,4.25c-5.19,8.86-8.89,18.28-9.28,28.68C89.8,171.48,90,178,90,184.6,90,185.66,90,186.72,90,188.12Z"/><path class="cls-1" d="M537,354.69a13.86,13.86,0,0,1,1.15-.85,88.56,88.56,0,0,0,17.21-13.37,43.54,43.54,0,0,0,5.23-6.47c2.83-4.05,5.41-8.27,8.26-12.31,1.88-2.67,2.62-3.12,4.85-4.16a14.71,14.71,0,0,1,0,2.12c-.44,3.11-1,6.21-1.38,9.33a12.13,12.13,0,0,0,.18,3.75,6.3,6.3,0,0,0,9.42,4.27,12.33,12.33,0,0,0,4.55-4.87,40.09,40.09,0,0,0,5.05-15.81,69.31,69.31,0,0,0,.33-9.67A27.81,27.81,0,0,1,596,290.46c1.94-3,4-5.86,6.08-8.78l.62.21c-.23,2.08-.41,4.16-.72,6.22a338.63,338.63,0,0,1-35.4,107.55c-11.55,22-26.64,41.59-43.79,59.58-.41.44-.88.82-1.42,1.31,0-1.61,0-3,0-4.4a4.67,4.67,0,0,0-.51-2c-.79-1.42-2-1.44-3.63-.27q-7.62,5.35-15.26,10.66c-.8.56-1.65,1.05-2.88,1.83.32-.94.47-1.49.68-2a44.88,44.88,0,0,1,12.13-16.95,35.26,35.26,0,0,0,7.69-9.32,9,9,0,0,0,1.39-5.13,3.81,3.81,0,0,0-3.5-3.81,14.58,14.58,0,0,0-4.51.37c-3.45.85-6.41,2.78-9.34,4.72-1.87,1.23-3.77,2.44-5.68,3.61a11.58,11.58,0,0,1-1.95.92c-3.39,1.31-4.73.45-4.82-3.17a29.77,29.77,0,0,1,2.4-12.35,13.56,13.56,0,0,1,8.41-7.88c4-1.32,8.13-2.19,12.2-3.3,2.6-.7,5.22-1.33,7.75-2.23a11.56,11.56,0,0,0,6.88-5.77c3.75-8,7.8-16,9.82-24.75C540.19,368.33,540.29,361.38,537,354.69Z"/><path class="cls-1" d="M68.48,434.22a8.58,8.58,0,0,0,1.65-.45,1.8,1.8,0,0,0,.93-2.68,17.61,17.61,0,0,0-1.32-2,78.31,78.31,0,0,1-8.41-15,29,29,0,0,1-1.79-6.72c-.35-2.59.55-3.54,3-4.3a9.88,9.88,0,0,1,6.59.48,20.24,20.24,0,0,1,11.07,9.77,13.44,13.44,0,0,1,1.22,4.62c.27,2.41.23,4.85.38,7.27a12.31,12.31,0,0,0,5.69,9.9,34.06,34.06,0,0,0,6.19,3.23,124.35,124.35,0,0,0,20.1,6,7,7,0,0,1,3.3,1.57c11.43,10.83,22.5,22,31.73,34.84a9.16,9.16,0,0,1,1.58,3c-.59-.27-1.18-.56-1.78-.82a39.06,39.06,0,0,0-4.71-2c-3.72-1-6.55,1.65-5.67,5.42a12.36,12.36,0,0,0,2.13,4.59A51.14,51.14,0,0,0,146,497.1a94.59,94.59,0,0,0,16.86,12.51,20.42,20.42,0,0,0,10.71,3.18c3.5,0,6.18-1.51,7.59-4.63,1.13-2.49,2-2.72,4.68-1.55a28.94,28.94,0,0,1,5,2.7c3,2,5.84,4.19,8.66,6.42q10.66,8.46,21.24,17a36.34,36.34,0,0,1,4.39,4.21C160.35,521.94,108.43,487.48,68.48,434.22Z"/><path class="cls-1" d="M367.61,526.4c1-2.22,2.19-4.17,2.62-6.28s.1-4.41.1-6.86c1.35-.37,2.61-.74,3.89-1.07,11.91-3.05,23.84-6,35.72-9.19a57.77,57.77,0,0,0,8.51-3.34,13.3,13.3,0,0,0,3.57-2.37c2.39-2.18,2.16-4.67-.45-6.56-2.87-2.07-2.9-2.76,0-5a25,25,0,0,1,4.12-2.55,51.12,51.12,0,0,1,21.6-5,12.88,12.88,0,0,1,2.14.18,3.49,3.49,0,0,1,.85.49c-.06.46-.13,1-.2,1.47-.42,3,1.17,5.24,4.21,5.32a22.41,22.41,0,0,0,6.62-.84,48.81,48.81,0,0,0,7.51-3c6.91-3.26,13.75-6.65,20.65-9.93,1.68-.8,3.5-1.32,5.22-2.05a15.85,15.85,0,0,0,2.57-1.45q9-6,17.9-12.05c.72-.48,1.45-.94,2.54-1.63-.79,4.32-1.69,7.91-4.83,10.88C488,488.78,460.87,508.05,430,521.88c-15,6.72-30.67,11.24-46.64,14.86-4.81,1.08-9.65,2.07-14.48,3.08a5.48,5.48,0,0,1-1.87.2c-.53-.08-1.44-.5-1.44-.76,0-.62.31-1.6.75-1.78a26.06,26.06,0,0,1,5.1-1.54c5.39-1,10.82-1.7,16.18-2.8a37.13,37.13,0,0,0,7.33-2.58,8.46,8.46,0,0,0,3.1-2.5c1.81-2.38,1-5.16-1.88-6a17.36,17.36,0,0,0-5.57-.57,54.46,54.46,0,0,0-16,3.64,51.48,51.48,0,0,1-5.17,1.45A6.54,6.54,0,0,1,367.61,526.4Z"/><path class="cls-1" d="M157.59,9.5c-.61,1.12-1,2.08-1.62,2.94-1.7,2.53-3.58,5-5.18,7.56a92.53,92.53,0,0,0-4.46,8.26c-1.22,2.58-2.14,3.08-4.82,1.95a28.51,28.51,0,0,1-2.65-1.33c-8-4.44-17.26,2.34-17.06,10.39a26.87,26.87,0,0,0,.1,2.69c.52,3.92,3.28,5.84,7.1,4.88a31.43,31.43,0,0,0,3.79-1.4c1.26-.48,2.64-1.23,3.82-.27s.83,2.51.4,3.79a30.6,30.6,0,0,1-2.36,6c-4.33,7.25-8.85,14.39-13.27,21.58a2.59,2.59,0,0,1-2.88,1.35,19.29,19.29,0,0,0-9.72,1.67c-3.23,1.35-6.42,2.81-9.68,4.1-1.63.64-3.37,1-5.06,1.48l-.42-.52c.38-.62.78-1.22,1.14-1.85a38.61,38.61,0,0,0,3.09-5.62c1.25-3.43-.19-6.48-3.62-7.53a19.29,19.29,0,0,0-14.44.91A9.94,9.94,0,0,0,75,76.13a37.07,37.07,0,0,0-1.51,4.61C71.86,87.27,67.1,90,61,91a17,17,0,0,1-10.29-1.15A3.35,3.35,0,0,1,51,89c4.38-5,8.69-10.07,13.19-15a27.42,27.42,0,0,1,5.08-4,17.81,17.81,0,0,0,5.22-5.37c1.39-2.2,2.55-4.54,3.85-6.79s2.28-4.55,3.91-6.4c4.69-5.31,9.61-10.44,14.5-15.58a23,23,0,0,1,10.61-6.14c2.41-.69,4.79-1.53,7.15-2.39,3.48-1.28,5.23-3.9,4.88-7.52-.25-2.57.76-3.92,2.85-5.12,2.33-1.33,4.46-3,6.7-4.51a13,13,0,0,1,8.34-2.57,6.36,6.36,0,0,1,1.84.33c1.45.55,1.81,1.3,1.16,2.72a23.52,23.52,0,0,1-1.82,3c-.49.75-1.13,1.42-1.54,2.2-1,2,0,3.79,2.25,3.56a7.9,7.9,0,0,0,3.71-1.4c2.89-2.12,5.67-4.41,8.41-6.73A7.43,7.43,0,0,1,157.59,9.5Z"/><path class="cls-1" d="M394.77,525.55a4.8,4.8,0,0,1-3.43,2.49c-3.72,1-7.45,2-11.23,2.73-3.61.71-7.27,1.1-10.91,1.64a14.4,14.4,0,0,0-1.59.31c-4.7,1.27-6.15,3.18-6.12,8.4-3.19.52-6.42,1.17-9.68,1.55-9.63,1.1-19.26,2.37-28.92,3.07a264.29,264.29,0,0,1-35.82.4c-6.27-.4-12.55-.74-18.81-1.31a306,306,0,0,1-33-5c-2.31-.47-3-2.35-3.93-4-.18-.33.36-1.42.82-1.67a12.28,12.28,0,0,1,3.76-1.39c3.8-.62,7.63-1.21,11.46-1.53,4.56-.37,9.15-.61,13.72-.59a35.3,35.3,0,0,1,7.7,1.09,9.28,9.28,0,0,1,6.4,4.54c1.41,2.56,3.88,3.47,6.6,3.43,3.94-.06,7.88-.36,11.82-.62q6.18-.42,12.35-1a21.12,21.12,0,0,0,3.7-.67c1.25-.34,2.38-1,2.53-2.47a2.78,2.78,0,0,0-2-2.92c-2.08-.83-4.22-1.5-6.35-2.19a10,10,0,0,1-2.87-1.2,17,17,0,0,1,2.37-.82c5.63-1.07,11.25-2.41,16.93-3.07a169.51,169.51,0,0,0,27.08-5.8c5.61-1.59,11.21-3.21,16.82-4.81a14.93,14.93,0,0,1,1.75-.25,7.52,7.52,0,0,1-.13,7.22,20.61,20.61,0,0,0-1.9,4.41c-.68,2.75.94,4.77,3.75,5,2.49.23,4.78-.61,7.1-1.33,3.59-1.12,7.18-2.28,10.83-3.19a40,40,0,0,1,6.39-.82A14,14,0,0,1,394.77,525.55Z"/><path class="cls-1" d="M541.5,64.82l-3.21,1.28c-.49-.8-.93-1.55-1.4-2.27-2.11-3.33-4.14-6.71-6.4-9.94a34.24,34.24,0,0,0-4.14-4.56c-.77-.78-1.55-1.44-1.25-2.85A236.89,236.89,0,0,1,541.5,64.82Z"/></g></svg>